<?xml version="1.0" encoding="utf-8"?>
<!-- Generator: Adobe Illustrator 17.1.0, SVG Export Plug-In . SVG Version: 6.00 Build 0)  -->
<!DOCTYPE svg PUBLIC "-//W3C//DTD SVG 1.1//EN" "http://www.w3.org/Graphics/SVG/1.1/DTD/svg11.dtd">
<svg version="1.1" id="Layer_1" xmlns="http://www.w3.org/2000/svg" xmlns:xlink="http://www.w3.org/1999/xlink" x="0px" y="0px"
	 viewBox="0 0 60 60" enable-background="new 0 0 60 60" xml:space="preserve">
<path fill-rule="evenodd" clip-rule="evenodd" fill="#181616" d="M29.9981,1.0685C13.433,1.0685,0,14.4998,0,31.0703
	c0,13.2532,8.5951,24.4975,20.5173,28.4651c1.5001,0.2751,2.0476-0.651,2.0476-1.4461c0-0.7122-0.026-2.5988-0.0405-5.1023
	c-8.345,1.8129-10.1058-4.0215-10.1058-4.0215c-1.3641-3.4657-3.3309-4.3883-3.3309-4.3883
	c-2.7238-1.8614,0.2061-1.8236,0.2061-1.8236c3.0106,0.2122,4.5952,3.0916,4.5952,3.0916c2.6761,4.5845,7.0214,3.2607,8.7308,2.4927
	c0.2726-1.9387,1.0475-3.2607,1.9047-4.0106c-6.6617-0.7571-13.665-3.3308-13.665-14.8269c0-3.275,1.1689-5.953,3.0879-8.0501
	c-0.3085-0.759-1.338-3.8091,0.2941-7.9394c0,0,2.5189-0.8067,8.2498,3.0754c2.3929-0.6654,4.9593-0.9982,7.5105-1.0098
	c2.5476,0.0116,5.1141,0.3444,7.5105,1.0098c5.7274-3.8821,8.2417-3.0754,8.2417-3.0754c1.6367,4.1303,0.607,7.1805,0.2985,7.9394
	c1.9227,2.0971,3.0837,4.7751,3.0837,8.0501c0,11.5248-7.0142,14.0608-13.6974,14.8035c1.0772,0.9262,2.0367,2.7572,2.0367,5.5556
	c0,4.0106-0.0368,7.2462-0.0368,8.2299c0,0.8022,0.5403,1.7356,2.0629,1.4426C51.4121,55.5569,60,44.32,60,31.0703
	C60,14.4998,46.5668,1.0685,29.9981,1.0685z"/>
<g>
</g>
<g>
</g>
<g>
</g>
<g>
</g>
<g>
</g>
<g>
</g>
</svg>
