<svg id="Layer_1" data-name="Layer 1" xmlns="http://www.w3.org/2000/svg" viewBox="0 0 597.25 88.57"><title>runnable-logo</title><path d="M95.42,4.4L11.266,0.017C5.081-.3,0,3.893,0,9.4v3.987l104.341,3.742v-3.5A9.4,9.4,0,0,0,95.42,4.4ZM13.484,8.473a1.5,1.5,0,0,1-1.663,1.4L8.477,9.742A1.673,1.673,0,0,1,6.8,8.191V5.224a1.5,1.5,0,0,1,1.682-1.4l3.345,0.158A1.67,1.67,0,0,1,13.484,5.53V8.473ZM24.4,8.934a1.47,1.47,0,0,1-1.62,1.388l-3.258-.132a1.638,1.638,0,0,1-1.639-1.531V5.731a1.474,1.474,0,0,1,1.639-1.387L22.783,4.5A1.634,1.634,0,0,1,24.4,6.028V8.934Zm10.641,0.45a1.44,1.44,0,0,1-1.579,1.37l-3.176-.128a1.6,1.6,0,0,1-1.6-1.51V6.225a1.444,1.444,0,0,1,1.6-1.37l3.176,0.151a1.6,1.6,0,0,1,1.579,1.509V9.384ZM0,79.172c0,5.5,5.081,9.7,11.266,9.381L95.42,84.171a9.4,9.4,0,0,0,8.921-9.225V20.632L0,17.373v61.8ZM46.819,39.943a4.454,4.454,0,0,1,0-6.665,5.344,5.344,0,0,1,7.155.1L67.914,46.548a4.43,4.43,0,0,1,0,6.492L53.974,66.407a5.348,5.348,0,0,1-7.155.2,4.454,4.454,0,0,1,0-6.665L57.5,49.866Z" style="fill:#ccadd2"/><path d="M177.172,24.683a18.809,18.809,0,0,0-2.8-.738,16.975,16.975,0,0,0-3.223-.316,14.666,14.666,0,0,0-5.126.843,15.684,15.684,0,0,0-4.069,2.213,21.08,21.08,0,0,0-3.276,3.11,39.24,39.24,0,0,0-2.747,3.637V25.21H137.648q0,0.948.105,2.741t0.211,3.847q0.1,2.055.158,4.216t0.053,3.953V82.132H158.15V50.719a23.079,23.079,0,0,1,.317-4.322,5.047,5.047,0,0,1,1.8-2.846,8.724,8.724,0,0,1,2.377-1.581,10.083,10.083,0,0,1,4.28-.737,10.883,10.883,0,0,1,3.435.58,10.524,10.524,0,0,1,3.012,1.528Z" style="fill:#fff"/><path d="M237.41,82.132V25.21H217.436v33.2A15.685,15.685,0,0,1,217.121,62a8.034,8.034,0,0,1-1.887,3.057,6.779,6.779,0,0,1-5.139,2.214q-6.4,0-6.4-7.8V25.21H183.724V64.528a27.8,27.8,0,0,0,1,7.643,16.791,16.791,0,0,0,3.17,6.167,14.49,14.49,0,0,0,5.6,4.11,20.965,20.965,0,0,0,8.3,1.476,19.241,19.241,0,0,0,9.987-2.477,25.391,25.391,0,0,0,7.345-6.693v7.379H237.41Z" style="fill:#fff"/><path d="M305.151,82.132V42.813a27.872,27.872,0,0,0-1-7.642A16.061,16.061,0,0,0,300.871,29a15.329,15.329,0,0,0-5.812-4.111,22.4,22.4,0,0,0-8.613-1.476,19.671,19.671,0,0,0-10.568,2.688,28.836,28.836,0,0,0-7.714,7.115V25.21H249.88V82.132h19.974v-33.1a13.559,13.559,0,0,1,.366-3.584,7.377,7.377,0,0,1,2.152-2.951,8.213,8.213,0,0,1,2.467-1.634,7.962,7.962,0,0,1,3.306-.686q3.674,0,5.353,1.95t1.681,5.851V82.132h19.974Z" style="fill:#fff"/><path d="M372.68,82.132V42.813a27.872,27.872,0,0,0-1-7.642A16.046,16.046,0,0,0,368.4,29a15.337,15.337,0,0,0-5.812-4.111,22.4,22.4,0,0,0-8.613-1.476,19.667,19.667,0,0,0-10.568,2.688,28.833,28.833,0,0,0-7.715,7.115V25.21H317.408V82.132h19.975v-33.1a13.559,13.559,0,0,1,.366-3.584A7.374,7.374,0,0,1,339.9,42.5a8.219,8.219,0,0,1,2.468-1.634,7.959,7.959,0,0,1,3.306-.686q3.672,0,5.353,1.95t1.679,5.851V82.132H372.68Z" style="fill:#fff"/><path d="M415.269,63.052a7.637,7.637,0,0,1-1.9,5.482,8.535,8.535,0,0,1-6.446,2.529,5.6,5.6,0,0,1-5.814-5.8,5.309,5.309,0,0,1,1.058-3.426,6.784,6.784,0,0,1,2.642-2,13.39,13.39,0,0,1,3.435-.948,24.546,24.546,0,0,1,3.434-.264q0.952,0,1.9-.053a8.76,8.76,0,0,1,1.691.053v4.427ZM438.729,69.9a5.215,5.215,0,0,1-1.058.369,4.878,4.878,0,0,1-1.161.158,1.616,1.616,0,0,1-1.8-1.16,9.537,9.537,0,0,1-.317-2.529V43.762a19.742,19.742,0,0,0-2.378-10.277,18.061,18.061,0,0,0-6.077-6.219,23.238,23.238,0,0,0-8.189-3.057,50.258,50.258,0,0,0-8.719-.791,66.662,66.662,0,0,0-12.471,1.107,56.423,56.423,0,0,0-11.52,3.531l4.439,13.809a32.6,32.6,0,0,1,6.657-3.109,26.074,26.074,0,0,1,8.561-1.318,21.65,21.65,0,0,1,5.231.527,9.505,9.505,0,0,1,3.276,1.423,4.893,4.893,0,0,1,1.69,2.055,6.329,6.329,0,0,1,.476,2.424v2.108a1.617,1.617,0,0,1-1.057,1.792,10.311,10.311,0,0,1-2.853.315,76.5,76.5,0,0,0-10.04.687,33.911,33.911,0,0,0-9.511,2.635,18.335,18.335,0,0,0-7.134,5.587q-2.8,3.636-2.8,9.645a18.518,18.518,0,0,0,1.269,6.957,15.539,15.539,0,0,0,3.593,5.429,16.534,16.534,0,0,0,5.5,3.531,18.656,18.656,0,0,0,6.975,1.266,23.49,23.49,0,0,0,10.251-1.95,25.01,25.01,0,0,0,7.608-5.955,9.537,9.537,0,0,0,3.806,5.27,13.209,13.209,0,0,0,7.714,2,39.975,39.975,0,0,0,5.813-.421q2.853-.423,4.967-0.949Z" style="fill:#fff"/><path d="M483.01,60.206a17.751,17.751,0,0,1-1.479,4.849,10.4,10.4,0,0,1-2.906,3.69,7.3,7.3,0,0,1-4.7,1.475q-3.806,0-5.548-1.633a5.708,5.708,0,0,1-1.744-4.375V48.3a10,10,0,0,1,.423-3.215,7.592,7.592,0,0,1,1.9-2.688,8.846,8.846,0,0,1,2.325-1.634,7,7,0,0,1,3.17-.685,6.782,6.782,0,0,1,4.65,1.581,10.354,10.354,0,0,1,2.747,3.9,18.983,18.983,0,0,1,1.268,4.954,40.918,40.918,0,0,1,.316,4.85A30.955,30.955,0,0,1,483.01,60.206Zm19.974-18.184a29.566,29.566,0,0,0-3.963-9.434,21.768,21.768,0,0,0-6.764-6.641,18.148,18.148,0,0,0-9.775-2.529,16.941,16.941,0,0,0-9.247,2.319,26.443,26.443,0,0,0-6.5,5.9V4.128H446.655v78h19.551V79.707a14.568,14.568,0,0,0,5.5,3.058,21.726,21.726,0,0,0,6.87,1.158,23.019,23.019,0,0,0,11.889-2.9,24.722,24.722,0,0,0,7.978-7.378,30.734,30.734,0,0,0,4.439-9.962,43.807,43.807,0,0,0,1.374-10.646A47.363,47.363,0,0,0,502.983,42.023Z" style="fill:#fff"/><path d="M533.1,82.132v-78H513.128v78H533.1Z" style="fill:#fff"/><path d="M561.635,45.766a14.05,14.05,0,0,1,.423-3.321,10.36,10.36,0,0,1,1.427-3.268,7.508,7.508,0,0,1,2.748-2.478,8.856,8.856,0,0,1,4.28-.948,7.742,7.742,0,0,1,6.657,3,9.68,9.68,0,0,1,1.8,7.011H561.635Zm34.452-5.851a23.125,23.125,0,0,0-4.649-8.328,23.52,23.52,0,0,0-8.19-5.9,29.287,29.287,0,0,0-12.1-2.266,30.792,30.792,0,0,0-12.629,2.424,26.118,26.118,0,0,0-9.142,6.641,28.8,28.8,0,0,0-5.6,9.75,36.226,36.226,0,0,0-1.9,11.859,32.3,32.3,0,0,0,2.483,13.123,25.261,25.261,0,0,0,6.869,9.329,29.231,29.231,0,0,0,10.409,5.534,44.61,44.61,0,0,0,13.105,1.844,60.138,60.138,0,0,0,11.783-1.106,64.6,64.6,0,0,0,9.563-2.582L592.6,66.321a44.231,44.231,0,0,1-6.922,2.371,31.152,31.152,0,0,1-7.873,1q-7.715,0-11.836-3.215a10.343,10.343,0,0,1-4.122-8.592V57.15h35.4q0.1-.737.158-1.792t0.106-2.161c0.035-.738.053-1.439,0.053-2.108V49.454A31.546,31.546,0,0,0,596.087,39.915Z" style="fill:#fff"/></svg>