<?xml version="1.0" encoding="utf-8"?>
<!-- Generator: Adobe Illustrator 17.1.0, SVG Export Plug-In . SVG Version: 6.00 Build 0)  -->
<!DOCTYPE svg PUBLIC "-//W3C//DTD SVG 1.1//EN" "http://www.w3.org/Graphics/SVG/1.1/DTD/svg11.dtd">
<svg version="1.1" id="Layer_1" xmlns="http://www.w3.org/2000/svg" xmlns:xlink="http://www.w3.org/1999/xlink" x="0px" y="0px"
	 viewBox="0 0 90 30" enable-background="new 0 0 90 30" xml:space="preserve">
<rect y="6" fill="#F1F2F2" width="30" height="24"/>
<rect x="0.1" fill="#804EA8" width="90" height="6"/>
<rect x="60" y="6" fill="#F1F2F2" width="30" height="9.9"/>
<rect x="30" y="6" fill="#383734" width="30" height="24"/>
<rect x="60" y="16" fill="#383734" width="30" height="14"/>
<rect x="2" y="1" fill="#F1F2F2" width="3" height="3"/>
<polygon fill="#F8918E" points="2,1 5,1 5,1 "/>
<polygon fill="#FCF0BE" points="6,1 9,1 9,1 "/>
<polygon fill="#C6DFAA" points="10,1 13,1 13,1 "/>
<rect x="32" y="1" fill="#F1F2F2" width="3" height="3"/>
<polygon fill="#F8918E" points="32,1 35,1 35,1 "/>
<polygon fill="#FCF0BE" points="36,1 39,1 39,1 "/>
<polygon fill="#C6DFAA" points="40,1 43,1 43,1 "/>
<rect x="62" y="1" fill="#F1F2F2" width="3" height="3"/>
<rect x="6" y="1" fill="#F1F2F2" width="3" height="3"/>
<rect x="36" y="1" fill="#F1F2F2" width="3" height="3"/>
<rect x="66" y="1" fill="#F1F2F2" width="3" height="3"/>
<rect x="10" y="1" fill="#F1F2F2" width="3" height="3"/>
<rect x="40" y="1" fill="#F1F2F2" width="3" height="3"/>
<rect x="70" y="1" fill="#F1F2F2" width="3" height="3"/>
<polygon fill="#F8918E" points="62,1 65,1 65,1 "/>
<polygon fill="#FCF0BE" points="66,1 69,1 69,1 "/>
<polygon fill="#C6DFAA" points="70,1 73,1 73,1 "/>
<rect x="32" y="9" fill="#F1F2F2" width="3" height="5"/>
<rect x="62" y="19" fill="#F1F2F2" width="3" height="5"/>
</svg>
