<?xml version="1.0" encoding="iso-8859-1"?>
<!-- Generator: Adobe Illustrator 17.1.0, SVG Export Plug-In . SVG Version: 6.00 Build 0)  -->
<!DOCTYPE svg PUBLIC "-//W3C//DTD SVG 1.1//EN" "http://www.w3.org/Graphics/SVG/1.1/DTD/svg11.dtd">
<svg version="1.1" id="Layer_1" xmlns="http://www.w3.org/2000/svg" xmlns:xlink="http://www.w3.org/1999/xlink" x="0px" y="0px"
	 viewBox="0 0 60 60" style="enable-background:new 0 0 60 60;" xml:space="preserve">
<g id="html5">
	<polygon style="fill:#888888;" points="30.0198,14.3466 29.9969,14.3466 13.5,14.3466 13.6578,16.1141 15.277,34.2687 
		29.9969,34.2687 30.0198,34.2687 38.1093,34.2687 37.3447,42.8129 29.9969,44.7961 29.9969,44.7969 29.9909,44.7986 
		22.6537,42.8172 22.1846,37.5632 18.6195,37.5632 15.5714,37.5632 16.4944,47.907 29.9893,51.6534 30.0198,51.645 30.0198,51.644 
		43.5029,47.907 43.6017,46.7942 45.1499,29.45 45.3106,27.681 43.5354,27.681 30.0198,27.681 29.9969,27.681 21.3021,27.681 
		20.6998,20.9348 29.9969,20.9348 30.0198,20.9348 45.889,20.9348 45.9102,20.9348 46.0423,19.454 46.3424,16.1141 46.5,14.3466 	
		"/>
</g>
</svg>
