<?xml version="1.0" encoding="iso-8859-1"?>
<!-- Generator: Adobe Illustrator 17.1.0, SVG Export Plug-In . SVG Version: 6.00 Build 0)  -->
<!DOCTYPE svg PUBLIC "-//W3C//DTD SVG 1.1//EN" "http://www.w3.org/Graphics/SVG/1.1/DTD/svg11.dtd">
<svg version="1.1" id="rendr" xmlns="http://www.w3.org/2000/svg" xmlns:xlink="http://www.w3.org/1999/xlink" x="0px" y="0px"
	 viewBox="0 0 60 60" style="enable-background:new 0 0 60 60;" xml:space="preserve">
<g>
	<path style="fill:#888888;" d="M43.7764,42.0789l-4.6654-9.3308c4.282-0.8947,7.1579-5.5602,7.1579-9.4586
		S44.9267,13.8308,36.6824,13H12.3967l-0.0114,3.9624l5.5715,0.9586v24.4135l-5.5602,0.703L12.3853,47h19.4399v-3.8985
		l-5.688-0.8308l-0.0639-8.7982l4.985-0.0213L38.0245,47H49.72v-4.0902L43.7764,42.0789z M32.9756,28.2744h-6.9023v-9.9699
		c0,0,3.6984,0,7.6053,0c2.9718,0,4.2394,2.599,4.2394,4.6867C37.918,25.8246,36.4054,28.2744,32.9756,28.2744z"/>
</g>
</svg>
