<?xml version="1.0" encoding="utf-8"?>
<!-- Generator: Adobe Illustrator 17.1.0, SVG Export Plug-In . SVG Version: 6.00 Build 0)  -->
<!DOCTYPE svg PUBLIC "-//W3C//DTD SVG 1.1//EN" "http://www.w3.org/Graphics/SVG/1.1/DTD/svg11.dtd">
<svg version="1.1" id="Layer_1" xmlns="http://www.w3.org/2000/svg" xmlns:xlink="http://www.w3.org/1999/xlink" x="0px" y="0px"
	 viewBox="0 0 60 60" enable-background="new 0 0 60 60" xml:space="preserve">
<g>
	<path fill="#888888" d="M24.2,40.4L24,39.9c-1.7,0.5-2.5,1.1-2.4,1.9c0.2,1.4,3.5,2.4,7.5,2.4c2,0,5-0.3,8.1-1.6l0.6-0.3l-0.6-0.2
		c-1.4-0.5-2.4-1.2-2.4-1.2l-0.1-0.1l-0.1,0c-2.4,0.5-4,0.6-5.6,0.6c-1,0-2.1-0.1-3.7-0.2c-1.4-0.2-1.5-0.4-1.5-0.4
		C23.9,40.7,24,40.6,24.2,40.4z"/>
	<path fill="#888888" d="M38.8,37.6L38,37.3c-1.1-0.4-1.7-1.1-1.7-1.1l-0.1-0.1l-0.1,0c-3,0.6-5.3,0.8-7.6,0.8
		c-1.3,0-2.6-0.1-4.3-0.3c-0.9-0.1-1.3-0.3-1.4-0.5c-0.1-0.2,0.3-0.6,0.5-0.7L22.9,35c-1.9,0.6-2.7,1.3-2.6,2.1
		c0.2,1.5,4.3,2.1,7.9,2.1c3.3,0,6.7-0.5,9.8-1.4L38.8,37.6z"/>
	<path fill="#888888" d="M30,21.1c-0.6,1.9,0,3.9,1.8,6c0.6,0.6,0.8,1.3,0.8,2c-0.1,1.3-1.3,2.3-1.3,2.3l0.3,0.5
		c0.1-0.1,3.1-1.6,3.7-4c0.2-1,0-1.9-0.6-2.8l-0.3-0.4c-1-1.3-1.7-2.4-1.5-3.6c0.3-1.6,2.6-3.5,7.3-6.3l-0.2-0.5
		C39.7,14.4,31.5,16.5,30,21.1z"/>
	<path fill="#888888" d="M27.9,48.5c8.8,0,16.5-1.7,17-3.6c0.1-0.4,0-0.9-1-1.3l-0.3,0.5c0,0,0.2,0.2,0.2,0.4c0,0.2-0.2,0.5-1.5,0.9
		c-2.6,0.8-8.4,1.3-14.1,1.3c-5.3,0-9.5-0.5-11.3-1.3c-0.3-0.1-0.3-0.2-0.3-0.2c0-0.3,1.4-0.9,2.6-1.1c0.7-0.1,1.2-0.2,1.4-0.2
		l1.1,0.1l-0.8-0.6c-0.3-0.2-0.7-0.3-1.3-0.3c-2.2,0-6.2,1.4-6.3,2.8c-0.1,1.1,1.9,1.4,2.5,1.5C19.7,48.2,23.8,48.5,27.9,48.5
		C27.9,48.5,27.9,48.5,27.9,48.5z"/>
	<path fill="#888888" d="M26.1,34.4c4.4,0,8.6-0.4,11.6-1.2l0.1,0c0.8-0.6,2-1.1,2-1.1l-0.2-0.5c0,0-3.4,0.6-6.8,0.9
		c-4.1,0.3-8.7,0.4-10.8,0.1c-1.3-0.2-1.5-0.4-1.5-0.4h0c0.1-0.4,2.1-1.1,4.5-1.7l0-0.6c0,0-0.1,0-0.3,0c-1,0-3.7,0.2-6.9,1.7
		c-0.3,0.1-1.1,0.5-1,1.1C17.1,34.3,24.6,34.4,26.1,34.4z"/>
	<path fill="#888888" d="M39.7,31.2l0.8-0.3c0,0,0.3-0.1,0.9-0.2c1.1-0.2,2.6,0.4,2.9,1.8c0.2,0.8,0.1,3.1-4.9,5.7l-0.1,0.1l0,0.1
		c0,0-0.1,0.1-0.1,0.1l0.3,0.5c5.8-1.5,7.6-4.3,7.3-6.3c-0.2-1.8-1.9-3.1-4-3.1c-0.6,0-1.2,0.1-1.8,0.3c-0.6,0.2-0.9,0.6-0.9,0.7
		L39.7,31.2z"/>
	<path fill="#888888" d="M29.9,30.3l0.4-0.3c-0.4-0.9-1-1.7-1.6-2.6c-2-2.9-3.9-5.6,1.5-9.9c3.6-2.9,5.6-5.7,5.7-8.4
		c0.1-2.4-1.2-3.8-1.3-3.9L34,4.5l0.3,1c1.2,4.8-2,7.3-5.3,9.9c-1.6,1.3-3.3,2.6-4.4,4.2C22.3,23,25.8,26.6,29.9,30.3z"/>
	<path fill="#888888" d="M46.3,46c0,0-0.7,1.4-6.5,2.4c-3.3,0.6-7.2,1-11.3,1c-3.4,0-6.6-0.2-9.1-0.6l-1-0.2l0.8,0.7
		c0.1,0.1,1.3,0.9,6.5,1.3c1.5,0.1,3,0.1,4.6,0.1c0,0,0,0,0,0c3.8,0,16.2-0.3,16.5-4.5L46.3,46z"/>
</g>
</svg>
