<?xml version="1.0" encoding="iso-8859-1"?>
<!-- Generator: Adobe Illustrator 17.1.0, SVG Export Plug-In . SVG Version: 6.00 Build 0)  -->
<!DOCTYPE svg PUBLIC "-//W3C//DTD SVG 1.1//EN" "http://www.w3.org/Graphics/SVG/1.1/DTD/svg11.dtd">
<svg version="1.1" id="javascript" xmlns="http://www.w3.org/2000/svg" xmlns:xlink="http://www.w3.org/1999/xlink" x="0px" y="0px"
	 viewBox="0 0 60 60" style="enable-background:new 0 0 60 60;" xml:space="preserve">
<g>
	<g>
		<path style="fill:#888888;" d="M49.7746,34.7285c-0.4672-2.9123-2.3662-5.3573-7.9905-7.6386
			c-1.9536-0.8979-4.1318-1.5411-4.7809-3.0215c-0.2306-0.8615-0.2609-1.3469-0.1153-1.8687
			c0.4186-1.6927,2.439-2.2206,4.0408-1.7352c1.0314,0.3458,2.0082,1.1406,2.5968,2.4087c2.7545-1.7838,2.7484-1.7716,4.6717-2.9972
			c-0.7038-1.0921-1.08-1.5957-1.5411-2.0628c-1.6563-1.8505-3.9133-2.803-7.5233-2.7302
			c-0.6249,0.0789-1.2559,0.1638-1.8808,0.2427c-1.802,0.455-3.519,1.4015-4.5261,2.6696
			c-3.0215,3.428-2.1599,9.4284,1.5168,11.8978c3.6221,2.7181,8.943,3.337,9.6226,5.8791c0.6613,3.1125-2.2873,4.1196-5.2178,3.7617
			c-2.1599-0.449-3.3612-1.5471-4.6596-3.5432c-2.3905,1.3833-2.3905,1.3833-4.8477,2.797
			c0.5825,1.2741,1.1952,1.8505,2.1721,2.9547c4.6232,4.6899,16.1933,4.4594,18.2683-2.6392
			C49.6654,38.8602,50.2236,37.2342,49.7746,34.7285z M25.8699,15.4591h-5.9701c0,5.1571-0.0243,10.2778-0.0243,15.4349
			c0,3.2824,0.1699,6.2917-0.364,7.2139c-0.8737,1.8141-3.1367,1.5896-4.1682,1.2377c-1.0496-0.5157-1.5835-1.2498-2.2024-2.2873
			c-0.1699-0.2973-0.2973-0.5278-0.3398-0.546c-1.6199,0.989-3.2338,1.984-4.8538,2.9729c0.8069,1.6563,1.9961,3.0943,3.519,4.0286
			c2.2752,1.3651,5.3331,1.7838,8.5305,1.0496c2.081-0.6067,3.8769-1.8626,4.8174-3.7738c1.3591-2.5058,1.0678-5.5393,1.0557-8.8945
			C25.9002,26.4225,25.8699,20.9499,25.8699,15.4591z"/>
	</g>
</g>
</svg>
