<?xml version="1.0" encoding="utf-8"?>
<!-- Generator: Adobe Illustrator 17.1.0, SVG Export Plug-In . SVG Version: 6.00 Build 0)  -->
<!DOCTYPE svg PUBLIC "-//W3C//DTD SVG 1.1//EN" "http://www.w3.org/Graphics/SVG/1.1/DTD/svg11.dtd">
<svg version="1.1" id="Layer_1" xmlns="http://www.w3.org/2000/svg" xmlns:xlink="http://www.w3.org/1999/xlink" x="0px" y="0px"
	 viewBox="0 0 60 60" enable-background="new 0 0 60 60" xml:space="preserve">
<path fill="#888888" d="M46,43C46,42.1,46,41.1,46,40.2c0-0.9,0-1.7,0-2.6c0-0.7-0.2-1.3-0.4-1.8l-0.1-0.2c0,0,0,0,0,0
	c0.3-0.5,0.4-1,0.4-1.7c0-0.8,0-1.6,0-2.3c0-1.3-0.1-2.6,0-3.9c0-0.6-0.3-1.1-0.5-1.6l-0.1-0.2c0-0.1-0.1-0.2-0.2-0.3
	c0.4-0.5,0.5-1.1,0.6-1.8c0-1,0-2,0-3c0-1.3,0-2.6,0-3.9c0-1.4-0.7-2.6-2-3.6c-1.2-0.9-2.8-1.5-4.7-2c-1.8-0.4-3.6-0.6-5.5-0.7
	l-1-0.1c-2.1-0.2-7,0.1-8.2,0.2c-2.6,0.3-4.7,0.7-6.8,1.6c-1.2,0.5-2.9,1.5-3.4,3.6l0,0.1c0,0.5,0,1.1,0,1.7c0,0.6,0,1.2,0,1.7
	c0,0.5,0,1,0,1.5c0,0.4,0,0.8,0,1.3l0,0.4c0,0.5,0,1,0.1,1.4c0.1,0.4,0.2,0.7,0.4,1c0.1,0.2,0.2,0.3,0.3,0.6c-0.6,1-0.6,2.3-0.6,3.4
	l0,0.3c0,0.9,0,1.8,0,2.8c0,0.6,0,1.2,0,1.8c0,0.7,0.2,1.3,0.5,1.9c-0.4,0.7-0.4,1.1-0.4,2.3c0,1.2,0,2.4,0.1,3.5
	c0,0.8,0,1.5,0.1,2.3c0,1.2,0.5,2.2,1.5,3.1c1.4,1.3,3.2,1.8,4.7,2.2c2.6,0.7,5.5,1,9.2,1c0.6,0,1.1,0,1.7,0c2.6,0,5.6-0.2,8.6-1
	c1.3-0.4,2.5-0.9,3.6-1.6C45.4,46.1,46.1,44.8,46,43z M25.1,13.5c1.8-0.2,3.9-0.3,5.9-0.1c-0.7,0.2-0.8,0.7-0.8,0.9
	c0,0.1,0,0.1,0,0.2c-0.4,0.1-0.9,0.1-1.3,0.2c-0.5,0.1-1,0.4-1.4,0.7c-0.5,0.4-0.8,1.1-0.8,1.8c0.1,0.7,0.5,1.3,1.1,1.6
	c0.9,0.5,2,0.6,2.3,0.6c1.2,0.1,2.2,0.2,3.2,0.2c2.1,0,3.9-0.2,5.9-0.7c0.4-0.1,1.1-0.3,1.6-0.6c0.4-0.2,1.1-0.5,1.1-1.3
	c0-0.2,0-0.3-0.1-0.4c0.1,0.1,0.2,0.1,0.3,0.2c0.2,0.2,0.4,0.5,0.4,0.9c0,0.7,0,1.5,0,2.2c0,1.3,0,2.5,0,3.8c0,0.4-0.1,0.5-0.3,0.7
	L42,24.5c-0.6,0.3-1.2,0.7-1.8,0.9c-2.2,0.8-4.8,1.2-7.7,1.3c-1.8,0-3.7,0-5.5,0l-0.8,0L26.1,26c-1.7,0.1-3.5-0.1-5-0.4
	c-2.2-0.6-3.4-1.7-3.8-3.4c-0.3-1.5-0.2-3.3,0.2-4.9l0.5-0.1c0.1-0.6,1.6-2.5,3-3.1c1-0.4,2.1-0.7,3.2-0.9l-0.3,0.4L25.1,13.5z
	 M42.4,33.5c0,0.5-0.2,0.8-0.7,1.1c-1.1,0.7-2.4,1-3.4,1.2c-3.8,0.8-7.8,1-12.4,0.6c-2.2-0.2-4.4-0.4-6.6-1.2
	c-0.5-0.2-1-0.5-1.5-0.8c-0.3-0.2-0.4-0.4-0.4-0.7c0-1.3,0-2.5,0-3.7l0-2c0-0.1,0-0.2,0.1-0.3c0.1,0.6,0.4,1.1,1.1,1.3
	c1.2,0.4,2.4,0.7,3.6,0.9c2.2,0.4,4.6,0.6,7.3,0.6c1,0,2.2,0,3.4-0.1c2.5-0.1,5.2-0.3,7.8-1.2l0.1,0c0.1,0,0.2-0.1,0.3-0.1
	c0.9-0.3,1.2-0.6,1.3-1.2c0,0.1,0,0.2,0,0.3l0,0.3C42.4,30.2,42.4,31.8,42.4,33.5z M17.5,37.8c0.1,0.6,0.3,0.9,0.9,1.2l0.6,0.2
	c0.8,0.3,1.7,0.6,2.5,0.7c2.5,0.5,5.2,0.7,8.2,0.7c1,0,2,0,3.2-0.1c2.7-0.1,5.1-0.5,7.5-1.2c0.1,0,0.2,0,0.2-0.1l0.1,0
	c1.1-0.4,1.5-0.6,1.6-1.4c0,0,0,0,0,0c0,1.9,0,3.7,0.1,5.6c0,0.7-0.3,1-0.6,1.1c-0.9,0.4-1.7,0.7-2.5,1c-2.6,0.7-5.2,0.9-7.4,1
	c-0.7,0-1.5,0-2.2,0c-2.9,0-5.5-0.2-7.9-0.7c-0.9-0.2-1.8-0.5-2.7-0.8l-0.5-0.2c-0.3-0.1-0.6-0.3-0.8-0.5c-0.3-0.2-0.4-0.5-0.4-0.7
	c0-1.3,0-2.6,0-3.8L17.5,37.8C17.5,37.7,17.5,37.8,17.5,37.8z"/>
</svg>
