<?xml version="1.0" encoding="iso-8859-1"?>
<!-- Generator: Adobe Illustrator 17.1.0, SVG Export Plug-In . SVG Version: 6.00 Build 0)  -->
<!DOCTYPE svg PUBLIC "-//W3C//DTD SVG 1.1//EN" "http://www.w3.org/Graphics/SVG/1.1/DTD/svg11.dtd">
<svg version="1.1" id="mongodb" xmlns="http://www.w3.org/2000/svg" xmlns:xlink="http://www.w3.org/1999/xlink" x="0px" y="0px"
	 viewBox="0 0 60 60" style="enable-background:new 0 0 60 60;" xml:space="preserve">
<g id="Image_xA0_16">
	<g>
		<path style="fill-rule:evenodd;clip-rule:evenodd;fill:#888888;" d="M29.0531,39.9022
			c-0.2291-12.8507,0.0511-26.4131,0.1816-31.638c-0.198,0.3223-0.4546,0.6515-0.7953,0.9542
			c-1.3054,1.1597-8.4056,8.4095-8.8026,19.4176c-0.3113,8.6335,4.0817,14.0866,6.7112,16.6208
			c0.438-0.3417,2.0666-1.7581,2.8298-4.0757C29.1053,40.7879,29.0531,40.3719,29.0531,39.9022z M40.3488,28.5066
			c-0.3687-7.6854-3.6236-13.3568-8.5438-18.6409C30.0433,7.9735,29.8633,6.5,29.8633,6.5s-0.0449,0.4861-0.301,1.1123
			c0.7103,4.5152,2.5507,17.9305,1.9189,32.288c-0.0081,4.3768,2.5253,5.441,2.5253,5.441s0.0234,0.0077,0.0576,0.02
			C36.5421,42.8439,40.7772,37.4366,40.3488,28.5066z M30.0898,43.3811c-0.6754,1.227-1.6959,1.7799-2.7787,2.7565
			c0.2788,0.2391,0.5173,0.434,0.6779,0.5635C28.7373,48.8259,28.956,53.5,28.956,53.5l1.9425-0.3885
			c0,0,0.5531-5.1982,1.5541-6.2161c0.1562-0.1589,0.4821-0.4455,0.898-0.8364C32.6534,45.4316,31.1234,44.8112,30.0898,43.3811z"/>
	</g>
</g>
</svg>
