<?xml version="1.0" encoding="iso-8859-1"?>
<!-- Generator: Adobe Illustrator 17.1.0, SVG Export Plug-In . SVG Version: 6.00 Build 0)  -->
<!DOCTYPE svg PUBLIC "-//W3C//DTD SVG 1.1//EN" "http://www.w3.org/Graphics/SVG/1.1/DTD/svg11.dtd">
<svg version="1.1" id="sqlite" xmlns="http://www.w3.org/2000/svg" xmlns:xlink="http://www.w3.org/1999/xlink" x="0px" y="0px"
	 viewBox="0 0 60 60" style="enable-background:new 0 0 60 60;" xml:space="preserve">
<g id="Image_xA0_20">
	<g>
		<path style="fill-rule:evenodd;clip-rule:evenodd;fill:#888888;" d="M41.878,11.6912L41.878,11.6912
			c-1.4122-2.1519-3.8368-2.0892-6.5813-0.7155c-0.4075,0.2042-0.8228,0.4405-1.2424,0.6994
			c-4.8712,3.0074-10.389,9.5174-13.0081,14.9164c0.1946,0.9783,0.2319,2.1701,0.2254,3.0712
			c-0.0018,0.2311-0.0054,0.4476-0.0111,0.631c-0.0131,0.4341-0.0323,0.7128-0.0323,0.7128s0.0005-0.1378-0.0307-0.5798
			c-0.0057-0.0847-0.0126-0.1774-0.021-0.2865c-0.0039-0.0452-0.0112-0.1008-0.0197-0.1603
			c-0.0933-0.6415-0.4525-2.0389-0.6121-2.6481c-0.4612,0.6909-0.8795,1.3409-1.2424,1.933
			c0.4432,1.824,0.2426,4.6925,0.2426,4.6925s0.0014-0.189-0.0518-0.8643c-0.0479-0.5975-0.5604-2.5493-0.6833-3.0063
			c-0.6829,0.9568-1.5794,1.795-1.5028,2.0703c0.149,0.5333,0.3874,1.7808,0.3798,3.008c-0.0157,2.1169-0.4953,3.3752-0.4953,3.3752
			s-0.4148,1.3136-0.4612,1.5645c-0.5168,1.6428-0.9356,3.1855-1.2242,4.7775c-0.382,2.1074-0.3438,4.0603-0.1887,5.1178
			l0.8937-0.077c-0.1003-2.0284,0.3115-4.5411,1.1746-7.3349c1.3176-4.2708,3.7044-9.2074,6.9918-14.1384
			c5.2924-7.3553,11.3521-12.771,16.1277-14.853c-4.4548,2.2782-12.1188,11.4628-14.6125,14.9563
			c-2.7922,3.9121-5.0385,7.6835-6.781,11.4066c2.7564-3.8232,8.2061-3.6885,8.2061-3.6885s0.8035-2.0273,3.9233-4.7822
			c-1.4124-0.053-3.7372-0.119-4.5518-0.0075c-1.2012,0.1636-1.5336,0.2402-1.5336,0.2402s4.0687-1.1929,7.3282-1.3532
			C38.3528,24.9738,45.3237,16.944,41.878,11.6912z"/>
	</g>
</g>
</svg>
