<?xml version="1.0" encoding="iso-8859-1"?>
<!-- Generator: Adobe Illustrator 17.1.0, SVG Export Plug-In . SVG Version: 6.00 Build 0)  -->
<!DOCTYPE svg PUBLIC "-//W3C//DTD SVG 1.1//EN" "http://www.w3.org/Graphics/SVG/1.1/DTD/svg11.dtd">
<svg version="1.1" id="php" xmlns="http://www.w3.org/2000/svg" xmlns:xlink="http://www.w3.org/1999/xlink" x="0px" y="0px"
	 viewBox="0 0 60 60" style="enable-background:new 0 0 60 60;" xml:space="preserve">
<g>
	<path style="fill:#888888;" d="M19.0521,23.7441h-7.7156L8,40.6351h3.9621l0.8341-4.3791h3.7536
		c3.545,0.2085,7.5071-2.7109,7.5071-7.7156C24.0569,25.6209,22.3886,23.9526,19.0521,23.7441z M16.1327,33.128h-2.5024
		l1.0427-6.2559h2.7109c1.4597,0,2.5024,0.6256,2.5024,1.8768C19.6777,32.2938,18.0095,32.9194,16.1327,33.128z"/>
	<path id="h" style="fill:#888888;" d="M22.8057,36.2559l3.3365-16.891h3.9621l-0.8341,4.3791h3.7536
		c3.3365,0.2085,4.5877,1.8768,4.1706,3.9621l-1.4597,8.5498H31.564l1.4597-7.7156c0.2085-1.0427,0.2085-1.6682-1.2512-1.6682
		h-3.128l-1.8768,9.3839H22.8057z"/>
	<path style="fill:#888888;" d="M46.9953,23.7441h-7.7156l-3.3365,16.891h3.9621l0.8341-4.3791h3.7536
		C48.0379,36.4645,52,33.545,52,28.5403C52,25.6209,50.3317,23.9526,46.9953,23.7441z M44.0758,33.128h-2.5024l1.0427-6.2559h2.7109
		c1.4597,0,2.5024,0.6256,2.5024,1.8768C47.6208,32.2938,45.9526,32.9194,44.0758,33.128z"/>
</g>
</svg>
