<?xml version="1.0" encoding="iso-8859-1"?>
<!-- Generator: Adobe Illustrator 17.1.0, SVG Export Plug-In . SVG Version: 6.00 Build 0)  -->
<!DOCTYPE svg PUBLIC "-//W3C//DTD SVG 1.1//EN" "http://www.w3.org/Graphics/SVG/1.1/DTD/svg11.dtd">
<svg version="1.1" id="Layer_1" xmlns="http://www.w3.org/2000/svg" xmlns:xlink="http://www.w3.org/1999/xlink" x="0px" y="0px"
	 viewBox="0 0 60 60" style="enable-background:new 0 0 60 60;" xml:space="preserve">
<g id="nodejs">
	<g>
		<path style="fill:#888888;" d="M29.9949,51.9882c-0.5891,0-1.1745-0.1539-1.6905-0.4523l-5.3806-3.1836
			c-0.8024-0.4485-0.4106-0.6081-0.1457-0.6995c1.0723-0.3728,1.2887-0.4586,2.4329-1.107c0.1186-0.0681,0.2763-0.041,0.4006,0.0296
			l4.1329,2.4544c0.1501,0.0839,0.3614,0.0839,0.4996,0l16.1152-9.3015c0.1495-0.0858,0.2466-0.2567,0.2466-0.4346V20.6945
			c0-0.1823-0.0965-0.352-0.2498-0.4441l-16.1083-9.2933c-0.1489-0.087-0.3476-0.087-0.4964,0l-16.1051,9.2958
			c-0.1564,0.0896-0.2548,0.2649-0.2548,0.4415v18.598c0,0.1779,0.0984,0.3457,0.2536,0.4302l4.4142,2.5515
			c2.3957,1.196,3.8623-0.2145,3.8623-1.6312V22.2815c0-0.2593,0.2088-0.4643,0.468-0.4643h2.0431
			c0.2555,0,0.4674,0.205,0.4674,0.4643V40.643c0,3.1962-1.7416,5.0299-4.7719,5.0299c-0.931,0-1.6653,0-3.7122-1.0074
			l-4.2256-2.4342C11.1472,41.6295,10.5,40.5004,10.5,39.2931V20.6945c0-1.2086,0.6465-2.3364,1.6905-2.9376l16.1152-9.3122
			c1.0193-0.5772,2.3755-0.5772,3.3873,0l16.1133,9.3122c1.0439,0.6037,1.6936,1.729,1.6936,2.9376v18.598
			c0,1.2073-0.6491,2.3314-1.6936,2.9382L31.693,51.5353C31.1764,51.8343,30.5917,51.9882,29.9949,51.9882z"/>
		<path style="fill:#888888;" d="M34.9724,39.1751c-7.0521,0-8.5294-3.2372-8.5294-5.9508c0-0.2593,0.2075-0.4655,0.4662-0.4655
			h2.0835c0.2327,0,0.4264,0.169,0.463,0.3942c0.3141,2.1213,1.2521,3.193,5.5168,3.193c3.3949,0,4.84-0.7683,4.84-2.5692
			c0-1.0383-0.4094-1.8091-5.6859-2.327c-4.4092-0.4346-7.136-1.4104-7.136-4.9378c0-3.2504,2.7407-5.1901,7.336-5.1901
			c5.1623,0,7.7164,1.7914,8.0406,5.636c0.012,0.1337-0.0347,0.2611-0.1224,0.3583c-0.0889,0.0927-0.2119,0.1489-0.3412,0.1489
			h-2.0917c-0.2164,0-0.4081-0.1539-0.4523-0.364c-0.5021-2.2311-1.722-2.9439-5.033-2.9439c-3.7071,0-4.1379,1.2918-4.1379,2.2576
			c0,1.172,0.5084,1.5132,5.513,2.1756c4.9529,0.656,7.3044,1.582,7.3044,5.0639C43.0061,37.1654,40.0793,39.1751,34.9724,39.1751z"
			/>
	</g>
</g>
</svg>
