<?xml version="1.0" encoding="iso-8859-1"?>
<!-- Generator: Adobe Illustrator 17.1.0, SVG Export Plug-In . SVG Version: 6.00 Build 0)  -->
<!DOCTYPE svg PUBLIC "-//W3C//DTD SVG 1.1//EN" "http://www.w3.org/Graphics/SVG/1.1/DTD/svg11.dtd">
<svg version="1.1" id="Layer_1" xmlns="http://www.w3.org/2000/svg" xmlns:xlink="http://www.w3.org/1999/xlink" x="0px" y="0px"
	 viewBox="0 0 60 60" style="enable-background:new 0 0 60 60;" xml:space="preserve">
<g id="mongoose">
	<g id="Image_xA0_19">
		<g>
			<path style="fill:#888888;" d="M48.1022,19.1628c-0.7631-0.7329-2.1016-2.2988-3.234-3.3478
				c0.0903-0.6602,0.2392-1.8419,0.181-2.0748c-0.0815-0.326,0-0.8948-0.489-0.4874c-0.3012,0.251-0.6633,1.0573-0.8977,1.6405
				c-0.0849-0.0423-0.1655-0.0757-0.2391-0.095c-1.5483-0.4075-0.9329-0.0927-2.4413,0.2844
				c-0.4132-0.4875-0.8998-1.6697-0.8998-1.6697s-0.6182-0.795-1.1085-0.1789c-0.7762,0.9753-1.5189,3.3201-1.8611,4.2963
				c-2.6961,7.6874-3.8753,0.3077-13.1658,6.6396c-4.5782,3.1203-5.2155,7.8233-5.2155,7.8233s-1.6899-1.1662-3.9931-0.8964
				c-3.3622,0.3937-5.2155,4.1621-5.134,7.4158c0.5704,8.9861,13.0024,8.4752,14.4241,8.4752
				c7.0588,0.1633,12.2124-1.345,14.8576-2.3652c1.0693-0.6779,0.2296-0.9111-0.519-0.9111
				c-2.317,0.0027-5.8812,0.0167-9.2045,0.0167c-1.6052,0-5.7267,0.0391-7.7483-0.129c-2.6892-0.2236-2.9607-2.1353-2.2753-3.2122
				l0.8964-0.5704c0,0,0.899,0.084,1.5889,0.774c0.3901,0.3901,0.3537,0.7886,0.4529,1.2003
				c0.1249,0.5187,1.25,0.6335,1.5435,0.6335h3.3393c1.2383,0-0.0597-1.1409,0.326-1.1409c1.2989,0,2.121,1.1409,3.1804,1.1409
				h3.5856c0.2568,0-1.1405-1.4081-1.1075-1.8762c0.0435-0.6165,2.1641,0.2714,1.0367-0.8866
				c-0.5672-0.5826-1.0231-0.9822-1.2681-1.7352c-0.5096-1.5668,0.9872-2.3989,1.3947-2.3989c0.4074,0,1.2484,1.4945,2.1322,3.6121
				c0.2512,0.602,0.5059,1.5012,0.7457,1.9808c0.3958,0.7915,1.3039,1.3039,1.3039,1.3039s1.5205,0,2.6077,0
				c2.1414,0,1.644-1.072,0.5486-1.6321c-0.3218-0.183-0.6317-0.4361-0.665-0.7422c-0.2811-2.5847-1.0552-8.7914-1.0552-8.7914
				s1.8236-1.2211,2.9645-2.7694s2.1203-5.6476,2.1203-5.6476s2.6519,0.499,2.7257-0.2518
				C48.3405,20.4528,48.6962,19.7333,48.1022,19.1628z M41.5467,17.8969c0,0,1.8718-0.2366,2.8503,1.252
				C42.6,20.8668,41.4428,17.9757,41.5467,17.8969z"/>
		</g>
	</g>
</g>
</svg>
