<?xml version="1.0" encoding="utf-8"?>
<!-- Generator: Adobe Illustrator 17.1.0, SVG Export Plug-In . SVG Version: 6.00 Build 0)  -->
<!DOCTYPE svg PUBLIC "-//W3C//DTD SVG 1.1//EN" "http://www.w3.org/Graphics/SVG/1.1/DTD/svg11.dtd">
<svg version="1.1" id="_x2E_net" xmlns="http://www.w3.org/2000/svg" xmlns:xlink="http://www.w3.org/1999/xlink" x="0px" y="0px"
	 viewBox="0 0 60 60" enable-background="new 0 0 60 60" xml:space="preserve">
<g>
	<path fill="#888888" d="M9.2499,38.1994c-0.346,0-0.64-0.124-0.8847-0.372C8.1215,37.5795,8,37.2829,8,36.9378
		s0.1215-0.6434,0.3653-0.8955c0.2446-0.2513,0.5387-0.377,0.8847-0.377c0.3527,0,0.6534,0.1257,0.9006,0.377
		c0.248,0.2522,0.372,0.5504,0.372,0.8955s-0.124,0.6417-0.372,0.8897C9.9034,38.0754,9.6026,38.1994,9.2499,38.1994z"/>
	<path fill="#888888" d="M26.8576,37.9515h-2.3206L16.225,25.0778c-0.2103-0.3225-0.3828-0.6601-0.5177-1.0137h-0.0679
		c0.0603,0.346,0.0905,1.0857,0.0905,2.2192v11.6681h-1.8925V21.8006h2.4554l8.0867,12.6709
		c0.3376,0.5253,0.5554,0.8855,0.6534,1.0807h0.0452c-0.0754-0.465-0.1131-1.2575-0.1131-2.3758V21.8006h1.8925V37.9515z"/>
	<path fill="#888888" d="M39.3132,37.9515h-8.5601V21.8006h8.1998v1.7123h-6.3074v5.3716h5.834v1.7006h-5.834v5.6539h6.6676V37.9515
		z"/>
	<path fill="#888888" d="M52,23.5129h-4.6629v14.4385h-1.8916V23.5129h-4.652v-1.7123H52V23.5129z"/>
</g>
</svg>
