<?xml version="1.0" encoding="iso-8859-1"?>
<!-- Generator: Adobe Illustrator 17.1.0, SVG Export Plug-In . SVG Version: 6.00 Build 0)  -->
<!DOCTYPE svg PUBLIC "-//W3C//DTD SVG 1.1//EN" "http://www.w3.org/Graphics/SVG/1.1/DTD/svg11.dtd">
<svg version="1.1" xmlns="http://www.w3.org/2000/svg" xmlns:xlink="http://www.w3.org/1999/xlink" x="0px" y="0px"
	 viewBox="0 0 60 60" style="enable-background:new 0 0 60 60;" xml:space="preserve">
<g id="twitter" style="display:none;">
	<circle style="display:inline;fill:#00B0ED;" cx="30" cy="30" r="30"/>
	<path style="display:inline;fill:#FFFFFF;" d="M52,18.5945c-1.4717,0.6527-3.0532,1.0939-4.7134,1.2922
		c1.6944-1.0156,2.9957-2.6239,3.6083-4.5402c-1.5856,0.9404-3.3419,1.6234-5.2112,1.9915c-1.497-1.595-3.6298-2.5916-5.99-2.5916
		c-4.5324,0-8.2067,3.6744-8.2067,8.2063c0,0.6433,0.0726,1.2695,0.2125,1.8702c-6.8203-0.3422-12.8672-3.6093-16.9148-8.5744
		c-0.7064,1.2121-1.111,2.6218-1.111,4.1257c0,2.8471,1.4488,5.3589,3.6508,6.8306c-1.3452-0.0426-2.6106-0.4118-3.7171-1.0265
		c-0.0006,0.0343-0.0007,0.0686-0.0007,0.1032c0,3.9762,2.8288,7.2931,6.583,8.0469c-0.6887,0.1875-1.4137,0.2878-2.1621,0.2878
		c-0.5288,0-1.0429-0.0514-1.544-0.1472c1.0443,3.2603,4.075,5.633,7.6661,5.6993c-2.8086,2.2009-6.3471,3.5129-10.1919,3.5129
		c-0.6624,0-1.3157-0.0389-1.9576-0.1146c3.6318,2.3284,7.9454,3.6869,12.5798,3.6869c15.0948,0,23.3491-12.5048,23.3491-23.3493
		c0-0.3558-0.008-0.7097-0.0237-1.0616C49.5084,21.6856,50.8998,20.2402,52,18.5945z"/>
</g>
<g id="twilio" style="display:none;">
	<g style="display:inline;">
		<g>
			<g>
				<path style="fill:#ED1C24;" d="M51.2092,51.2095C57.0358,45.3322,60,38.2794,60,30s-2.9642-15.3322-8.7908-21.2097
					C45.3322,2.9642,38.2794,0,30,0S14.6678,2.9642,8.7905,8.7903C2.9642,14.6678,0,21.7206,0,30s2.9642,15.3322,8.7905,21.2095
					C14.6678,57.0869,21.7206,60,30,60S45.3322,57.0869,51.2092,51.2095z"/>
			</g>
		</g>
	</g>
	<g style="display:inline;">
		<g>
			<g>
				<path style="fill:#FFFFFF;" d="M21.2495,14.2938c3.424,0,6.2097,2.7857,6.2097,6.2097s-2.7857,6.2097-6.2097,6.2097
					s-6.2097-2.7857-6.2097-6.2097S17.8254,14.2938,21.2495,14.2938 M21.2495,13.0001c-4.144,0-7.5034,3.3594-7.5034,7.5034
					s3.3594,7.5034,7.5034,7.5034s7.5034-3.3594,7.5034-7.5034S25.3935,13.0001,21.2495,13.0001L21.2495,13.0001z"/>
			</g>
			<g>
				<path style="fill:#FFFFFF;" d="M46.292,20.5034c0-2.0634-0.7501-3.8455-2.204-5.2993C42.5871,13.7503,40.8523,13,38.7887,13
					c-2.0636,0-3.8455,0.7503-5.2996,2.2041c-1.5004,1.4538-2.2037,3.2359-2.2037,5.2993s0.7033,3.8455,2.2037,5.2993
					c1.4541,1.4538,3.236,2.2042,5.2996,2.2042c2.0636,0,3.7984-0.7503,5.2993-2.2042C45.5419,24.349,46.292,22.5669,46.292,20.5034
					z"/>
			</g>
			<g>
				<path style="fill:#FFFFFF;" d="M28.7529,39.4966c0-2.0163-0.7034-3.7986-2.2038-5.2996
					c-1.5013-1.5004-3.2362-2.2038-5.3465-2.2038c-2.0168,0-3.7983,0.7034-5.2524,2.2038c-1.4541,1.501-2.2041,3.2834-2.2041,5.2996
					c0,2.11,0.7501,3.8455,2.2041,5.2993C17.4043,46.2962,19.1858,47,21.2026,47c2.1103,0,3.8452-0.7038,5.3465-2.2042
					C28.0494,43.3421,28.7529,41.6066,28.7529,39.4966z"/>
			</g>
		</g>
		<g>
			<path style="fill:#FFFFFF;" d="M38.7887,33.2868c3.424,0,6.2097,2.7857,6.2097,6.2097s-2.7857,6.2097-6.2097,6.2097
				s-6.2097-2.7857-6.2097-6.2097S35.3646,33.2868,38.7887,33.2868 M38.7887,31.9931c-4.144,0-7.5034,3.3594-7.5034,7.5034
				s3.3594,7.5034,7.5034,7.5034c4.144,0,7.5034-3.3594,7.5034-7.5034S42.9327,31.9931,38.7887,31.9931L38.7887,31.9931z"/>
		</g>
	</g>
</g>
<g id="tooltip" style="display:none;">
	<circle style="display:inline;fill:#5A3776;" cx="30" cy="30" r="30"/>
	<g id="comments" style="display:inline;">
		<path style="fill:#FFFFFF;" d="M42.75,17.3611h-25.5c-2.4084,0-4.25,1.8417-4.25,4.25v15.5833c0,2.4083,1.8416,4.25,4.25,4.25h8.5
			L30,46.6389l4.25-5.1944h8.5c2.4084,0,4.25-1.8417,4.25-4.25V21.6111C47,19.2028,45.1584,17.3611,42.75,17.3611z"/>
	</g>
</g>
<g id="sqlite" style="display:none;">
	<circle style="display:inline;fill-rule:evenodd;clip-rule:evenodd;fill:#0482C4;" cx="30" cy="30" r="30"/>
	<g id="Image_xA0_20" style="display:inline;">
		<g>
			<path style="fill-rule:evenodd;clip-rule:evenodd;fill:#FFFFFF;" d="M41.878,11.6912L41.878,11.6912
				c-1.4122-2.1519-3.8368-2.0892-6.5813-0.7155c-0.4075,0.2042-0.8228,0.4405-1.2424,0.6994
				c-4.8712,3.0074-10.389,9.5174-13.0081,14.9164c0.1946,0.9783,0.2319,2.1701,0.2254,3.0712
				c-0.0018,0.2311-0.0054,0.4476-0.0111,0.631c-0.0131,0.4341-0.0323,0.7128-0.0323,0.7128s0.0005-0.1378-0.0307-0.5798
				c-0.0057-0.0847-0.0126-0.1774-0.021-0.2865c-0.0039-0.0452-0.0112-0.1008-0.0197-0.1603
				c-0.0933-0.6415-0.4525-2.0389-0.6121-2.6481c-0.4612,0.6909-0.8795,1.3409-1.2424,1.933
				c0.4432,1.824,0.2426,4.6925,0.2426,4.6925s0.0014-0.189-0.0518-0.8643c-0.0479-0.5975-0.5604-2.5493-0.6833-3.0063
				c-0.6829,0.9568-1.5794,1.795-1.5028,2.0703c0.149,0.5333,0.3874,1.7808,0.3798,3.008
				c-0.0157,2.1169-0.4953,3.3752-0.4953,3.3752s-0.4148,1.3136-0.4612,1.5645c-0.5168,1.6428-0.9356,3.1855-1.2242,4.7775
				c-0.382,2.1074-0.3438,4.0603-0.1887,5.1178l0.8937-0.077c-0.1003-2.0284,0.3115-4.5411,1.1746-7.3349
				c1.3176-4.2708,3.7044-9.2074,6.9918-14.1384c5.2924-7.3553,11.3521-12.771,16.1277-14.853
				c-4.4548,2.2782-12.1188,11.4628-14.6125,14.9563c-2.7922,3.9121-5.0385,7.6835-6.781,11.4066
				c2.7564-3.8232,8.2061-3.6885,8.2061-3.6885s0.8035-2.0273,3.9233-4.7822c-1.4124-0.053-3.7372-0.119-4.5518-0.0075
				c-1.2012,0.1636-1.5336,0.2402-1.5336,0.2402s4.0687-1.1929,7.3282-1.3532C38.3528,24.9738,45.3237,16.944,41.878,11.6912z"/>
		</g>
	</g>
</g>
<g id="socketio" style="display:none;">
	<g style="display:inline;">
		<g>
			<g>
				<g>
					<g>
						<g>
							<path style="fill:#165B78;" d="M51.2092,51.2095C57.0358,45.3322,60,38.2794,60,30s-2.9642-15.3322-8.7908-21.2097
								C45.3322,2.9642,38.2794,0,30,0S14.6678,2.9642,8.7905,8.7903C2.9642,14.6678,0,21.7206,0,30s2.9642,15.3322,8.7905,21.2095
								C14.6678,57.0869,21.7206,60,30,60S45.3322,57.0869,51.2092,51.2095z"/>
						</g>
					</g>
				</g>
			</g>
		</g>
		<path style="fill:none;stroke:#64FFFF;stroke-width:1.0526;stroke-miterlimit:10;" d="M14.3202,14.8904"/>
		<path style="fill:none;stroke:#64FFFF;stroke-width:1.0526;stroke-miterlimit:10;" d="M42.2368,42.807"/>
		<g>
			<path style="fill:#FFFFFF;" d="M22.0916,17.3214c1.0939,0,1.4165,0,1.5009,0v-2.1429h-5.2894h-5.4249v2.1429
				c0.0413,0,0.3031,0,1.6363,0c1.8943,0,1.578,0.1785,1.578,3.2304v17.8181c0,3.0518,0.3163,3.5944-1.578,3.5944
				c-1.3332,0-1.595,0-1.6363,0v2.1429h5.4249h5.2894v-2.1429c-0.0844,0-0.407,0-1.5009,0c-1.8943,0-1.7134-0.5426-1.7134-3.5944
				V20.5518C20.3782,17.4999,20.1973,17.3214,22.0916,17.3214z"/>
			<g id="Image_xA0_27">
				<g>
					<path style="fill-rule:evenodd;clip-rule:evenodd;fill:#FFFFFF;" d="M37.5298,15c-7.3096,0-13.2353,6.7157-13.2353,15
						c0,8.2842,5.9257,15,13.2353,15s13.2352-6.7158,13.2352-15C50.7651,21.7157,44.8395,15,37.5298,15z M37.5298,43.2353
						c-4.3858,0-7.9412-5.9257-7.9412-13.2353c0-7.3097,3.5554-13.2353,7.9412-13.2353c4.3857,0,7.9411,5.9256,7.9411,13.2353
						C45.4709,37.3096,41.9156,43.2353,37.5298,43.2353z"/>
				</g>
			</g>
		</g>
	</g>
</g>
<g id="ruby" style="display:none;">
	<g style="display:inline;">
		<g>
			<g>
				<g>
					<g>
						<g>
							<path style="fill:#D41F06;" d="M51.2092,51.2095C57.0358,45.3322,60,38.2794,60,30s-2.9642-15.3322-8.7908-21.2097
								C45.3322,2.9642,38.2794,0,30,0S14.6678,2.9642,8.7905,8.7903C2.9642,14.6678,0,21.7206,0,30s2.9642,15.3322,8.7905,21.2095
								C14.6678,57.0869,21.7206,60,30,60S45.3322,57.0869,51.2092,51.2095z"/>
						</g>
					</g>
				</g>
			</g>
		</g>
		<g>
			<g id="Image_xA0_24">
				<g>
					<path style="fill-rule:evenodd;clip-rule:evenodd;fill:#FFFFFF;" d="M45.0845,45.0829l0.0396,0.0352l-0.0277-0.1912
						l2.0394-26.7004l-0.024,0.0439c0.083-2.9024-0.9347-5.6858-4.3694-6.8216c1.8182,0.712,2.1025,2.1154,2.5895,4.1793
						l-9.4587-1.4603l9.317,7.6195l-0.5085,0.9307l-11.6795,0.7816l3.5511,14.0662c0.0128-0.0134,0.025-0.0273,0.0378-0.0408
						l-0.0089,0.0117l0.3572,0.3171l6.2905,6.5239H27.2029c0.3445-0.1732,0.6818-0.3584,1.0182-0.5451l0.0128,0.0248
						c3.0223-1.6391,5.44-3.6085,7.6433-5.7228c0.2093-0.1917,0.4197-0.3817,0.627-0.576l-13.8329-4.444l-0.0005,0.0016
						l-0.0038-0.0012l10.317-9.5882l2.9335-9.3178l-0.062-0.0438l-0.0582-0.009l5.5682-3.0684
						c0.0019,0.0003,0.0035,0.0007,0.0054,0.001l0.0019-0.001l-9.9395-0.0452l-0.1348-0.0952l-7.853,2.939
						c-2.4741,2.3013-7.2753,6.8546-7.4484,6.9402c-0.1561,0.0797-2.6575,4.7883-4.1885,7.6703
						c-0.0427,0.0695-0.0884,0.1567-0.1354,0.2549c-0.0999,0.188-0.195,0.3671-0.284,0.5345l0.0375,0.1063
						c-0.3363,1.0663-0.6677,3.0258-0.6677,6.627c0,1.6304,0.152,3.1575,0.3298,4.3937c0.0606,0.7368,0.1765,1.3917,0.3419,1.9697
						c0.1239,0.6004,0.2155,0.9498,0.2155,0.9498l0.0995-0.0547c1.4817,3.4512,4.9112,3.6048,6.6637,3.6552l-0.0163,0.0141
						l26.6874-1.8109l0.001-0.0134l0.0737-0.0049l-0.0734,0.0011L45.0845,45.0829z M13.4778,35.2228
						c-0.0023,0.0002-0.0079-0.0089-0.0098-0.0076l-0.0025,0.0301l-1.2988,2.3757c-0.3502-2.14-0.5942-4.726-0.3846-7.2199
						l1.6982,4.817L13.4778,35.2228z M18.5309,46.8283l-0.0454,0.0392l-0.6329-1.4782c-1.5755-3.916-3.9709-9.8188-4.3422-10.1409
						l-0.0095-0.0222l9.0883-2.0391l0.0771-0.0717l0.0029,0.0057L18.5309,46.8283z M44.6364,41.8058l-1.6475-12.296l2.8128-5.7059
						L44.6364,41.8058z"/>
				</g>
			</g>
		</g>
	</g>
</g>
<g id="rendr" style="display:none;">
	<g style="display:inline;">
		<g>
			<g>
				<g>
					<g>
						<g>
							<path style="fill:#1CABE2;" d="M51.2092,51.2095C57.0358,45.3322,60,38.2794,60,30s-2.9642-15.3322-8.7908-21.2097
								C45.3322,2.9642,38.2794,0,30,0S14.6678,2.9642,8.7905,8.7903C2.9642,14.6678,0,21.7206,0,30s2.9642,15.3322,8.7905,21.2095
								C14.6678,57.0869,21.7206,60,30,60S45.3322,57.0869,51.2092,51.2095z"/>
						</g>
					</g>
				</g>
			</g>
		</g>
		<path style="fill:#FFFFFF;" d="M43.7764,42.0789l-4.6654-9.3308c4.282-0.8947,7.1579-5.5602,7.1579-9.4586
			S44.9267,13.8308,36.6824,13H12.3967l-0.0114,3.9624l5.5715,0.9586v24.4135l-5.5602,0.703L12.3853,47h19.4399v-3.8985
			l-5.688-0.8308l-0.0639-8.7982l4.985-0.0213L38.0245,47H49.72v-4.0902L43.7764,42.0789z M32.9756,28.2744h-6.9023v-9.9699
			c0,0,3.6984,0,7.6053,0c2.9718,0,4.2394,2.599,4.2394,4.6867C37.918,25.8246,36.4054,28.2744,32.9756,28.2744z"/>
	</g>
</g>
<g id="redis" style="display:none;">
	<circle style="display:inline;fill:#D82A20;" cx="30" cy="30" r="30"/>
	<g id="Image_xA0_21" style="display:inline;">
		<g>
			<path style="fill-rule:evenodd;clip-rule:evenodd;fill:#FFFFFF;" d="M11.7685,26.4504
				c2.1023,1.0046,13.7728,5.7195,15.6174,6.6007c1.8444,0.8818,3.1414,0.8936,5.4763-0.3234
				c2.3348-1.2175,13.3016-5.7269,15.4186-6.8304c1.0776-0.5616,1.5536-0.9965,1.5533-1.3925c0-0.3719,0.0009-3.9532,0.0009-3.9532
				c-0.0024-0.0009-0.0069-0.0021-0.0093-0.0029c0.0165-0.4016-0.5101-0.7559-1.5706-1.1442
				c-2.0629-0.7558-12.9642-5.0947-15.0519-5.8594c-2.0873-0.7649-2.9383-0.7332-5.3911,0.1469
				c-2.4533,0.8801-14.0599,5.4335-16.1248,6.2422c-1.0331,0.4046-1.5382,0.7799-1.522,1.1797l-0.0001,0.0001c0,0,0,3.6106,0,4.0103
				C10.1653,25.5247,10.7177,25.9482,11.7685,26.4504z M30.7859,27.0078l-6.417-2.6608l9.1927-1.4111L30.7859,27.0078z
				 M44.7004,20.6816l-5.4368,2.1464l-0.5889,0.2323l-5.4338-2.1494l6.0196-2.381L44.7004,20.6816z M28.7396,16.7415l-0.8885-1.6392
				l2.772,1.0848l2.6158-0.8556l-0.708,1.6949l2.6657,0.9976l-3.436,0.3566l-0.77,1.8525l-1.2441-2.0664l-3.9689-0.3566
				L28.7396,16.7415z M21.8915,19.0541c2.7135,0,4.9133,0.8527,4.9133,1.9045c0,1.0519-2.1998,1.9045-4.9133,1.9045
				c-2.7136,0-4.9133-0.8527-4.9133-1.9045C16.9782,19.9068,19.1779,19.0541,21.8915,19.0541z M48.2808,35.2059
				c-2.117,1.103-13.0839,5.6127-15.4186,6.8297c-2.3348,1.2175-3.6319,1.2056-5.4763,0.3239
				c-1.8446-0.8813-13.5151-5.5963-15.6174-6.6007c-1.0506-0.5022-1.587-0.9261-1.6031-1.3255h-0.0001c0,0,0,3.6104,0,4.0099
				c0,0.4004,0.5524,0.8241,1.6032,1.3264c2.1023,1.0048,13.773,5.719,15.6174,6.6007s3.1414,0.8936,5.4763-0.3239
				c2.3348-1.2171,13.3016-5.7262,15.4186-6.8297c1.0776-0.5615,1.5536-0.9965,1.5533-1.3929c0-0.3718,0.0009-3.953,0.0009-3.953
				c-0.0024-0.0009-0.0069-0.002-0.0093-0.0029C49.8102,34.2477,49.3098,34.6696,48.2808,35.2059z M48.2808,28.6672
				c-2.117,1.1035-13.0839,5.6127-15.4186,6.8302c-2.3348,1.217-3.6319,1.2052-5.4763,0.3234
				c-1.8446-0.8812-13.5151-5.5961-15.6174-6.6007c-1.0507-0.5021-1.5871-0.926-1.6032-1.3255c0,0,0,3.6109,0,4.0103
				c0,0.4005,0.5524,0.8237,1.6032,1.326c2.1023,1.0049,13.7728,5.7195,15.6174,6.6007c1.8444,0.8817,3.1414,0.8936,5.4763-0.3234
				c2.3348-1.2175,13.3016-5.7267,15.4186-6.8302c1.0776-0.5615,1.5536-0.9965,1.5533-1.3926c0-0.3722,0.0009-3.9534,0.0009-3.9534
				c-0.0024-0.0009-0.0068-0.0021-0.0093-0.0029C49.8104,27.7089,49.3099,28.1308,48.2808,28.6672z"/>
		</g>
	</g>
</g>
<g id="rails" style="display:none;">
	<circle style="display:inline;fill:#AA4042;" cx="30" cy="30" r="30"/>
	<g style="display:inline;">
		<path style="fill:#FFFFFF;" d="M37.4442,12.0005c-0.1797,0.0032-0.3056,0.0247-0.3372,0.0578
			c-0.0633,0.0663-0.0075,0.3791,0.1204,0.6938c0.2084,0.5124,0.2971,0.5787,0.8769,0.6311c0.356,0.0322,0.7317,0.067,0.8335,0.0819
			c0.1018,0.0148,0.2304-0.0433,0.2843-0.1301c0.0539-0.0868,0.0173-0.3896-0.0771-0.6745
			c-0.1611-0.486-0.2233-0.5253-1.0455-0.6215C37.8584,12.0108,37.6239,11.9972,37.4442,12.0005z"/>
		<path style="fill:#FFFFFF;" d="M31.0943,13.1857c-0.3416,0-1.4432,0.6145-1.5369,0.8576
			c-0.1056,0.2741,0.9585,1.6188,1.2815,1.6188c0.1244,0,0.503-0.1854,0.8431-0.4095c0.3402-0.2241,0.6215-0.4869,0.6215-0.5878
			C32.3036,14.3808,31.3259,13.1857,31.0943,13.1857z"/>
		<path style="fill:#FFFFFF;" d="M45.649,14.2697c-0.3738,0-0.0456,0.5923,0.53,0.9539c0.695,0.4367,1.0455,0.532,1.0455,0.2891
			C47.2244,15.3478,45.8577,14.2697,45.649,14.2697z"/>
		<path style="fill:#FFFFFF;" d="M38.6583,14.3227c-0.5274,0.0129-1.043,0.0915-1.9079,0.2457
			c-1.8143,0.3234-4.0308,1.0253-4.7841,1.5176c-2.855,1.8658-5.327,4.6234-7.5737,8.4505
			c-3.2035,5.457-4.9662,11.8314-5.5453,20.0278l-0.1012,1.4116c0.0169,0.0083,0.0381,0.0165,0.0626,0.0241h8.0073
			c4.4408,0,8.1071-0.0325,8.147-0.0723c0.0399-0.0397-0.2232-0.9642-0.5878-2.0524c-1.1817-3.5271-1.9388-7.6455-1.9464-10.5704
			c-0.01-3.8426,1.1807-8.1037,3.0449-10.8931c1.0017-1.4989,2.5545-3.036,3.0738-3.0401c0.1987-0.0015,0.6701-0.2109,1.0503-0.4673
			c0.3802-0.2565,1.1798-0.6156,1.773-0.7949c1.8372-0.5556,4.3146-0.2393,6.6053,0.8383c0.8094,0.3808,1.0172,0.4286,1.1274,0.2553
			c0.2807-0.4413,0.1154-0.7689-0.7709-1.5032c-2.3413-1.94-4.874-2.9619-8.1277-3.2858c-0.5506-0.0548-0.9507-0.0882-1.3201-0.0915
			C38.8078,14.3211,38.7337,14.3208,38.6583,14.3227z"/>
		<path style="fill:#FFFFFF;" d="M24.0602,18.7069c-0.3469,0.064-1.5036,1.5604-1.3056,1.7392
			c0.4245,0.3835,1.8474,1.2279,1.956,1.1611c0.0699-0.043,0.335-0.3836,0.5926-0.7564c0.2576-0.3728,0.4673-0.7424,0.4673-0.819
			c0-0.119-1.0277-0.9364-1.6525-1.3153C24.1028,18.7073,24.0834,18.7027,24.0602,18.7069L24.0602,18.7069z"/>
		<path style="fill:#FFFFFF;" d="M45.6008,18.9671c-0.1234,0.0001-0.2297,0.0228-0.2843,0.0771
			c-0.0852,0.0848-0.1112,0.2709-0.0578,0.4095c0.1269,0.3293,1.2671,0.2686,1.2671-0.0674
			C46.5258,19.1773,45.9712,18.9668,45.6008,18.9671z"/>
		<path style="fill:#FFFFFF;" d="M40.9805,19.1212c-0.0642,0.0015-0.1441,0.0155-0.2409,0.0385
			c-0.5635,0.1342-0.978,0.3483-0.978,0.5059c0,0.0689,0.1422,0.2506,0.3132,0.4047c0.171,0.1541,0.3083,0.3769,0.3083,0.4914
			c0,0.2525,0.1218,0.2588,0.7564,0.0385c0.5579-0.1937,0.5722-0.2585,0.2602-1.0021
			C41.2475,19.2356,41.1732,19.1181,40.9805,19.1212z"/>
		<path style="fill:#FFFFFF;" d="M37.0106,22.1613c-0.1915,0-0.6697,0.5147-0.6697,0.7227c0,0.2671,0.7781,1.4454,0.9539,1.4454
			c0.0722,0,0.2415-0.174,0.3806-0.3854c0.2402-0.365,0.2316-0.4204-0.159-1.084C37.2902,22.4754,37.0644,22.1613,37.0106,22.1613z"
			/>
		<path style="fill:#FFFFFF;" d="M18.7221,27.2682c-0.2091,0-0.8768,1.6047-0.8768,2.1054c0,0.1866,1.7095,0.9501,2.1921,0.978
			c0.1754,0.0102,0.3541-0.2933,0.5926-1.0166c0.2771-0.8406,0.2993-1.0659,0.1349-1.2141
			C20.5069,27.8884,19.0231,27.2682,18.7221,27.2682z"/>
		<path style="fill:#FFFFFF;" d="M34.4331,27.3309c-0.0451,0.0089-0.0816,0.0427-0.1156,0.0964
			c-0.0807,0.1271-0.148,0.3101-0.1494,0.4095c-0.0012,0.0994-0.0411,0.2882-0.0915,0.4192
			c-0.0594,0.1542,0.1462,0.4585,0.583,0.8624c0.7559,0.699,0.8345,0.728,0.9684,0.3806c0.2362-0.6129,0.0835-1.0947-0.5348-1.6959
			c-0.324-0.3149-0.4971-0.455-0.6119-0.4721C34.464,27.3282,34.4481,27.3279,34.4331,27.3309z"/>
		<path style="fill:#FFFFFF;" d="M33.614,33.3339c-0.1755-0.0069-0.223,0.1288-0.2216,0.3999
			c0.0043,0.8665,0.1593,1.0842,1.0599,1.4839c1.1826,0.5248,1.2814,0.5182,1.1756-0.0915c-0.143-0.8243-0.1692-0.8597-1.0262-1.349
			C34.0919,33.486,33.7895,33.3408,33.614,33.3339z"/>
		<path style="fill:#FFFFFF;" d="M15.629,37.7952c-0.2612,0-0.9835,2.3356-0.8383,2.7124c0.0783,0.2033,0.6577,0.3005,2.1343,0.3565
			l0.713,0.0241l0.2843-1.243c0.1712-0.7465,0.2305-1.2882,0.1445-1.3634C17.9275,38.1598,16.1029,37.7952,15.629,37.7952z"/>
		<path style="fill:#FFFFFF;" d="M34.7559,40.9364c-0.0464,0.0017-0.0764,0.0089-0.0867,0.0193
			c-0.0513,0.051,0.0272,0.4729,0.1734,0.9347c0.2248,0.7102,0.3314,0.8468,0.6889,0.9009c0.5944,0.09,2.2114,0.1259,2.2114,0.0482
			c0-0.3226-0.6601-1.4738-0.8817-1.5369C36.2019,41.1147,35.0806,40.925,34.7559,40.9364z"/>
	</g>
</g>
<g id="python" style="display:none;">
	<circle style="display:inline;fill:#3882BE;" cx="30" cy="30" r="30"/>
	<g id="Image_xA0_7" style="display:inline;">
		<g>
			<path style="fill-rule:evenodd;clip-rule:evenodd;fill:#FFFFFF;" d="M34.0714,27.2009c2.2486,0,4.0715-1.8228,4.0715-4.0714
				c0-3.6058,0-6.7009,0-6.7009s-0.0143-2.7285-1.3572-4.0714C35.4146,10.986,31.3571,11,31.3571,11s-6.192,0-6.7857,0
				S21.844,11.6983,20.5,13.7143c-1.3701,2.0551-1.3571,5.4285-1.3571,5.4285h10.1785c0.3748,0,0.6786,0.3038,0.6786,0.6786
				S29.6962,20.5,29.3214,20.5H17.7857c0,0-6.7857-0.0848-6.7857,9.5c0,9.5848,5.4286,9.5,5.4286,9.5s0-3.9545,0-5.5134
				c0-3.7476,3.038-6.7857,6.7857-6.7857H34.0714z M23.5112,17.0223c-0.9135,0-1.6541-0.7405-1.6541-1.654
				s0.7405-1.654,1.6541-1.654c0.9135,0,1.654,0.7405,1.654,1.654S24.4246,17.0223,23.5112,17.0223z M43.5714,20.5
				c0,0,0,3.8696,0,5.4285c0,3.7477-3.038,6.7858-6.7857,6.7858H25.9286c-2.2486,0-4.0715,1.8228-4.0715,4.0714
				c0,3.6058,0,6.7857,0,6.7857s0.0143,2.7285,1.3572,4.0714C24.5854,49.014,27.2857,49,27.2857,49s7.5491,0,8.1429,0
				s2.7274-0.6983,4.0714-2.7143c1.3701-2.0551,1.3571-5.4286,1.3571-5.4286H30.6786c-0.3748,0-0.6786-0.3038-0.6786-0.6786
				c0-0.3748,0.3038-0.6785,0.6786-0.6785h11.5357c0,0,6.7857,0.0848,6.7857-9.5C49,20.4152,43.5714,20.5,43.5714,20.5z
				 M36.4888,42.9777c0.9135,0,1.6541,0.7405,1.6541,1.654c0,0.9135-0.7405,1.6541-1.6541,1.6541
				c-0.9135,0-1.654-0.7405-1.654-1.6541C34.8348,43.7182,35.5754,42.9777,36.4888,42.9777z"/>
		</g>
	</g>
</g>
<g id="paypal" style="display:none;">
	<circle style="display:inline;fill:#00457C;" cx="30" cy="30" r="30"/>
	<g id="Image_xA0_14" style="display:inline;">
		<g>
			<path style="fill-rule:evenodd;clip-rule:evenodd;fill:#FFFFFF;" d="M21.4215,43.1074l2.0668-9.8634h2.9442
				c2.5669-0.0015,4.3038-0.0604,5.3723-0.207c1.6629-0.2332,3.0281-0.5673,4.1376-1.0648c1.0939-0.4938,2.101-1.2134,3.0105-2.1279
				c0.9621-0.9699,1.7281-2.2115,2.336-3.6918c0.6222-1.5108,0.9378-3.087,0.9359-4.6953c0.0035-1.7476-0.401-3.3524-1.25-4.7037
				c-0.8275-1.3356-2.0239-2.3493-3.4691-2.9277C36.0614,13.246,34.2814,13.0034,32.1121,13H19.4303l-6.5322,31.1319h8.3068
				L21.4215,43.1074z M25.2238,20.2201h4.0036c0.1133-0.0012,0.2249-0.0018,0.334-0.0018c1.8735,0,3.2134,0.1389,3.6492,0.2437
				c0.0622,0.0148,0.1054,0.029,0.1301,0.0419c0.4277,0.1617,0.652,0.3456,0.8442,0.6147c0.1542,0.2289,0.286,0.5825,0.2885,1.2193
				c-0.0044,0.9824-0.2637,1.8069-0.8394,2.6461c-0.5732,0.8108-1.2985,1.3786-2.342,1.7753
				c-0.1041,0.0426-0.2341,0.0845-0.3889,0.1253c-1.0828,0.2838-3.3804,0.5096-6.584,0.5096h-0.6027L25.2238,20.2201z
				 M44.8074,20.2722c0.0342,0.387,0.0566,0.7789,0.0557,1.1812c0,16.3098-18.0394,14.9297-19.0518,14.9297
				c-0.0562,0.0562-2.5114,10.8322-2.5114,10.8322h-5.2684L17.7758,49h8.5316l0.2162-1.0254l2.0668-9.8635h2.7197
				c2.5663-0.002,4.3038-0.0603,5.3729-0.2064c1.6628-0.2327,3.0271-0.5677,4.1375-1.0654c1.0934-0.4933,2.1-1.2124,3.0095-2.1273
				c0.9627-0.9695,1.7282-2.2111,2.3366-3.6918c0.6221-1.511,0.9373-3.087,0.9353-4.6954
				C47.1019,22.7488,45.4263,21.0067,44.8074,20.2722z"/>
		</g>
	</g>
</g>
<g id="nodejs" style="display:none;">
	<g style="display:inline;">
		<g>
			<g>
				<g>
					<g>
						<path style="fill:#8CC84B;" d="M51.2092,51.2095C57.0358,45.3322,60,38.2794,60,30s-2.9642-15.3322-8.7908-21.2097
							C45.3322,2.9642,38.2794,0,30,0S14.6678,2.9642,8.7905,8.7903C2.9642,14.6678,0,21.7206,0,30s2.9642,15.3322,8.7905,21.2095
							C14.6678,57.0869,21.7206,60,30,60S45.3322,57.0869,51.2092,51.2095z"/>
					</g>
				</g>
			</g>
		</g>
	</g>
	<g style="display:inline;">
		<path style="fill:#FFFFFF;" d="M29.9949,51.9882c-0.5891,0-1.1745-0.1539-1.6905-0.4523l-5.3806-3.1836
			c-0.8024-0.4485-0.4106-0.6081-0.1457-0.6995c1.0723-0.3728,1.2887-0.4586,2.4329-1.107c0.1186-0.0681,0.2763-0.041,0.4006,0.0296
			l4.1329,2.4544c0.1501,0.0839,0.3614,0.0839,0.4996,0l16.1152-9.3015c0.1495-0.0858,0.2466-0.2567,0.2466-0.4346V20.6945
			c0-0.1823-0.0965-0.352-0.2498-0.4441l-16.1083-9.2933c-0.1489-0.087-0.3476-0.087-0.4964,0l-16.1051,9.2958
			c-0.1564,0.0896-0.2548,0.2649-0.2548,0.4415v18.598c0,0.1779,0.0984,0.3457,0.2536,0.4302l4.4142,2.5515
			c2.3957,1.196,3.8623-0.2145,3.8623-1.6312V22.2815c0-0.2593,0.2088-0.4643,0.468-0.4643h2.0431
			c0.2555,0,0.4674,0.205,0.4674,0.4643V40.643c0,3.1962-1.7416,5.0299-4.7719,5.0299c-0.931,0-1.6653,0-3.7122-1.0074
			l-4.2256-2.4342C11.1472,41.6295,10.5,40.5004,10.5,39.2931V20.6945c0-1.2086,0.6465-2.3364,1.6905-2.9376l16.1152-9.3122
			c1.0193-0.5772,2.3755-0.5772,3.3873,0l16.1133,9.3122c1.0439,0.6037,1.6936,1.729,1.6936,2.9376v18.598
			c0,1.2073-0.6491,2.3314-1.6936,2.9382L31.693,51.5353C31.1764,51.8343,30.5917,51.9882,29.9949,51.9882z"/>
		<path style="fill:#FFFFFF;" d="M34.9724,39.1751c-7.0521,0-8.5294-3.2372-8.5294-5.9508c0-0.2593,0.2075-0.4655,0.4662-0.4655
			h2.0835c0.2327,0,0.4264,0.169,0.463,0.3942c0.3141,2.1213,1.2521,3.193,5.5168,3.193c3.3949,0,4.84-0.7683,4.84-2.5692
			c0-1.0383-0.4094-1.8091-5.6859-2.327c-4.4092-0.4346-7.136-1.4104-7.136-4.9378c0-3.2504,2.7407-5.1901,7.336-5.1901
			c5.1623,0,7.7164,1.7914,8.0406,5.636c0.012,0.1337-0.0347,0.2611-0.1224,0.3583c-0.0889,0.0927-0.2119,0.1489-0.3412,0.1489
			h-2.0917c-0.2164,0-0.4081-0.1539-0.4523-0.364c-0.5021-2.2311-1.722-2.9439-5.033-2.9439c-3.7071,0-4.1379,1.2918-4.1379,2.2576
			c0,1.172,0.5084,1.5132,5.513,2.1756c4.9529,0.656,7.3044,1.582,7.3044,5.0639C43.0061,37.1654,40.0793,39.1751,34.9724,39.1751z"
			/>
	</g>
</g>
<g id="node_mongo" style="display:none;">
	<circle style="display:inline;fill-rule:evenodd;clip-rule:evenodd;fill:#FFFFFF;" cx="30" cy="30" r="30"/>
	<circle style="display:inline;fill-rule:evenodd;clip-rule:evenodd;fill:#9CCE7A;" cx="30" cy="30" r="30"/>
	<g style="display:inline;">
		<g id="Image_xA0_16_2_">
			<g>
				<path style="fill-rule:evenodd;clip-rule:evenodd;fill:#FFFFFF;" d="M29.407,36.2015
					c-0.1435-8.048,0.032-16.5417,0.1137-19.8138c-0.124,0.2018-0.2847,0.408-0.498,0.5976
					c-0.8175,0.7263-5.2642,5.2665-5.5128,12.1606c-0.1949,5.4069,2.5562,8.822,4.203,10.4091
					c0.2744-0.214,1.2943-1.1011,1.7722-2.5525C29.4397,36.7561,29.407,36.4956,29.407,36.2015z M36.4811,29.0648
					c-0.2309-4.8131-2.2693-8.3649-5.3507-11.6742c-1.1033-1.185-1.2161-2.1078-1.2161-2.1078s-0.0281,0.3045-0.1885,0.6967
					c0.4449,2.8277,1.5974,11.2292,1.2018,20.2209c-0.0051,2.741,1.5815,3.4075,1.5815,3.4075s0.0146,0.0048,0.0361,0.0125
					C34.0971,38.0437,36.7494,34.6573,36.4811,29.0648z M30.0562,38.3801c-0.423,0.7684-1.0621,1.1147-1.7402,1.7263
					c0.1746,0.1498,0.324,0.2719,0.4246,0.3529c0.4687,1.3307,0.6057,4.2579,0.6057,4.2579l1.2165-0.2433
					c0,0,0.3464-3.2554,0.9733-3.8929c0.0978-0.0995,0.3019-0.279,0.5624-0.5238C31.6617,39.6643,30.7036,39.2758,30.0562,38.3801z"
					/>
			</g>
		</g>
		<path style="fill:#FFFFFF;" d="M47.8063,17.7569L31.693,8.4447c-1.0118-0.5772-2.3679-0.5772-3.3873,0l-16.1152,9.3122
			c-1.0439,0.6011-1.6905,1.729-1.6905,2.9376v18.5986c0,1.2073,0.6472,2.3364,1.6905,2.9382l16.114,9.3046
			c0.516,0.2984,1.1014,0.4523,1.6905,0.4523c0.5967,0,1.1815-0.1539,1.6981-0.4529l16.1133-9.3047
			C48.851,41.6238,49.5,40.4998,49.5,39.2924v-18.598C49.5,19.4859,48.8503,18.3606,47.8063,17.7569z M46.606,39.2937
			c0,0.1779-0.0971,0.3488-0.2466,0.4346l-16.1152,9.3015c-0.1381,0.0839-0.3494,0.0839-0.4996,0L15.1578,40.597l-1.5127-0.8744
			c-0.1552-0.0845-0.2535-0.2523-0.2535-0.4302v-18.598c0-0.1766,0.0984-0.352,0.2548-0.4415l16.1051-9.2958
			c0.1489-0.087,0.3476-0.087,0.4965,0l16.1083,9.2933c0.1533,0.0921,0.2498,0.2618,0.2498,0.4441V39.2937z"/>
	</g>
</g>
<g id="mongoose" style="display:none;">
	<circle style="display:inline;fill-rule:evenodd;clip-rule:evenodd;fill:#880000;" cx="30" cy="30" r="30"/>
	<g id="Image_xA0_19" style="display:inline;">
		<g>
			<path style="fill-rule:evenodd;clip-rule:evenodd;fill:#FFFFFF;" d="M48.1022,19.1628c-0.7631-0.7329-2.1016-2.2988-3.234-3.3478
				c0.0903-0.6602,0.2392-1.8419,0.181-2.0748c-0.0815-0.326,0-0.8948-0.489-0.4874c-0.3012,0.251-0.6633,1.0573-0.8977,1.6405
				c-0.0849-0.0423-0.1655-0.0757-0.2391-0.095c-1.5483-0.4075-0.9329-0.0927-2.4413,0.2844
				c-0.4132-0.4875-0.8998-1.6697-0.8998-1.6697s-0.6182-0.795-1.1085-0.1789c-0.7762,0.9753-1.5189,3.3201-1.8611,4.2963
				c-2.6961,7.6874-3.8753,0.3077-13.1658,6.6396c-4.5782,3.1203-5.2155,7.8233-5.2155,7.8233s-1.6899-1.1662-3.9931-0.8964
				c-3.3622,0.3937-5.2155,4.1621-5.134,7.4158c0.5704,8.9861,13.0024,8.4752,14.4241,8.4752
				c7.0588,0.1633,12.2124-1.345,14.8576-2.3652c1.0693-0.6779,0.2296-0.9111-0.519-0.9111
				c-2.317,0.0027-5.8812,0.0167-9.2045,0.0167c-1.6052,0-5.7267,0.0391-7.7483-0.129c-2.6892-0.2236-2.9607-2.1353-2.2753-3.2122
				l0.8964-0.5704c0,0,0.899,0.084,1.5889,0.774c0.3901,0.3901,0.3537,0.7886,0.4529,1.2003
				c0.1249,0.5187,1.25,0.6335,1.5435,0.6335h3.3393c1.2383,0-0.0597-1.1409,0.326-1.1409c1.2989,0,2.121,1.1409,3.1804,1.1409
				h3.5856c0.2568,0-1.1405-1.4081-1.1075-1.8762c0.0435-0.6165,2.1641,0.2714,1.0367-0.8866
				c-0.5672-0.5826-1.0231-0.9822-1.2681-1.7352c-0.5096-1.5668,0.9872-2.3989,1.3947-2.3989c0.4074,0,1.2484,1.4945,2.1322,3.6121
				c0.2512,0.602,0.5059,1.5012,0.7457,1.9808c0.3958,0.7915,1.3039,1.3039,1.3039,1.3039s1.5205,0,2.6077,0
				c2.1414,0,1.644-1.072,0.5486-1.6321c-0.3218-0.183-0.6317-0.4361-0.665-0.7422c-0.2811-2.5847-1.0552-8.7914-1.0552-8.7914
				s1.8236-1.2211,2.9645-2.7694s2.1203-5.6476,2.1203-5.6476s2.6519,0.499,2.7257-0.2518
				C48.3405,20.4528,48.6962,19.7333,48.1022,19.1628z M41.5467,17.8969c0,0,1.8718-0.2366,2.8503,1.252
				C42.6,20.8668,41.4428,17.9757,41.5467,17.8969z"/>
		</g>
	</g>
</g>
<g id="mongodb" style="display:none;">
	<circle style="display:inline;fill-rule:evenodd;clip-rule:evenodd;fill:#55AD45;" cx="30" cy="30" r="30"/>
	<g id="Image_xA0_16" style="display:inline;">
		<g>
			<path style="fill-rule:evenodd;clip-rule:evenodd;fill:#FFFFFF;" d="M29.0531,39.9022
				c-0.2291-12.8507,0.0511-26.4131,0.1816-31.638c-0.198,0.3223-0.4546,0.6515-0.7953,0.9542
				c-1.3054,1.1597-8.4056,8.4095-8.8026,19.4176c-0.3113,8.6335,4.0817,14.0866,6.7112,16.6208
				c0.438-0.3417,2.0666-1.7581,2.8298-4.0757C29.1053,40.7879,29.0531,40.3719,29.0531,39.9022z M30.0898,43.3811
				c-0.6754,1.227-1.6959,1.7799-2.7787,2.7565c0.2788,0.2391,0.5173,0.434,0.6779,0.5635C28.7373,48.8259,28.956,53.5,28.956,53.5
				l1.9425-0.3885c0,0,0.5531-5.1982,1.5541-6.2161c0.1562-0.1589,0.4821-0.4455,0.898-0.8364
				C32.6534,45.4316,31.1234,44.8112,30.0898,43.3811z M40.3488,28.5066c-0.3687-7.6854-3.6236-13.3568-8.5438-18.6409
				C30.0433,7.9735,29.8633,6.5,29.8633,6.5s-0.0449,0.4861-0.301,1.1123c0.7103,4.5152,2.5507,17.9305,1.9189,32.288
				c-0.0081,4.3768,2.5253,5.441,2.5253,5.441s0.0234,0.0077,0.0576,0.02C36.5421,42.8439,40.7772,37.4366,40.3488,28.5066z"/>
		</g>
	</g>
</g>
<g id="mysql" style="display:none;">
	<circle style="display:inline;fill:#00618A;" cx="30" cy="30" r="30"/>
	<g id="Image_xA0_15" style="display:inline;">
		<g>
			<path style="fill-rule:evenodd;clip-rule:evenodd;fill:#FFFFFF;" d="M39.8276,39.8276c0-5.2032-4.0562-9.4183-9.1724-9.7615
				V29.934C30.4345,29.9487,30.2244,30,30,30c-5.4276,0-9.8276-4.4-9.8276-9.8276c0-5.2024,4.055-9.4169,9.17-9.7614
				C19.1021,11.0895,11,19.5879,11,30c0,10.412,8.1021,18.9105,18.3425,19.5889c0.2214,0.0149,0.4323,0.0663,0.6575,0.0663
				c0.0749,0,0.1442-0.0204,0.2186-0.022c0.1466,0.0032,0.2892,0.022,0.4365,0.022v-0.066
				C35.7714,49.2458,39.8276,45.0308,39.8276,39.8276z M30.6552,46.7926v0.067c-0.1495,0-0.2944-0.0186-0.443-0.0223
				C30.14,46.8394,30.0727,46.8586,30,46.8586c-0.2186,0-0.4244-0.0453-0.638-0.0643C20.56,46.1313,13.7955,38.9716,13.7955,30
				c0-4.1684,1.3263-7.9828,3.8122-10.9434c-0.0328,0.3682-0.0563,0.7391-0.0563,1.1158c0,6.8751,5.5734,12.7119,12.4486,12.7119
				c0.2212,0,0.4368-0.0217,0.6552-0.0331v0.0991c3.668,0.3359,6.2881,3.1216,6.2881,6.8773
				C36.9433,43.5832,34.3232,46.4567,30.6552,46.7926z M30.6552,10.4109v-0.0661c-0.1371,0-0.2703,0.0157-0.4063,0.0206
				c0.1276,0.015,0.2545,0.0322,0.3834,0.0432C30.64,10.4092,30.6475,10.4103,30.6552,10.4109z M30.6498,10.4107
				c-0.0059-0.0004-0.0117-0.0016-0.0176-0.0021c-0.1387-0.0114-0.2727-0.0386-0.4136-0.0417
				c0.0101-0.0002,0.0201-0.0012,0.0302-0.0015c-0.0821-0.0097-0.164-0.0201-0.2488-0.0201c-0.074,0-0.1425,0.0199-0.2161,0.0218
				c-0.1474-0.0033-0.2908-0.0222-0.439-0.0222v0.0665c-4.392,0.3401-7.1158,4.2805-7.1158,8.4508
				c0,4.0405,2.7238,8.1107,7.1158,8.4508v0.0661c6.5133,0,12.4515,5.2801,12.4515,11.7935c0,3.3853-2.2431,6.7455-4.7381,8.9079
				C44.0786,45.0813,49,38.1166,49,30C49,19.5853,40.8938,11.0854,30.6498,10.4107z"/>
		</g>
	</g>
</g>
<g id="jqueryui" style="display:none;">
	<g style="display:inline;">
		<g>
			<g>
				<g>
					<g>
						<g>
							<path style="fill:#FEA620;" d="M51.2092,51.2095C57.0358,45.3322,60,38.2794,60,30s-2.9642-15.3322-8.7908-21.2097
								C45.3322,2.9642,38.2794,0,30,0S14.6678,2.9642,8.7905,8.7903C2.9642,14.6678,0,21.7206,0,30s2.9642,15.3322,8.7905,21.2095
								C14.6678,57.0869,21.7206,60,30,60S45.3322,57.0869,51.2092,51.2095z"/>
						</g>
					</g>
				</g>
			</g>
		</g>
		<path style="fill:#FFFFFF;" d="M45.5554,14.5346H14.4447c-2.4549,0-4.4447,1.9665-4.4447,4.393h0.0001v13.1782
			c0,9.7038,7.9593,17.57,17.7777,17.57h4.4446c9.8188,0,17.7777-7.8662,17.7777-17.57V18.9277
			C50,16.5012,48.0103,14.5346,45.5554,14.5346z M30.0005,43.0876c-7.3644,0-13.3339-5.9005-13.3339-13.1782h0v-6.5896h6.6673
			v6.5896c0,3.6384,2.9844,6.5891,6.6666,6.5891c3.6812,0,6.6656-2.9507,6.6656-6.5891h6.6674
			C43.3335,37.1871,37.3638,43.0876,30.0005,43.0876z M43.222,27.7124l-6.444-1.6465l1.5556-6.3696l6.5555,1.647L43.222,27.7124z"/>
	</g>
</g>
<g id="jquery" style="display:none;">
	<circle style="display:inline;fill:#1B75BB;" cx="30" cy="30" r="30"/>
	<g style="display:inline;">
		<path id="path6" style="fill:#FFFFFF;" d="M49.0658,38.3913c-5.766,6.3051-16.3812,6.9901-24.7734,1.2625
			c-8.6573-5.9087-11.822-16.5073-7.4737-24.2492c-0.9026,0.8315-1.7216,1.7723-2.4374,2.8209
			c-5.6333,8.254-2.7535,20.027,6.4322,26.2962c9.186,6.2693,21.1997,4.6609,26.8329-3.5929
			C48.2021,40.1144,48.6737,39.2655,49.0658,38.3913z"/>
		<path id="path8" style="fill:#FFFFFF;" d="M50.5,27.9203c-0.0126-0.015-0.1665,0.2423-0.2529,0.3603
			c-3.7334,5.1033-11.7794,5.8155-18.2206,1.5296c-6.5902-4.385-9.0041-12.3408-5.3919-17.7695
			c0.278-0.4178,0.5836-0.808,0.9138-1.1712c0.2593-0.285,0.5341-0.5529,0.8222-0.804c-0.3074,0.256-0.6059,0.5257-0.8943,0.8095
			c-0.7071,0.6962-1.3541,1.4746-1.9255,2.3335c-4.4765,6.7277-2.6521,15.8104,4.0755,20.2867
			c6.7275,4.4765,15.6994,2.5759,20.1762-4.1518C49.8026,29.3432,50.2146,28.6624,50.5,27.9203z"/>
		<path id="path10" style="fill:#FFFFFF;" d="M36.7395,23.471c3.7974,2.5917,8.7176,2.1289,11.5619-0.9031
			c0.2773-0.2958,0.5363-0.6149,0.7711-0.9592c0.3767-0.5519,0.6718-1.1365,0.8937-1.7402
			c-0.1033,0.1957-0.2166,0.3873-0.3437,0.5734c-0.437,0.6403-0.9837,1.1705-1.6092,1.591
			c-2.5901,1.7414-6.5471,1.5794-9.8232-0.6565c-3.6383-2.4831-5.2007-6.6804-3.8815-9.8948
			c0.1556-0.3789,0.3486-0.7448,0.5854-1.0919c0.1802-0.2642,0.3809-0.5079,0.5962-0.7348
			c-0.5681,0.4683-1.0786,1.0189-1.5113,1.6527c-0.0176,0.0258-0.0332,0.0525-0.0504,0.0785
			C31.354,15.2539,32.5993,20.6452,36.7395,23.471z"/>
	</g>
</g>
<g id="javascript" style="display:none;">
	<g style="display:inline;">
		<g>
			<g>
				<g>
					<g>
						<g>
							<path style="fill:#F0DB4F;" d="M51.2092,51.2095C57.0358,45.3322,60,38.2794,60,30s-2.9642-15.3322-8.7908-21.2097
								C45.3322,2.9642,38.2794,0,30,0S14.6678,2.9642,8.7905,8.7903C2.9642,14.6678,0,21.7206,0,30s2.9642,15.3322,8.7905,21.2095
								C14.6678,57.0869,21.7206,60,30,60S45.3322,57.0869,51.2092,51.2095z"/>
						</g>
					</g>
				</g>
			</g>
		</g>
		<g>
			<path style="fill:#FFFFFF;" d="M49.7746,34.7285c-0.4672-2.9123-2.3662-5.3573-7.9905-7.6386
				c-1.9536-0.8979-4.1318-1.5411-4.7809-3.0215c-0.2306-0.8615-0.2609-1.3469-0.1153-1.8687
				c0.4186-1.6927,2.439-2.2206,4.0408-1.7352c1.0314,0.3458,2.0082,1.1406,2.5968,2.4087
				c2.7545-1.7838,2.7484-1.7716,4.6717-2.9972c-0.7038-1.0921-1.08-1.5957-1.5411-2.0628
				c-1.6563-1.8505-3.9133-2.803-7.5233-2.7302c-0.6249,0.0789-1.2559,0.1638-1.8808,0.2427
				c-1.802,0.455-3.519,1.4015-4.5261,2.6696c-3.0215,3.428-2.1599,9.4284,1.5168,11.8978c3.6221,2.7181,8.943,3.337,9.6226,5.8791
				c0.6613,3.1125-2.2873,4.1196-5.2178,3.7617c-2.1599-0.449-3.3612-1.5471-4.6596-3.5432
				c-2.3905,1.3833-2.3905,1.3833-4.8477,2.797c0.5825,1.2741,1.1952,1.8505,2.1721,2.9547
				c4.6232,4.6899,16.1933,4.4594,18.2683-2.6392C49.6654,38.8602,50.2236,37.2342,49.7746,34.7285z M25.8699,15.4591h-5.9701
				c0,5.1571-0.0243,10.2778-0.0243,15.4349c0,3.2824,0.1699,6.2917-0.364,7.2139c-0.8737,1.8141-3.1367,1.5896-4.1682,1.2377
				c-1.0496-0.5157-1.5835-1.2498-2.2024-2.2873c-0.1699-0.2973-0.2973-0.5278-0.3398-0.546
				c-1.6199,0.989-3.2338,1.984-4.8538,2.9729c0.8069,1.6563,1.9961,3.0943,3.519,4.0286c2.2752,1.3651,5.3331,1.7838,8.5305,1.0496
				c2.081-0.6067,3.8769-1.8626,4.8174-3.7738c1.3591-2.5058,1.0678-5.5393,1.0557-8.8945
				C25.9002,26.4225,25.8699,20.9499,25.8699,15.4591z"/>
		</g>
	</g>
</g>
<g id="java" style="display:none;">
	<g style="display:inline;">
		<g>
			<g>
				<g>
					<g>
						<path style="fill:#F80000;" d="M51.2092,51.2095C57.0358,45.3322,60,38.2794,60,30s-2.9642-15.3322-8.7908-21.2097
							C45.3322,2.9642,38.2794,0,30,0S14.6678,2.9642,8.7905,8.7903C2.9642,14.6678,0,21.7206,0,30s2.9642,15.3322,8.7905,21.2095
							C14.6678,57.0869,21.7206,60,30,60S45.3322,57.0869,51.2092,51.2095z"/>
					</g>
				</g>
			</g>
		</g>
	</g>
	<g style="display:inline;">
		<path style="fill:#FFFFFF;stroke:#FFFFFF;stroke-width:0.5625;" d="M24.0945,40.1957c0,0-1.7196,1,1.2238,1.3384
			c3.5659,0.4068,5.3884,0.3485,9.3181-0.3953c0,0,1.0331,0.6478,2.476,1.2089C28.3031,46.1232,17.1753,42.1291,24.0945,40.1957"/>
		<path style="fill:#FFFFFF;stroke:#FFFFFF;stroke-width:0.5625;" d="M23.018,35.2689c0,0-1.9287,1.4277,1.0169,1.7324
			c3.8092,0.393,6.8174,0.4251,12.0228-0.5772c0,0,0.72,0.7299,1.8521,1.1291C27.2589,40.6676,15.3957,37.7988,23.018,35.2689"/>
		<path style="fill:#FFFFFF;stroke:#FFFFFF;stroke-width:0.5625;" d="M32.0928,26.9115c2.1706,2.499-0.5703,4.7479-0.5703,4.7479
			s5.5115-2.8452,2.9803-6.4081c-2.3641-3.3226-4.177-4.9735,5.6374-10.6655C40.1402,14.5858,24.7349,18.4334,32.0928,26.9115"/>
		<path style="fill:#FFFFFF;stroke:#FFFFFF;stroke-width:0.5625;" d="M43.7437,43.8399c0,0,1.2726,1.0485-1.4015,1.8597
			c-5.0848,1.5404-21.1636,2.0055-25.6302,0.0614c-1.6056-0.6985,1.4054-1.6679,2.3525-1.8713
			c0.9878-0.2142,1.5523-0.1743,1.5523-0.1743c-1.7856-1.2579-11.5415,2.4699-4.9555,3.5375
			C33.6224,50.1657,48.4026,45.9413,43.7437,43.8399"/>
		<path style="fill:#FFFFFF;stroke:#FFFFFF;stroke-width:0.5625;" d="M24.9214,30.1642c0,0-8.1787,1.9426-2.8963,2.648
			c2.2304,0.2986,6.6766,0.2311,10.8182-0.116c3.3847-0.2855,6.7834-0.8926,6.7834-0.8926s-1.1935,0.5111-2.0569,1.1007
			c-8.3053,2.1843-24.3496,1.1681-19.7306-1.0661C21.7453,29.95,24.9214,30.1642,24.9214,30.1642"/>
		<path style="fill:#FFFFFF;stroke:#FFFFFF;stroke-width:0.5625;" d="M39.5929,38.3651c8.4427-4.3872,4.5391-8.6032,1.8145-8.0352
			c-0.6678,0.139-0.9656,0.2594-0.9656,0.2594s0.2479-0.3884,0.7214-0.5565c5.3902-1.895,9.5357,5.5891-1.74,8.5533
			C39.4233,38.5862,39.5539,38.4695,39.5929,38.3651"/>
		<path style="fill:#FFFFFF;stroke:#FFFFFF;stroke-width:0.5625;" d="M34.5028,5.3947c0,0,4.6757,4.6773-4.4347,11.8696
			c-7.3056,5.7695-1.6659,9.0591-0.003,12.8176c-4.2644-3.8475-7.3939-7.2346-5.2944-10.3869
			C27.8523,15.0678,36.3893,12.8243,34.5028,5.3947"/>
		<path style="fill:#FFFFFF;stroke:#FFFFFF;stroke-width:0.5625;" d="M25.751,50.2533c8.104,0.5188,20.5485-0.2878,20.8432-4.1224
			c0,0-0.5665,1.4537-6.6975,2.6081c-6.9169,1.3017-15.4479,1.1497-20.5077,0.3155C19.389,49.0545,20.4249,49.9117,25.751,50.2533"
			/>
	</g>
</g>
<g id="html5" style="display:none;">
	<circle style="display:inline;fill:#E44F26;" cx="30" cy="30" r="30"/>
	<polygon style="display:inline;fill:#FFFFFF;" points="30.0198,14.3466 29.9969,14.3466 13.5,14.3466 13.6578,16.1141 
		15.277,34.2687 29.9969,34.2687 30.0198,34.2687 38.1093,34.2687 37.3447,42.8129 29.9969,44.7961 29.9969,44.7969 
		29.9909,44.7986 22.6537,42.8172 22.1846,37.5632 18.6195,37.5632 15.5714,37.5632 16.4944,47.907 29.9893,51.6534 30.0198,51.645 
		30.0198,51.644 43.5029,47.907 43.6017,46.7942 45.1499,29.45 45.3106,27.681 43.5354,27.681 30.0198,27.681 29.9969,27.681 
		21.3021,27.681 20.6998,20.9348 29.9969,20.9348 30.0198,20.9348 45.889,20.9348 45.9102,20.9348 46.0423,19.454 46.3424,16.1141 
		46.5,14.3466 	"/>
</g>
<g id="highcharts" style="display:none;">
	<circle style="display:inline;fill:#8DA9CA;" cx="30" cy="30" r="30"/>
	<path style="display:inline;fill:#FFFFFF;" d="M30,9c-2.9049,0-5.6719,0.5902-8.1881,1.6566
		c-3.6758,4.8213-7.4509,11.6-1.0752,21.9138l5.8199-11.2032l6.1109,12.1732c0,0,4.8499-9.4087,8.6328-8.8268v1.067
		c0,0-7.2447,10.79-6.6627,14.2819l-1.8731-2.8362c0,0-0.97,5.7229-0.97,6.8868l-5.8199-13.0947l-3.1039,7.7598
		c-6.8521-3.5973-9.3944-5.307-13.7019-11.4005C9.0616,28.2375,9,29.1113,9,30c0,11.598,9.402,21,21,21s21-9.402,21-21
		S41.598,9,30,9z"/>
</g>
<g id="graph" style="display:none;">
	<circle style="display:inline;fill:#5A3776;" cx="30" cy="30" r="30"/>
	<g id="charts" style="display:inline;">
		<path style="fill:#FFFFFF;" d="M45.3333,41.3333V22c0-0.4-0.2667-0.6667-0.6667-0.6667h-5.3333
			c-0.4,0-0.6667,0.2667-0.6667,0.6667v19.3333h-1.3333V12.6667c0-0.4-0.2667-0.6667-0.6667-0.6667h-5.3333
			c-0.4,0-0.6667,0.2667-0.6667,0.6667v28.6667h-1.3333v-14c0-0.4-0.2667-0.6667-0.6667-0.6667h-5.3333
			c-0.4,0-0.6667,0.2667-0.6667,0.6667v14h-1.3333v-6c0-0.4-0.2667-0.6667-0.6667-0.6667h-5.3333
			c-0.4,0-0.6667,0.2667-0.6667,0.6667V36v5.3333H12V44h36v-1.3333v-1.3333H45.3333z"/>
	</g>
</g>
<g id="flask" style="display:none;">
	<circle style="display:inline;fill-rule:evenodd;clip-rule:evenodd;fill:#717171;" cx="30" cy="30" r="30"/>
	<g id="Image_xA0_22" style="display:inline;">
		<g>
			<path style="fill-rule:evenodd;clip-rule:evenodd;fill:#FFFFFF;" d="M28.7082,19.7502c0.6037,0.0848,2.3066,0.2807,3.101,0.6783
				s1.8945-0.8769,1.202-1.474c-0.7954-0.6646-1.3873-0.8571-4.1814-1.7784c-0.9313-0.301-1.6596-1.6161-3.1837-2.2177
				c-0.4874-0.1924-1.9161,0.1109-2.42-0.046c-0.3135-0.0976-0.0098-0.9262-0.323-0.9769
				c-0.3314-0.6516-1.1186,0.2892-1.4574-0.0452c-0.1605-0.1584-0.4634-0.8368-0.769-1.4991
				c0.3765-0.4027,0.6174-0.9353,0.6174-1.5301c0-1.2443-1.0087-2.253-2.253-2.253c-1.2443,0-2.253,1.0087-2.253,2.253
				c0,1.1486,0.8724,2.0596,1.9833,2.1985c0.1085,0.4173,0.1939,0.8863,0.2428,1.2998c0.1003,0.8478-1.2636,0.5864-1.3682,1.0045
				c-0.0734,0.2938-0.1632,1.3123-0.4809,1.8774c-0.2643,0.4704-1.755,0.4666-2.1315,0.9641
				c-0.3044,0.4022-0.4418,1.429-0.1707,1.7068c-1.5314,1.0602-3.4163,3.4457-1.6493,3.4457
				c1.5315-1.5314,7.8929-3.7697,10.7202-4.0053C25.2225,19.2454,27.2853,19.5503,28.7082,19.7502z M42.7825,43.267
				c-7.0682-1.7671-8.5997-4.241-11.3092-7.0682c-3.5162-3.6691-3.0629-14.696-3.0629-14.696s-3.0629-0.6185-6.1258-0.0295
				c-3.0629,0.5891-7.6425,2.6064-7.6425,2.6064s0.4565,7.2891,6.3467,15.1819c5.8902,7.8929,14.1365,8.4819,19.7911,8.0107
				c5.4003-0.45,10.7202-1.8848,10.7202-3.2985C51.5,42.5601,49.8508,45.034,42.7825,43.267z"/>
		</g>
	</g>
</g>
<g id="firebase" style="display:none;">
	<circle style="display:inline;fill:#FFC72C;" cx="30" cy="30" r="30"/>
	<g style="display:inline;">
		<path style="fill:#FFFFFF;stroke:#FFFFFF;stroke-width:1.0711;" d="M32.3912,10.7966c2.1643,0.1906,4.2478,0.3055,6.363,0.811
			c1.5491,0.3702,3.1446,0.9602,4.4694,1.887c1.0889,0.7617,1.7937,1.7538,1.8185,3.1325
			c-0.0373,2.2917,0.0157,4.6381,0.0001,6.9329c-0.0039,0.5703-0.1214,1.1219-0.5115,1.5596
			c-0.2936,0.3294,0.0762,0.4895,0.1713,0.7273c0.2182,0.5453,0.4835,1.116,0.509,1.6863
			c-0.0815,2.1029,0.0308,4.1241,0.0308,6.2451c-0.0011,0.5-0.0782,1.0413-0.3369,1.4847
			c-0.1747,0.2994-0.0499,0.4866,0.0998,0.6613c0.1871,0.4991,0.3726,1.0757,0.3986,1.6539
			c0.0819,1.8212-0.0158,3.6632,0.0879,5.4826c0.0952,1.6697-0.6029,2.8038-1.9588,3.7055
			c-1.1017,0.7327-2.2582,1.1478-3.5047,1.5633c-2.7842,0.734-5.5341,0.8775-8.3978,0.932
			c-3.6082,0.0687-7.2987-0.0301-10.8158-0.9299c-1.6234-0.4153-3.1922-0.9711-4.4741-2.1115
			c-0.8125-0.7228-1.3145-1.5999-1.3287-2.7102c-0.0242-1.902-0.1317-3.862-0.1123-5.7641
			c0.0125-1.2227,0.0597-1.4716,0.3868-2.1085c0.0569-0.1108,0.1084-0.18,0.0438-0.2849c-0.3532-0.5729-0.5318-1.1574-0.5428-1.8111
			c-0.0252-1.4932-0.0755-3.0357-0.0873-4.5289c-0.0095-1.1994-0.0931-2.6809,0.6238-3.5683
			c-0.2261-0.8268-0.5559-1.0751-0.6862-1.7717c-0.0855-0.4569-0.0608-1.2627-0.0749-1.7342
			c-0.0289-0.9718-0.0289-1.7981-0.0624-2.7698c0-1.1014,0.0374-2.3046,0.0374-3.4061c0.4677-1.6632,1.6535-2.5668,3.1441-3.2189
			c2.1095-0.9228,4.3724-1.2808,6.6375-1.5471C25.3605,10.8738,29.9832,10.5845,32.3912,10.7966z M35.5563,14.751
			c1.1021,0.2212,2.3585,0.3878,3.7968,0.7118c0.4675,0.1053,1.11,0.431,1.5423,0.6494c0.3644,0.1841,0.6412,0.4099,0.6286,0.8852
			c-0.0125,0.4696-0.4687,0.6587-0.8359,0.8359c-0.4363,0.2105-1.0041,0.3819-1.4722,0.4991
			c-3.0725,0.7691-5.7545,0.8234-8.8832,0.549c-0.6654-0.0584-1.5103-0.2416-2.0994-0.5665
			c-0.9508-0.5244-1.0766-1.8229-0.2212-2.5027c0.3367-0.2676,0.7492-0.4755,1.1603-0.5864
			c0.8171-0.2203,1.7288-0.2741,2.5081-0.4277c-0.1178-0.042-0.2538-0.0846-0.4246-0.1836
			c-0.1202-0.0697-0.4388-0.0722-0.4492-0.3618c-0.027-0.2593,0.3052-0.3143,0.4242-0.3493
			c0.3748-0.1104,0.8115-0.1971,1.1977-0.2371c1.1854-0.1227,2.2981-0.1064,3.6179-0.2194
			c-3.6773-0.5371-7.3506-0.9409-10.9789-0.4543c0.118-0.1732,0.3507-0.2929,0.4741-0.4741
			c-1.6448,0.2246-3.297,0.5279-4.741,1.1728c-1.5168,0.6774-3.2189,2.6575-3.3345,3.518
			c-0.0623-0.1706-0.2281-0.4402-0.3086-0.6609c-0.6059,1.8-0.7522,3.9705-0.3868,5.7641c0.4577,2.2465,2.1834,3.2813,4.1314,3.8249
			c1.6336,0.3607,3.524,0.4992,5.2134,0.4046c-0.3883,0.102-1.2835,0.2723-1.6718,0.3743c0.4314,0.1184,1.1,0.2599,1.5186,0.2618
			c2.1847,0.0096,4.3699,0.0286,6.5542-0.0049c2.6679-0.0409,5.307-0.3924,7.8347-1.3048c0.7607-0.2746,1.4759-0.7104,2.1834-1.1104
			c0.4484-0.2535,0.5938-0.5963,0.5864-1.1478c-0.0268-1.998,0.0286-3.9839,0.036-5.9822c0.0019-0.5213-0.1551-0.9827-0.5621-1.292
			c-0.3821-0.2905-0.8025-0.5663-1.2495-0.7296C39.3601,14.8808,37.2771,14.8145,35.5563,14.751z M17.9684,26.5543
			c-0.5685,0.3608-1.0492,0.7625-1.048,1.4098c0.0037,1.9353,0.0226,3.8414,0.0125,5.7766
			c-0.0025,0.4841,0.2667,0.8986,0.6612,1.1465c0.5154,0.324,1.0474,0.6496,1.6151,0.8573
			c2.1583,0.7898,4.4169,1.0237,6.6943,1.2026c4.22,0.3316,8.3746,0.234,12.5388-0.5989c1.2506-0.2501,2.4506-0.5858,3.5683-1.2352
			c0.632-0.3672,0.979-0.7969,0.9607-1.5845c-0.042-1.8083-0.0193-3.5556,0-5.3649c0.0071-0.6661-0.2989-1.3436-0.9981-1.6219
			c-0.007,0.1283-0.0363,0.4161-0.0374,0.5365c-0.01,1.0498-0.0261,1.0978-1.0106,1.4972
			c-0.1161,0.0471-0.2552,0.0855-0.3743,0.1248c-2.5142,0.8284-5.07,1.0647-7.6855,1.1853
			c-3.5827,0.1651-7.0521,0.1419-10.5925-0.5115c-1.1474-0.2118-2.3904-0.5264-3.508-0.8762
			c-0.5048-0.1581-0.6604-0.5284-0.759-1.12C17.9684,27.1532,17.9684,26.8681,17.9684,26.5543z M17.956,36.3358
			c-0.5647,0.384-1.0116,0.6762-1.0106,1.3225c0.0029,1.9658,0.0243,3.998,0.0125,5.9637c-0.003,0.5057,0.2756,0.9017,0.6647,1.1834
			c0.3034,0.2197,0.623,0.4511,0.9719,0.5675c1.0554,0.352,2.112,0.7316,3.1981,0.9549c3.3737,0.6938,6.7948,0.8306,10.2288,0.7021
			c2.5329-0.0948,5.0553-0.3135,7.5078-0.9872c0.8861-0.2434,1.7443-0.6147,2.582-0.9998c0.6467-0.2973,0.9396-0.8365,0.9259-1.6001
			c-0.0339-1.8863-0.0647-3.7478-0.0536-5.6348c0.0034-0.5782-0.4023-1.2976-1.0106-1.4597c0,0.0993,0.0009,0.368,0,0.4616
			c-0.0142,1.4433-0.096,1.4218-1.4722,1.9089c-0.0887,0.0314-0.197,0.0599-0.287,0.0873
			c-2.4042,0.7323-4.7674,1.0899-7.2558,1.2003c-3.7859,0.168-7.5732,0.0955-11.3073-0.6512
			c-1.0357-0.2071-2.0387-0.5892-3.0447-0.927c-0.4103-0.1378-0.509-0.2878-0.5878-0.745
			C17.956,37.3215,17.956,36.7836,17.956,36.3358z"/>
	</g>
</g>
<g id="form" style="display:none;">
	<circle style="display:inline;fill:#5A3776;" cx="30" cy="30" r="30"/>
	<g id="notes" style="display:inline;">
		<g>
			<path style="fill:#FFFFFF;" d="M15.6,48.28c0,0.432,0.288,0.72,0.72,0.72h27.36c0.432,0,0.72-0.288,0.72-0.72V21.64H15.6V48.28z
				 M40.08,33.16H21.36v-1.44h18.72V33.16z M21.36,25.96h18.72v1.44H21.36V25.96z M19.92,28.84h14.4v1.44h-14.4V28.84z M19.92,34.6
				h20.16v1.44H19.92V34.6z M19.92,37.48h20.16v1.44H19.92V37.48z M19.92,40.36h20.16v1.44H19.92V40.36z M19.92,43.24h7.2v1.44h-7.2
				V43.24z"/>
			<path style="fill:#FFFFFF;" d="M42.96,13c-0.864,0-1.44,0.576-1.44,1.44h-1.44c0-0.864-0.576-1.44-1.44-1.44
				s-1.44,0.576-1.44,1.44h-1.44c0-0.864-0.576-1.44-1.44-1.44s-1.44,0.576-1.44,1.44h-1.44c0-0.864-0.576-1.44-1.44-1.44
				s-1.44,0.576-1.44,1.44h-1.44c0-0.864-0.576-1.44-1.44-1.44c-0.864,0-1.44,0.576-1.44,1.44H22.8c0-0.864-0.576-1.44-1.44-1.44
				c-0.864,0-1.44,0.576-1.44,1.44h-1.44c0-0.864-0.576-1.44-1.44-1.44c-0.864,0-1.44,0.576-1.44,1.44v5.76h28.8v-5.76
				C44.4,13.576,43.824,13,42.96,13z"/>
		</g>
	</g>
</g>
<g id="express" style="display:none;">
	<g style="display:inline;">
		<g>
			<g>
				<g>
					<g>
						<path style="fill:#777777;" d="M51.2092,51.2095C57.0358,45.3322,60,38.2794,60,30s-2.9642-15.3322-8.7908-21.2097
							C45.3322,2.9642,38.2794,0,30,0S14.6678,2.9642,8.7905,8.7903C2.9642,14.6678,0,21.7206,0,30s2.9642,15.3322,8.7905,21.2095
							C14.6678,57.0869,21.7206,60,30,60S45.3322,57.0869,51.2092,51.2095z"/>
					</g>
				</g>
			</g>
		</g>
	</g>
	<g id="Image_xA0_23" style="display:inline;">
		<g>
			<path style="fill-rule:evenodd;clip-rule:evenodd;fill:#FFFFFF;" d="M26.5921,22.6966
				c-0.7923-1.2668-1.8431-2.3109-3.1531-3.1315c-1.3107-0.8207-2.9588-1.231-4.9457-1.231c-1.5267,0-2.9304,0.2881-4.2114,0.8638
				c-1.2817,0.5764-2.3905,1.3823-3.3259,2.4189c-0.9361,1.0367-1.663,2.2609-2.1813,3.6715
				c-0.5183,1.4113-0.7775,2.9662-0.7775,4.665c0.0574,1.6994,0.3091,3.2686,0.7559,4.7081
				c0.4461,1.4402,1.1156,2.678,2.0085,3.7147c0.8922,1.0366,1.9937,1.8431,3.3044,2.4188c1.31,0.5757,2.8575,0.8639,4.6433,0.8639
				c2.5336,0,4.636-0.6331,6.3064-1.9005c1.6697-1.2668,2.7496-2.8173,3.2395-5.3226h-3.6283
				c-0.3172,1.4686-0.9719,2.2274-1.9653,2.9469c-0.9935,0.7201-2.2677,1.0798-3.8226,1.0798c-1.2095,0-2.261-0.2011-3.1532-0.6047
				c-0.8929-0.4029-1.6272-0.9428-2.2029-1.6198c-0.5764-0.6763-0.9935-1.4537-1.2526-2.3325
				c-0.2592-0.8781-0.3746-2.0306-0.3456-3.0099h16.7161c0.0574-1.3532-0.0648-2.5547-0.3671-4.0523
				C27.9312,25.3463,27.3838,23.9641,26.5921,22.6966z M11.8845,27.8799c0.0574-0.8639,0.2443-1.6772,0.5615-2.4405
				c0.3165-0.7626,0.7485-1.4321,1.2958-2.0085c0.5467-0.5757,1.202-1.0292,1.9653-1.3606
				c0.7626-0.3307,1.6198-0.4968,2.5701-0.4968c0.9212,0,1.7635,0.1661,2.5269,0.4968c0.7626,0.3314,1.4254,0.7775,1.9869,1.339
				s1.0077,1.2311,1.3391,2.0085c0.3307,0.7775,0.5251,1.5982,0.5831,2.4621H11.8845z M42.9861,29.0896l8.0198-10.723h-4.5956
				l-5.8121,8.1549l-5.5868-8.1549h-4.9109l8.1099,11.0384l-8.7407,12.2549h4.6407l6.4879-9.6417l6.4879,9.6417h4.9109
				L42.9861,29.0896z"/>
		</g>
	</g>
</g>
<g id="django" style="display:none;">
	<circle style="display:inline;fill-rule:evenodd;clip-rule:evenodd;fill:#0A3724;" cx="30" cy="30" r="30"/>
	<g id="Image_xA0_12" style="display:inline;">
		<g>
			<path style="fill-rule:evenodd;clip-rule:evenodd;fill:#FFFFFF;" d="M32.4666,12.5H26.228l-0.1193,10.3837
				c-0.9655-0.2537-1.7628-0.338-2.8119-0.338c-6.7564,0-11.1212,4.3126-11.1212,10.9513c0,6.8926,4.1127,10.4862,12.0027,10.4865
				c2.6437,0,4.9804-0.2537,8.2958-0.8879L32.4666,12.5z M26.1087,38.5714c-0.9232,0.1266-1.511,0.1688-2.2241,0.1688
				c-3.3154,0-5.1201-1.9026-5.1201-5.3702c0-3.5516,1.8887-5.5813,5.1621-5.5813c0.7973,0,1.4268,0.0845,2.1821,0.338V38.5714z
				 M35.5005,34.9799c0,5.5341-0.2872,7.6404-1.1891,9.4575c-0.8607,1.7766-2.2133,2.9326-5.0007,4.2541L35.1724,51.5
				c2.7871-1.4044,4.14-2.6843,5.1649-4.7084c1.1066-2.1064,1.4755-4.5429,1.4755-9.623l0.0115-15.4083h-6.2386L35.5005,34.9799z
				 M35.5858,12.5v6.2385h6.2386V12.5H35.5858z"/>
		</g>
	</g>
</g>
<g id="dart" style="display:none;">
	<g style="display:inline;">
		<g>
			<g>
				<g>
					<g>
						<path style="fill:#30C3BA;" d="M51.2092,51.2095C57.0358,45.3322,60,38.2794,60,30s-2.9642-15.3322-8.7908-21.2097
							C45.3322,2.9642,38.2794,0,30,0S14.6678,2.9642,8.7905,8.7903C2.9642,14.6678,0,21.7206,0,30s2.9642,15.3322,8.7905,21.2095
							C14.6678,57.0869,21.7206,60,30,60S45.3322,57.0869,51.2092,51.2095z"/>
					</g>
				</g>
			</g>
		</g>
	</g>
	<path style="display:inline;fill:#FFFFFF;" d="M41.7851,18.878c-0.6566-0.5466-2.0186-1.2955-3.4425-1.7601l-0.9372-2.6971
		L32.408,9.4697c-1.2687-1.004-2.1312-1.1014-3.168-0.8571L29.0904,8.647L16.787,17.4728L9.3887,29.682
		c-0.1657,0.5702-0.2034,1.5989,0.9652,2.77l4.3489,4.4312l1.9724,0.7211c0.0081,0.0406,0.0099,0.0742,0.0188,0.1156
		c0.0131,0.0613,0.0291,0.1242,0.0445,0.1876c0.0206,0.0851,0.0356,0.1644,0.0603,0.2536l0.1135,0.41l0.0117,0.0043
		c0.5387,1.6659,1.6236,3.6706,2.6124,4.4464L26.0391,49.5l15.2844-0.0925l1.8382-5.8109l5.5233-1.8003l0.0118-15.8714
		L41.7851,18.878z M29.7624,10.188c0.1496-0.035,0.2712-0.0613,0.3836-0.0613c0.106,0,0.4283,0,1.1665,0.5773l4.6574,4.6208
		l0.4806,1.3833l-16.3488,0.0034L29.7624,10.188z M18.2417,37.0173l-0.0135-17.4645l5.4701,5.5357l17.4688,17.4991l-3.7649,1.7182
		l-19.1084-6.9897C18.2755,37.2153,18.2493,37.1062,18.2417,37.0173z M40.1096,47.761l-13.3921,0.0818l-6.0859-6.0552
		c-0.5151-0.407-1.1476-1.4131-1.636-2.4544l18.4667,6.7545l3.6977-1.6452L40.1096,47.761z M47.0322,40.5964l-3.0417,0.9918
		l1.5858-3.653l-6.521-18.7664c0.6929,0.3176,1.2976,0.664,1.6107,0.9225l6.378,6.5082L47.0322,40.5964z"/>
</g>
<g id="datetimepicker" style="display:none;">
	<circle style="display:inline;fill:#5A3776;" cx="30" cy="30" r="30"/>
	<g id="calendar" style="display:inline;">
		<path style="fill:#FFFFFF;" d="M13.7083,22.9167v22.6667c0,0.7083,0.7083,1.4167,1.4167,1.4167h29.75
			c0.7083,0,1.4167-0.7083,1.4167-1.4167V22.9167H13.7083z M20.7917,44.1667h-4.25v-4.25h4.25V44.1667z M20.7917,38.5h-4.25v-4.25
			h4.25V38.5z M20.7917,32.8333h-4.25v-4.25h4.25V32.8333z M26.4583,44.1667h-4.25v-4.25h4.25V44.1667z M26.4583,38.5h-4.25v-4.25
			h4.25V38.5z M26.4583,32.8333h-4.25v-4.25h4.25V32.8333z M32.125,44.1667h-4.25v-4.25h4.25V44.1667z M32.125,38.5h-4.25v-4.25
			h4.25V38.5z M32.125,32.8333h-4.25v-4.25h4.25V32.8333z M37.7917,44.1667h-4.25v-4.25h4.25V44.1667z M37.7917,38.5h-4.25v-4.25
			h4.25V38.5z M37.7917,32.8333h-4.25v-4.25h4.25V32.8333z M43.4583,44.1667h-4.25v-4.25h4.25V44.1667z M43.4583,38.5h-4.25v-4.25
			h4.25V38.5z M43.4583,32.8333h-4.25v-4.25h4.25V32.8333z M46.2917,17.25v4.25H13.7083v-4.25c0-0.7083,0.7083-1.4167,1.4167-1.4167
			h2.8333v-1.4167c0-0.7083,0.7083-1.4167,1.4167-1.4167h1.4167c0.7083,0,1.4167,0.7083,1.4167,1.4167v1.4167h15.5833v-1.4167
			C37.7917,13.7083,38.5,13,39.2083,13h1.4167c0.7083,0,1.4167,0.7083,1.4167,1.4167v1.4167h2.8333
			C45.5833,15.8333,46.2917,16.5417,46.2917,17.25z"/>
	</g>
</g>
<g id="codeigniter" style="display:none;">
	<circle style="display:inline;fill-rule:evenodd;clip-rule:evenodd;fill:#FF3B00;" cx="30" cy="30" r="30"/>
	<g id="Image_xA0_11" style="display:inline;">
		<g>
			<path style="fill-rule:evenodd;clip-rule:evenodd;fill:#FFFFFF;" d="M38.2341,24.2075c0.1062,2.874-2.7123,4.6147-5.0276,1.8387
				c-2.1755-2.6092,0.4545-6.1605,0.7383-9.0898c0.3557-3.6726-2.1851-6.8239-4.8279-8.9564
				c1.4557,2.5439-0.4619,5.9086-1.9944,7.7889c-1.4869,1.825-3.2947,3.3479-4.9348,5.0034
				c-1.7628,1.7799-3.4586,3.6536-4.9076,5.7427c-2.8989,4.181-4.6733,9.4379-3.3675,14.6542
				c0.9543,3.8201,3.4527,6.6227,6.5762,8.3093c2.0767,1.366,1.1356-0.443,0.7686-0.8964
				c-1.0474-1.2943-1.7585-2.9061-1.7616-4.5389c-0.0049-3.1523,1.8427-5.8277,4.1404-7.5854
				c-0.2758,1.1286-0.4271,2.1603,0.2579,3.1696c0.6364,0.9384,1.7502,1.3932,2.803,1.1459
				c2.4598-0.5804,2.5732-3.5032,1.1139-5.2074c-1.4414-1.6848-2.836-3.5894-2.2871-6.0347
				c0.2736-1.2255,0.9711-2.3727,1.8529-3.1939c-0.6779,1.9272,1.25,3.8266,2.5174,4.7716
				c2.2036,1.6401,4.6179,2.8811,6.6436,4.8048c2.1282,2.0219,3.7009,4.7561,3.3853,7.9274
				c-0.2249,2.2371-1.3752,4.0317-2.9324,5.3446c-0.4122,0.2886-0.2088,0.5772,0.5255,0.5392
				c4.7684-2.2073,8.9014-6.629,9.0051-12.4822C46.6257,31.3554,42.8779,26.8103,38.2341,24.2075z"/>
		</g>
	</g>
</g>
<g id="css3" style="display:none;">
	<circle style="display:inline;fill:#1572B6;" cx="30" cy="30" r="30"/>
	<polygon style="display:inline;fill:#FFFFFF;" points="46.5,14.3466 30.0031,14.3466 29.9803,14.3466 13.5,14.3466 
		13.6575,16.1141 13.9577,19.454 14.0899,20.9348 14.1109,20.9348 29.9803,20.9348 30.0031,20.9348 39.3,20.9348 38.6979,27.681 
		29.9803,27.681 29.9803,27.6817 22.1462,27.6817 22.3036,29.4493 22.6041,32.7892 22.736,34.2698 22.757,34.2698 29.9803,34.2698 
		29.9803,34.2688 38.1129,34.2688 37.3447,42.8128 29.9969,44.7961 29.9969,44.7968 29.9909,44.7985 22.6537,42.8173 
		22.1846,37.5631 18.6195,37.5631 15.5715,37.5631 16.4944,47.907 29.9893,51.6534 30.0198,51.6449 30.0198,51.6439 43.5026,47.907 
		43.6017,46.7942 44.7228,34.2688 44.7228,34.2688 44.7264,34.2283 44.7478,33.9899 44.7477,33.9899 46.342,16.1141 	"/>
</g>
<g id="cakephp" style="display:none;">
	<circle style="display:inline;fill:#C82334;" cx="30" cy="30" r="30"/>
	<g id="Image_xA0_13" style="display:inline;">
		<g>
			<path style="fill-rule:evenodd;clip-rule:evenodd;fill:#FFFFFF;" d="M34.2723,34.5673l-0.0021,0.7065
				C34.5767,35.3586,34.3508,34.7585,34.2723,34.5673z M30.02,14c-9.8583,0-17.85,3.425-17.85,7.65l0.7963,8.7053
				c1.6753,2.2598,8.7047,4.1201,16.7734,4.1201c0.7742,0,1.8976,0.0076,2.8303,0.0153v4.9438
				c-0.933-0.0049-1.8584-0.0107-2.8303-0.0107c-7.7437,0-14.3704-3.8096-16.4677-6.6761l1.3642,8.2949
				C15.7584,45.2662,21.3745,48,30.02,48c4.0854,0,1.912-0.0039,4.2438-0.0039L34.2412,42.9H34.27v-3.217l11.7078,2.9577
				L47.83,21.3111C47.4133,17.2446,39.6113,14,30.02,14z M13.2989,21.4948c2.6562,7.0656,17.3718,5.3657,17.3718,5.3657
				l1.8594,2.4437C32.5301,29.3041,15.6364,29.7823,13.2989,21.4948z M43.4559,38.2283L34.27,35.9942v-1.4324
				c0.0012,0.0031,0.001,0.0024,0.0023,0.0056l0.0135-4.4674l9.5961,2.0098L43.4559,38.2283z M44.1709,29.9255l-10.5205-2.3138
				l-5.3014-7.1703l16.1752,3.8872C44.431,25.9858,44.3058,27.5632,44.1709,29.9255z"/>
		</g>
	</g>
</g>
<g id="c_x2B__x2B_">
	<g>
		<g>
			<g>
				<path style="fill:#888888;" d="M12.7148,19.779c2.0978-2.1037,4.7671-3.1553,8.008-3.1553c4.3356,0,7.5064,1.4104,9.511,4.2305
					c1.1076,1.5838,1.7018,3.1725,1.7837,4.7676h-5.4432c-0.3464-1.225-0.7914-2.1495-1.3333-2.7738
					c-0.9697-1.1098-2.407-1.6646-4.3108-1.6646c-1.9394,0-3.4693,0.7833-4.5888,2.3493c-1.1194,1.5666-1.6792,3.7829-1.6792,6.6494
					c0,2.867,0.591,5.0138,1.7718,6.4414c1.1814,1.4276,2.6828,2.1409,4.5037,2.1409c1.8672,0,3.2905-0.6125,4.2704-1.8376
					c0.5414-0.6588,0.9907-1.6474,1.3484-2.9651h5.4076c-0.466,2.7857-1.6582,5.0515-3.5754,6.797
					c-1.9173,1.7449-4.3738,2.6176-7.3691,2.6176c-3.7069,0-6.6208-1.1782-8.7423-3.5367
					c-2.1215-2.3693-3.1822-5.6177-3.1822-9.7443C9.0952,25.6337,10.3019,22.1951,12.7148,19.779z"/>
			</g>
			<polygon style="fill:#888888;" points="42.5988,30 39.4499,30 39.4499,26.8511 37.3506,26.8511 37.3506,30 34.2017,30 
				34.2017,32.0993 37.3506,32.0993 37.3506,35.2482 39.4499,35.2482 39.4499,32.0993 42.5988,32.0993 			"/>
			<polygon style="fill:#888888;" points="53.0952,30 49.9463,30 49.9463,26.8511 47.847,26.8511 47.847,30 44.6981,30 
				44.6981,32.0993 47.847,32.0993 47.847,35.2482 49.9463,35.2482 49.9463,32.0993 53.0952,32.0993 			"/>
		</g>
	</g>
</g>
</svg>
