<?xml version="1.0" encoding="iso-8859-1"?>
<!-- Generator: Adobe Illustrator 17.1.0, SVG Export Plug-In . SVG Version: 6.00 Build 0)  -->
<!DOCTYPE svg PUBLIC "-//W3C//DTD SVG 1.1//EN" "http://www.w3.org/Graphics/SVG/1.1/DTD/svg11.dtd">
<svg version="1.1" id="ruby" xmlns="http://www.w3.org/2000/svg" xmlns:xlink="http://www.w3.org/1999/xlink" x="0px" y="0px"
	 viewBox="0 0 60 60" style="enable-background:new 0 0 60 60;" xml:space="preserve">
<g>
	<g>
		<g id="Image_xA0_24">
			<g>
				<path style="fill-rule:evenodd;clip-rule:evenodd;fill:#888888;" d="M45.0845,45.0829l0.0396,0.0352l-0.0277-0.1912
					l2.0394-26.7004l-0.024,0.0439c0.083-2.9024-0.9347-5.6858-4.3694-6.8216c1.8182,0.712,2.1025,2.1154,2.5895,4.1793
					l-9.4587-1.4603l9.317,7.6195l-0.5085,0.9307l-11.6795,0.7816l3.5511,14.0662c0.0128-0.0134,0.025-0.0273,0.0378-0.0408
					l-0.0089,0.0117l0.3572,0.3171l6.2905,6.5239H27.2029c0.3445-0.1732,0.6818-0.3584,1.0182-0.5451l0.0128,0.0248
					c3.0223-1.6391,5.44-3.6085,7.6433-5.7228c0.2093-0.1917,0.4197-0.3817,0.627-0.576l-13.8329-4.444l-0.0005,0.0016
					l-0.0038-0.0012l10.317-9.5882l2.9335-9.3178l-0.062-0.0438l-0.0582-0.009l5.5682-3.0684
					c0.0019,0.0003,0.0035,0.0007,0.0054,0.001l0.0019-0.001l-9.9395-0.0452l-0.1348-0.0952l-7.853,2.939
					c-2.4741,2.3013-7.2753,6.8546-7.4484,6.9402c-0.1561,0.0797-2.6575,4.7883-4.1885,7.6703
					c-0.0427,0.0695-0.0884,0.1567-0.1354,0.2549c-0.0999,0.188-0.195,0.3671-0.284,0.5345l0.0375,0.1063
					c-0.3363,1.0663-0.6677,3.0258-0.6677,6.627c0,1.6304,0.152,3.1575,0.3298,4.3937c0.0606,0.7368,0.1765,1.3917,0.3419,1.9697
					c0.1239,0.6004,0.2155,0.9498,0.2155,0.9498l0.0995-0.0547c1.4817,3.4512,4.9112,3.6048,6.6637,3.6552l-0.0163,0.0141
					l26.6874-1.8109l0.001-0.0134l0.0737-0.0049l-0.0734,0.0011L45.0845,45.0829z M13.4778,35.2228
					c-0.0023,0.0002-0.0079-0.0089-0.0098-0.0076l-0.0025,0.0301l-1.2988,2.3757c-0.3502-2.14-0.5942-4.726-0.3846-7.2199
					l1.6982,4.817L13.4778,35.2228z M18.5309,46.8283l-0.0454,0.0392l-0.6329-1.4782c-1.5755-3.916-3.9709-9.8188-4.3422-10.1409
					l-0.0095-0.0222l9.0883-2.0391l0.0771-0.0717l0.0029,0.0057L18.5309,46.8283z M44.6364,41.8058l-1.6475-12.296l2.8128-5.7059
					L44.6364,41.8058z"/>
			</g>
		</g>
	</g>
</g>
</svg>
