<?xml version="1.0" encoding="iso-8859-1"?>
<!-- Generator: Adobe Illustrator 17.1.0, SVG Export Plug-In . SVG Version: 6.00 Build 0)  -->
<!DOCTYPE svg PUBLIC "-//W3C//DTD SVG 1.1//EN" "http://www.w3.org/Graphics/SVG/1.1/DTD/svg11.dtd">
<svg version="1.1" id="jqueryui" xmlns="http://www.w3.org/2000/svg" xmlns:xlink="http://www.w3.org/1999/xlink" x="0px" y="0px"
	 viewBox="0 0 60 60" style="enable-background:new 0 0 60 60;" xml:space="preserve">
<g>
	<path style="fill:#888888;" d="M45.5554,14.5346H14.4447c-2.4549,0-4.4447,1.9665-4.4447,4.393h0.0001v13.1782
		c0,9.7038,7.9593,17.57,17.7777,17.57h4.4446c9.8188,0,17.7777-7.8662,17.7777-17.57V18.9277
		C50,16.5012,48.0103,14.5346,45.5554,14.5346z M30.0005,43.0876c-7.3644,0-13.3339-5.9005-13.3339-13.1782h0v-6.5896h6.6673v6.5896
		c0,3.6384,2.9844,6.5891,6.6666,6.5891c3.6812,0,6.6656-2.9507,6.6656-6.5891h6.6674
		C43.3335,37.1871,37.3638,43.0876,30.0005,43.0876z M43.222,27.7124l-6.444-1.6465l1.5556-6.3696l6.5555,1.647L43.222,27.7124z"/>
</g>
</svg>
