<?xml version="1.0" encoding="iso-8859-1"?>
<!-- Generator: Adobe Illustrator 17.1.0, SVG Export Plug-In . SVG Version: 6.00 Build 0)  -->
<!DOCTYPE svg PUBLIC "-//W3C//DTD SVG 1.1//EN" "http://www.w3.org/Graphics/SVG/1.1/DTD/svg11.dtd">
<svg version="1.1" id="c" xmlns="http://www.w3.org/2000/svg" xmlns:xlink="http://www.w3.org/1999/xlink" x="0px" y="0px"
	 viewBox="0 0 60 60" style="enable-background:new 0 0 60 60;" xml:space="preserve">
<g>
	<path style="fill:#888888;" d="M37.0789,25.678c0,0-0.5454-5.085-5.5908-5.2262c-5.0454-0.1412-7.6366,3.8138-7.6366,9.4637
		s2.8637,10.1702,7.7728,10.1702c4.9092,0,5.4546-5.65,5.4546-5.65l9.4091,0.5649c0,0,0.554,5.1029-3.3833,8.9961
		c-3.9375,3.8929-8.7703,4.5289-12.1454,4.5025c-3.375-0.0269-8.0545,0.0529-12.5797-4.5819s-5.2931-9.1373-5.2931-13.5601
		c0-4.4231,0.8582-10.2823,6.2387-14.7255C22.9819,12.6124,26.6888,11.5,30.3963,11.5c15.4777,0,16.5173,14.2753,16.5173,14.2753
		L37.0789,25.678z"/>
</g>
</svg>
