<?xml version="1.0" encoding="iso-8859-1"?>
<!-- Generator: Adobe Illustrator 17.1.0, SVG Export Plug-In . SVG Version: 6.00 Build 0)  -->
<!DOCTYPE svg PUBLIC "-//W3C//DTD SVG 1.1//EN" "http://www.w3.org/Graphics/SVG/1.1/DTD/svg11.dtd">
<svg version="1.1" id="css3" xmlns="http://www.w3.org/2000/svg" xmlns:xlink="http://www.w3.org/1999/xlink" x="0px" y="0px"
	 viewBox="0 0 60 60" style="enable-background:new 0 0 60 60;" xml:space="preserve">
<polygon style="fill:#888888;" points="46.5,14.3466 30.0031,14.3466 29.9803,14.3466 13.5,14.3466 13.6575,16.1141 13.9577,19.454 
	14.0899,20.9348 14.1109,20.9348 29.9803,20.9348 30.0031,20.9348 39.3,20.9348 38.6979,27.681 29.9803,27.681 29.9803,27.6817 
	22.1462,27.6817 22.3036,29.4493 22.6041,32.7892 22.736,34.2698 22.757,34.2698 29.9803,34.2698 29.9803,34.2688 38.1129,34.2688 
	37.3447,42.8128 29.9969,44.7961 29.9969,44.7968 29.9909,44.7985 22.6537,42.8173 22.1846,37.5631 18.6195,37.5631 
	15.5715,37.5631 16.4944,47.907 29.9893,51.6534 30.0198,51.6449 30.0198,51.6439 43.5026,47.907 43.6017,46.7942 44.7228,34.2688 
	44.7228,34.2688 44.7264,34.2283 44.7478,33.9899 44.7477,33.9899 46.342,16.1141 "/>
</svg>
