<?xml version="1.0" encoding="iso-8859-1"?>
<!-- Generator: Adobe Illustrator 17.1.0, SVG Export Plug-In . SVG Version: 6.00 Build 0)  -->
<!DOCTYPE svg PUBLIC "-//W3C//DTD SVG 1.1//EN" "http://www.w3.org/Graphics/SVG/1.1/DTD/svg11.dtd">
<svg version="1.1" id="django" xmlns="http://www.w3.org/2000/svg" xmlns:xlink="http://www.w3.org/1999/xlink" x="0px" y="0px"
	 viewBox="0 0 60 60" style="enable-background:new 0 0 60 60;" xml:space="preserve">
<g id="Image_xA0_12">
	<g>
		<path style="fill-rule:evenodd;clip-rule:evenodd;fill:#888888;" d="M32.4666,12.5H26.228l-0.1193,10.3837
			c-0.9655-0.2537-1.7628-0.338-2.8119-0.338c-6.7564,0-11.1212,4.3126-11.1212,10.9513c0,6.8926,4.1127,10.4862,12.0027,10.4865
			c2.6437,0,4.9804-0.2537,8.2958-0.8879L32.4666,12.5z M26.1087,38.5714c-0.9232,0.1266-1.511,0.1688-2.2241,0.1688
			c-3.3154,0-5.1201-1.9026-5.1201-5.3702c0-3.5516,1.8887-5.5813,5.1621-5.5813c0.7973,0,1.4268,0.0845,2.1821,0.338V38.5714z
			 M35.5005,34.9799c0,5.5341-0.2872,7.6404-1.1891,9.4575c-0.8607,1.7766-2.2133,2.9326-5.0007,4.2541L35.1724,51.5
			c2.7871-1.4044,4.14-2.6843,5.1649-4.7084c1.1066-2.1064,1.4755-4.5429,1.4755-9.623l0.0115-15.4083h-6.2386L35.5005,34.9799z
			 M35.5858,12.5v6.2385h6.2386V12.5H35.5858z"/>
	</g>
</g>
</svg>
