<?xml version="1.0" encoding="iso-8859-1"?>
<!-- Generator: Adobe Illustrator 17.1.0, SVG Export Plug-In . SVG Version: 6.00 Build 0)  -->
<!DOCTYPE svg PUBLIC "-//W3C//DTD SVG 1.1//EN" "http://www.w3.org/Graphics/SVG/1.1/DTD/svg11.dtd">
<svg version="1.1" id="Layer_1" xmlns="http://www.w3.org/2000/svg" xmlns:xlink="http://www.w3.org/1999/xlink" x="0px" y="0px"
	 viewBox="0 0 60 60" style="enable-background:new 0 0 60 60;" xml:space="preserve">
<g id="highcharts">
	<path style="fill:#888888;" d="M30,9c-2.9049,0-5.6719,0.5902-8.1881,1.6566c-3.6758,4.8213-7.4509,11.6-1.0752,21.9138
		l5.8199-11.2032l6.1109,12.1732c0,0,4.8499-9.4087,8.6328-8.8268v1.067c0,0-7.2447,10.79-6.6627,14.2819l-1.8731-2.8362
		c0,0-0.97,5.7229-0.97,6.8868l-5.8199-13.0947l-3.1039,7.7598c-6.8521-3.5973-9.3944-5.307-13.7019-11.4005
		C9.0616,28.2375,9,29.1113,9,30c0,11.598,9.402,21,21,21s21-9.402,21-21S41.598,9,30,9z"/>
</g>
</svg>
