<?xml version="1.0" encoding="iso-8859-1"?>
<!-- Generator: Adobe Illustrator 17.1.0, SVG Export Plug-In . SVG Version: 6.00 Build 0)  -->
<!DOCTYPE svg PUBLIC "-//W3C//DTD SVG 1.1//EN" "http://www.w3.org/Graphics/SVG/1.1/DTD/svg11.dtd">
<svg version="1.1" id="node_mongo" xmlns="http://www.w3.org/2000/svg" xmlns:xlink="http://www.w3.org/1999/xlink" x="0px" y="0px"
	 viewBox="0 0 60 60" style="enable-background:new 0 0 60 60;" xml:space="preserve">
<g>
	<g id="Image_xA0_16_2_">
		<g>
			<path style="fill-rule:evenodd;clip-rule:evenodd;fill:#888888;" d="M29.407,36.2015c-0.1435-8.048,0.032-16.5417,0.1137-19.8138
				c-0.124,0.2018-0.2847,0.408-0.498,0.5976c-0.8175,0.7263-5.2642,5.2665-5.5128,12.1606
				c-0.1949,5.4069,2.5562,8.822,4.203,10.4091c0.2744-0.214,1.2943-1.1011,1.7722-2.5525
				C29.4397,36.7561,29.407,36.4956,29.407,36.2015z M36.4811,29.0648c-0.2309-4.8131-2.2693-8.3649-5.3507-11.6742
				c-1.1033-1.185-1.2161-2.1078-1.2161-2.1078s-0.0281,0.3045-0.1885,0.6967c0.4449,2.8277,1.5974,11.2292,1.2018,20.2209
				c-0.0051,2.741,1.5815,3.4075,1.5815,3.4075s0.0146,0.0048,0.0361,0.0125C34.0971,38.0437,36.7494,34.6573,36.4811,29.0648z
				 M30.0562,38.3801c-0.423,0.7684-1.0621,1.1147-1.7402,1.7263c0.1746,0.1498,0.324,0.2719,0.4246,0.3529
				c0.4687,1.3307,0.6057,4.2579,0.6057,4.2579l1.2165-0.2433c0,0,0.3464-3.2554,0.9733-3.8929
				c0.0978-0.0995,0.3019-0.279,0.5624-0.5238C31.6617,39.6643,30.7036,39.2758,30.0562,38.3801z"/>
		</g>
	</g>
	<path style="fill:#888888;" d="M47.8063,17.7569L31.693,8.4447c-1.0118-0.5772-2.3679-0.5772-3.3873,0l-16.1152,9.3122
		c-1.0439,0.6011-1.6905,1.729-1.6905,2.9376v18.5986c0,1.2073,0.6472,2.3364,1.6905,2.9382l16.114,9.3046
		c0.516,0.2984,1.1014,0.4523,1.6905,0.4523c0.5967,0,1.1815-0.1539,1.6981-0.4529l16.1133-9.3047
		C48.851,41.6238,49.5,40.4998,49.5,39.2924v-18.598C49.5,19.4859,48.8503,18.3606,47.8063,17.7569z M46.606,39.2937
		c0,0.1779-0.0971,0.3488-0.2466,0.4346l-16.1152,9.3015c-0.1381,0.0839-0.3494,0.0839-0.4996,0L15.1578,40.597l-1.5127-0.8744
		c-0.1552-0.0845-0.2535-0.2523-0.2535-0.4302v-18.598c0-0.1766,0.0984-0.352,0.2548-0.4415l16.1051-9.2958
		c0.1489-0.087,0.3476-0.087,0.4965,0l16.1083,9.2933c0.1533,0.0921,0.2498,0.2618,0.2498,0.4441V39.2937z"/>
</g>
</svg>
