<?xml version="1.0" encoding="iso-8859-1"?>
<!-- Generator: Adobe Illustrator 17.1.0, SVG Export Plug-In . SVG Version: 6.00 Build 0)  -->
<!DOCTYPE svg PUBLIC "-//W3C//DTD SVG 1.1//EN" "http://www.w3.org/Graphics/SVG/1.1/DTD/svg11.dtd">
<svg version="1.1" id="codeigniter" xmlns="http://www.w3.org/2000/svg" xmlns:xlink="http://www.w3.org/1999/xlink" x="0px"
	 y="0px" viewBox="0 0 60 60" style="enable-background:new 0 0 60 60;" xml:space="preserve">
<g id="Image_xA0_11">
	<g>
		<path style="fill-rule:evenodd;clip-rule:evenodd;fill:#888888;" d="M38.2341,24.2075c0.1062,2.874-2.7123,4.6147-5.0276,1.8387
			c-2.1755-2.6092,0.4545-6.1605,0.7383-9.0898c0.3557-3.6726-2.1851-6.8239-4.8279-8.9564
			c1.4557,2.5439-0.4619,5.9086-1.9944,7.7889c-1.4869,1.825-3.2947,3.3479-4.9348,5.0034
			c-1.7628,1.7799-3.4586,3.6536-4.9076,5.7427c-2.8989,4.181-4.6733,9.4379-3.3675,14.6542
			c0.9543,3.8201,3.4527,6.6227,6.5762,8.3093c2.0767,1.366,1.1356-0.443,0.7686-0.8964c-1.0474-1.2943-1.7585-2.9061-1.7616-4.5389
			c-0.0049-3.1523,1.8427-5.8277,4.1404-7.5854c-0.2758,1.1286-0.4271,2.1603,0.2579,3.1696
			c0.6364,0.9384,1.7502,1.3932,2.803,1.1459c2.4598-0.5804,2.5732-3.5032,1.1139-5.2074c-1.4414-1.6848-2.836-3.5894-2.2871-6.0347
			c0.2736-1.2255,0.9711-2.3727,1.8529-3.1939c-0.6779,1.9272,1.25,3.8266,2.5174,4.7716c2.2036,1.6401,4.6179,2.8811,6.6436,4.8048
			c2.1282,2.0219,3.7009,4.7561,3.3853,7.9274c-0.2249,2.2371-1.3752,4.0317-2.9324,5.3446
			c-0.4122,0.2886-0.2088,0.5772,0.5255,0.5392c4.7684-2.2073,8.9014-6.629,9.0051-12.4822
			C46.6257,31.3554,42.8779,26.8103,38.2341,24.2075z"/>
	</g>
</g>
</svg>
