<?xml version="1.0" encoding="iso-8859-1"?>
<!-- Generator: Adobe Illustrator 17.1.0, SVG Export Plug-In . SVG Version: 6.00 Build 0)  -->
<!DOCTYPE svg PUBLIC "-//W3C//DTD SVG 1.1//EN" "http://www.w3.org/Graphics/SVG/1.1/DTD/svg11.dtd">
<svg version="1.1" id="redis" xmlns="http://www.w3.org/2000/svg" xmlns:xlink="http://www.w3.org/1999/xlink" x="0px" y="0px"
	 viewBox="0 0 60 60" style="enable-background:new 0 0 60 60;" xml:space="preserve">
<g id="Image_xA0_21">
	<g>
		<path style="fill-rule:evenodd;clip-rule:evenodd;fill:#888888;" d="M48.2808,28.6672
			c-2.117,1.1035-13.0839,5.6127-15.4186,6.8302c-2.3348,1.217-3.6319,1.2052-5.4763,0.3234
			c-1.8446-0.8812-13.5151-5.5961-15.6174-6.6007c-1.0507-0.5021-1.5871-0.926-1.6032-1.3255c0,0,0,3.6109,0,4.0103
			c0,0.4005,0.5524,0.8237,1.6032,1.326c2.1023,1.0049,13.7728,5.7195,15.6174,6.6007c1.8444,0.8817,3.1414,0.8936,5.4763-0.3234
			c2.3348-1.2175,13.3016-5.7267,15.4186-6.8302c1.0776-0.5615,1.5536-0.9965,1.5533-1.3926c0-0.3722,0.0009-3.9534,0.0009-3.9534
			c-0.0024-0.0009-0.0068-0.0021-0.0093-0.0029C49.8104,27.7089,49.3099,28.1308,48.2808,28.6672z M11.7685,26.4504
			c2.1023,1.0046,13.7728,5.7195,15.6174,6.6007c1.8444,0.8818,3.1414,0.8936,5.4763-0.3234
			c2.3348-1.2175,13.3016-5.7269,15.4186-6.8304c1.0776-0.5616,1.5536-0.9965,1.5533-1.3925c0-0.3719,0.0009-3.9532,0.0009-3.9532
			c-0.0024-0.0009-0.0069-0.0021-0.0093-0.0029c0.0165-0.4016-0.5101-0.7559-1.5706-1.1442
			c-2.0629-0.7558-12.9642-5.0947-15.0519-5.8594c-2.0873-0.7649-2.9383-0.7332-5.3911,0.1469
			c-2.4533,0.8801-14.0599,5.4335-16.1248,6.2422c-1.0331,0.4046-1.5382,0.7799-1.522,1.1797l-0.0001,0.0001c0,0,0,3.6106,0,4.0103
			C10.1653,25.5247,10.7177,25.9482,11.7685,26.4504z M30.7859,27.0078l-6.417-2.6608l9.1927-1.4111L30.7859,27.0078z
			 M44.7004,20.6816l-5.4368,2.1464l-0.5889,0.2323l-5.4338-2.1494l6.0196-2.381L44.7004,20.6816z M28.7396,16.7415l-0.8885-1.6392
			l2.772,1.0848l2.6158-0.8556l-0.708,1.6949l2.6657,0.9976l-3.436,0.3566l-0.77,1.8525l-1.2441-2.0664l-3.9689-0.3566
			L28.7396,16.7415z M21.8915,19.0541c2.7135,0,4.9133,0.8527,4.9133,1.9045c0,1.0519-2.1998,1.9045-4.9133,1.9045
			c-2.7136,0-4.9133-0.8527-4.9133-1.9045C16.9782,19.9068,19.1779,19.0541,21.8915,19.0541z M48.2808,35.2059
			c-2.117,1.103-13.0839,5.6127-15.4186,6.8297c-2.3348,1.2175-3.6319,1.2056-5.4763,0.3239
			c-1.8446-0.8813-13.5151-5.5963-15.6174-6.6007c-1.0506-0.5022-1.587-0.9261-1.6031-1.3255h-0.0001c0,0,0,3.6104,0,4.0099
			c0,0.4004,0.5524,0.8241,1.6032,1.3264c2.1023,1.0048,13.773,5.719,15.6174,6.6007s3.1414,0.8936,5.4763-0.3239
			c2.3348-1.2171,13.3016-5.7262,15.4186-6.8297c1.0776-0.5615,1.5536-0.9965,1.5533-1.3929c0-0.3718,0.0009-3.953,0.0009-3.953
			c-0.0024-0.0009-0.0069-0.002-0.0093-0.0029C49.8102,34.2477,49.3098,34.6696,48.2808,35.2059z"/>
	</g>
</g>
</svg>
