<?xml version="1.0" encoding="iso-8859-1"?>
<!-- Generator: Adobe Illustrator 17.1.0, SVG Export Plug-In . SVG Version: 6.00 Build 0)  -->
<!DOCTYPE svg PUBLIC "-//W3C//DTD SVG 1.1//EN" "http://www.w3.org/Graphics/SVG/1.1/DTD/svg11.dtd">
<svg version="1.1" id="socketio" xmlns="http://www.w3.org/2000/svg" xmlns:xlink="http://www.w3.org/1999/xlink" x="0px" y="0px"
	 viewBox="0 0 60 60" style="enable-background:new 0 0 60 60;" xml:space="preserve">
<g>
	<path style="fill:none;stroke:#64FFFF;stroke-width:1.0526;stroke-miterlimit:10;" d="M14.3202,14.8904"/>
	<path style="fill:#888888;stroke:#64FFFF;stroke-width:1.0526;stroke-miterlimit:10;" d="M42.2368,42.807"/>
	<g>
		<path style="fill:#888888;" d="M22.0916,17.3214c1.0939,0,1.4165,0,1.5009,0v-2.1429h-5.2894h-5.4249v2.1429
			c0.0413,0,0.3031,0,1.6363,0c1.8943,0,1.578,0.1785,1.578,3.2304v17.8181c0,3.0518,0.3163,3.5944-1.578,3.5944
			c-1.3332,0-1.595,0-1.6363,0v2.1429h5.4249h5.2894v-2.1429c-0.0844,0-0.407,0-1.5009,0c-1.8943,0-1.7134-0.5426-1.7134-3.5944
			V20.5518C20.3782,17.4999,20.1973,17.3214,22.0916,17.3214z"/>
		<g id="Image_xA0_27">
			<g>
				<path style="fill-rule:evenodd;clip-rule:evenodd;fill:#888888;" d="M37.5298,15c-7.3096,0-13.2353,6.7157-13.2353,15
					c0,8.2842,5.9257,15,13.2353,15s13.2352-6.7158,13.2352-15C50.7651,21.7157,44.8395,15,37.5298,15z M37.5298,43.2353
					c-4.3858,0-7.9412-5.9257-7.9412-13.2353c0-7.3097,3.5554-13.2353,7.9412-13.2353c4.3857,0,7.9411,5.9256,7.9411,13.2353
					C45.4709,37.3096,41.9156,43.2353,37.5298,43.2353z"/>
			</g>
		</g>
	</g>
</g>
</svg>
