<?xml version="1.0" encoding="iso-8859-1"?>
<!-- Generator: Adobe Illustrator 17.1.0, SVG Export Plug-In . SVG Version: 6.00 Build 0)  -->
<!DOCTYPE svg PUBLIC "-//W3C//DTD SVG 1.1//EN" "http://www.w3.org/Graphics/SVG/1.1/DTD/svg11.dtd">
<svg version="1.1" id="Layer_1" xmlns="http://www.w3.org/2000/svg" xmlns:xlink="http://www.w3.org/1999/xlink" x="0px" y="0px"
	 viewBox="0 0 60 60" style="enable-background:new 0 0 60 60;" xml:space="preserve">
<g id="flask">
	<g id="Image_xA0_22">
		<g>
			<path style="fill:#888888;" d="M28.7082,19.7502c0.6037,0.0848,2.3066,0.2807,3.101,0.6783s1.8945-0.8769,1.202-1.474
				c-0.7954-0.6646-1.3873-0.8571-4.1814-1.7784c-0.9313-0.301-1.6596-1.6161-3.1837-2.2177
				c-0.4874-0.1924-1.9161,0.1109-2.42-0.046c-0.3135-0.0976-0.0098-0.9262-0.323-0.9769
				c-0.3314-0.6516-1.1186,0.2892-1.4574-0.0452c-0.1605-0.1584-0.4634-0.8368-0.769-1.4991
				c0.3765-0.4027,0.6174-0.9353,0.6174-1.5301c0-1.2443-1.0087-2.253-2.253-2.253s-2.253,1.0087-2.253,2.253
				c0,1.1486,0.8724,2.0596,1.9833,2.1985c0.1085,0.4173,0.1939,0.8863,0.2428,1.2998c0.1003,0.8478-1.2636,0.5864-1.3682,1.0045
				c-0.0734,0.2938-0.1632,1.3123-0.4809,1.8774c-0.2643,0.4704-1.755,0.4666-2.1315,0.9641
				c-0.3044,0.4022-0.4418,1.429-0.1707,1.7068c-1.5314,1.0602-3.4163,3.4457-1.6493,3.4457
				c1.5315-1.5314,7.8929-3.7697,10.7202-4.0053C25.2225,19.2454,27.2853,19.5503,28.7082,19.7502z M42.7825,43.267
				c-7.0682-1.7671-8.5997-4.241-11.3092-7.0682c-3.5162-3.6691-3.0629-14.696-3.0629-14.696s-3.0629-0.6185-6.1258-0.0295
				c-3.0629,0.5891-7.6425,2.6064-7.6425,2.6064s0.4565,7.2891,6.3467,15.1819c5.8902,7.8929,14.1365,8.4819,19.7911,8.0107
				c5.4003-0.45,10.7202-1.8848,10.7202-3.2985C51.5,42.5601,49.8508,45.034,42.7825,43.267z"/>
		</g>
	</g>
</g>
</svg>
