<?xml version="1.0" encoding="iso-8859-1"?>
<!-- Generator: Adobe Illustrator 17.1.0, SVG Export Plug-In . SVG Version: 6.00 Build 0)  -->
<!DOCTYPE svg PUBLIC "-//W3C//DTD SVG 1.1//EN" "http://www.w3.org/Graphics/SVG/1.1/DTD/svg11.dtd">
<svg version="1.1" id="mysql" xmlns="http://www.w3.org/2000/svg" xmlns:xlink="http://www.w3.org/1999/xlink" x="0px" y="0px"
	 viewBox="0 0 60 60" style="enable-background:new 0 0 60 60;" xml:space="preserve">
<g id="Image_xA0_15">
	<g>
		<path style="fill-rule:evenodd;clip-rule:evenodd;fill:#888888;" d="M39.8276,39.8276c0-5.2032-4.0562-9.4183-9.1724-9.7615
			V29.934C30.4345,29.9487,30.2244,30,30,30c-5.4276,0-9.8276-4.4-9.8276-9.8276c0-5.2024,4.055-9.4169,9.17-9.7614
			C19.1021,11.0895,11,19.5879,11,30c0,10.412,8.1021,18.9105,18.3425,19.5889c0.2214,0.0149,0.4323,0.0663,0.6575,0.0663
			c0.0749,0,0.1442-0.0204,0.2186-0.022c0.1466,0.0032,0.2892,0.022,0.4365,0.022v-0.066
			C35.7714,49.2458,39.8276,45.0308,39.8276,39.8276z M30.6552,46.7926v0.067c-0.1495,0-0.2944-0.0186-0.443-0.0223
			C30.14,46.8394,30.0727,46.8586,30,46.8586c-0.2186,0-0.4244-0.0453-0.638-0.0643C20.56,46.1313,13.7955,38.9716,13.7955,30
			c0-4.1684,1.3263-7.9828,3.8122-10.9434c-0.0328,0.3682-0.0563,0.7391-0.0563,1.1158c0,6.8751,5.5734,12.7119,12.4486,12.7119
			c0.2212,0,0.4368-0.0217,0.6552-0.0331v0.0991c3.668,0.3359,6.2881,3.1216,6.2881,6.8773
			C36.9433,43.5832,34.3232,46.4567,30.6552,46.7926z M30.6552,10.4109v-0.0661c-0.1371,0-0.2703,0.0157-0.4063,0.0206
			c0.1276,0.015,0.2545,0.0322,0.3834,0.0432C30.64,10.4092,30.6475,10.4103,30.6552,10.4109z M30.6498,10.4107
			c-0.0059-0.0004-0.0117-0.0016-0.0176-0.0021c-0.1387-0.0114-0.2727-0.0386-0.4136-0.0417
			c0.0101-0.0002,0.0201-0.0012,0.0302-0.0015c-0.0821-0.0097-0.164-0.0201-0.2488-0.0201c-0.074,0-0.1425,0.0199-0.2161,0.0218
			c-0.1474-0.0033-0.2908-0.0222-0.439-0.0222v0.0665c-4.392,0.3401-7.1158,4.2805-7.1158,8.4508
			c0,4.0405,2.7238,8.1107,7.1158,8.4508v0.0661c6.5133,0,12.4515,5.2801,12.4515,11.7935c0,3.3853-2.2431,6.7455-4.7381,8.9079
			C44.0786,45.0813,49,38.1166,49,30C49,19.5853,40.8938,11.0854,30.6498,10.4107z"/>
	</g>
</g>
</svg>
