<?xml version="1.0" encoding="iso-8859-1"?>
<!-- Generator: Adobe Illustrator 17.1.0, SVG Export Plug-In . SVG Version: 6.00 Build 0)  -->
<!DOCTYPE svg PUBLIC "-//W3C//DTD SVG 1.1//EN" "http://www.w3.org/Graphics/SVG/1.1/DTD/svg11.dtd">
<svg version="1.1" id="jquery" xmlns="http://www.w3.org/2000/svg" xmlns:xlink="http://www.w3.org/1999/xlink" x="0px" y="0px"
	 viewBox="0 0 60 60" style="enable-background:new 0 0 60 60;" xml:space="preserve">
<g>
	<path id="path6" style="fill:#888888;" d="M49.0658,38.3913c-5.766,6.3051-16.3812,6.9901-24.7734,1.2625
		c-8.6573-5.9087-11.822-16.5073-7.4737-24.2492c-0.9026,0.8315-1.7216,1.7723-2.4374,2.8209
		c-5.6333,8.254-2.7535,20.027,6.4322,26.2962c9.186,6.2693,21.1997,4.6609,26.8329-3.5929
		C48.2021,40.1144,48.6737,39.2655,49.0658,38.3913z"/>
	<path id="path8" style="fill:#888888;" d="M50.5,27.9203c-0.0126-0.015-0.1665,0.2423-0.2529,0.3603
		c-3.7334,5.1033-11.7794,5.8155-18.2206,1.5296c-6.5902-4.385-9.0041-12.3408-5.3919-17.7695
		c0.278-0.4178,0.5836-0.808,0.9138-1.1712c0.2593-0.285,0.5341-0.5529,0.8222-0.804c-0.3074,0.256-0.6059,0.5257-0.8943,0.8095
		c-0.7071,0.6962-1.3541,1.4746-1.9255,2.3335c-4.4765,6.7277-2.6521,15.8104,4.0755,20.2867
		c6.7275,4.4765,15.6994,2.5759,20.1762-4.1518C49.8026,29.3432,50.2146,28.6624,50.5,27.9203z"/>
	<path id="path10" style="fill:#888888;" d="M36.7395,23.471c3.7974,2.5917,8.7176,2.1289,11.5619-0.9031
		c0.2773-0.2958,0.5363-0.6149,0.7711-0.9592c0.3767-0.5519,0.6718-1.1365,0.8937-1.7402
		c-0.1033,0.1957-0.2166,0.3873-0.3437,0.5734c-0.437,0.6403-0.9837,1.1705-1.6092,1.591
		c-2.5901,1.7414-6.5471,1.5794-9.8232-0.6565c-3.6383-2.4831-5.2007-6.6804-3.8815-9.8948
		c0.1556-0.3789,0.3486-0.7448,0.5854-1.0919c0.1802-0.2642,0.3809-0.5079,0.5962-0.7348
		c-0.5681,0.4683-1.0786,1.0189-1.5113,1.6527c-0.0176,0.0258-0.0332,0.0525-0.0504,0.0785
		C31.354,15.2539,32.5993,20.6452,36.7395,23.471z"/>
</g>
</svg>
