<?xml version="1.0" encoding="iso-8859-1"?>
<!-- Generator: Adobe Illustrator 17.1.0, SVG Export Plug-In . SVG Version: 6.00 Build 0)  -->
<!DOCTYPE svg PUBLIC "-//W3C//DTD SVG 1.1//EN" "http://www.w3.org/Graphics/SVG/1.1/DTD/svg11.dtd">
<svg version="1.1" id="twilio" xmlns="http://www.w3.org/2000/svg" xmlns:xlink="http://www.w3.org/1999/xlink" x="0px" y="0px"
	 viewBox="0 0 60 60" style="enable-background:new 0 0 60 60;" xml:space="preserve">
<g>
	<g>
		<path style="fill:#888888;" d="M21.2495,14.2938c3.424,0,6.2097,2.7857,6.2097,6.2097s-2.7857,6.2097-6.2097,6.2097
			s-6.2097-2.7857-6.2097-6.2097S17.8254,14.2938,21.2495,14.2938 M21.2495,13.0001c-4.144,0-7.5034,3.3594-7.5034,7.5034
			s3.3594,7.5034,7.5034,7.5034s7.5034-3.3594,7.5034-7.5034S25.3935,13.0001,21.2495,13.0001L21.2495,13.0001z"/>
	</g>
	<g>
		<path style="fill:#888888;" d="M46.292,20.5034c0-2.0634-0.7501-3.8455-2.204-5.2993C42.5871,13.7503,40.8523,13,38.7887,13
			c-2.0636,0-3.8455,0.7503-5.2996,2.2041c-1.5004,1.4538-2.2037,3.2359-2.2037,5.2993s0.7033,3.8455,2.2037,5.2993
			c1.4541,1.4538,3.236,2.2042,5.2996,2.2042c2.0636,0,3.7984-0.7503,5.2993-2.2042C45.5419,24.349,46.292,22.5669,46.292,20.5034z"
			/>
	</g>
	<g>
		<path style="fill:#888888;" d="M28.7529,39.4966c0-2.0163-0.7034-3.7986-2.2038-5.2996
			c-1.5013-1.5004-3.2362-2.2038-5.3465-2.2038c-2.0168,0-3.7983,0.7034-5.2524,2.2038c-1.4541,1.501-2.2041,3.2834-2.2041,5.2996
			c0,2.11,0.7501,3.8455,2.2041,5.2993C17.4043,46.2962,19.1858,47,21.2026,47c2.1103,0,3.8452-0.7038,5.3465-2.2042
			C28.0494,43.3421,28.7529,41.6066,28.7529,39.4966z"/>
	</g>
</g>
<g>
	<path style="fill:#888888;" d="M38.7887,33.2868c3.424,0,6.2097,2.7857,6.2097,6.2097s-2.7857,6.2097-6.2097,6.2097
		s-6.2097-2.7857-6.2097-6.2097S35.3646,33.2868,38.7887,33.2868 M38.7887,31.9931c-4.144,0-7.5034,3.3594-7.5034,7.5034
		s3.3594,7.5034,7.5034,7.5034c4.144,0,7.5034-3.3594,7.5034-7.5034S42.9327,31.9931,38.7887,31.9931L38.7887,31.9931z"/>
</g>
</svg>
