<?xml version="1.0" encoding="iso-8859-1"?>
<!-- Generator: Adobe Illustrator 17.1.0, SVG Export Plug-In . SVG Version: 6.00 Build 0)  -->
<!DOCTYPE svg PUBLIC "-//W3C//DTD SVG 1.1//EN" "http://www.w3.org/Graphics/SVG/1.1/DTD/svg11.dtd">
<svg version="1.1" id="add_your_own" xmlns="http://www.w3.org/2000/svg" xmlns:xlink="http://www.w3.org/1999/xlink" x="0px"
	 y="0px" viewBox="0 0 60 60" style="enable-background:new 0 0 60 60;" xml:space="preserve">
<g id="plus_2_">
	<path id="plus_1_" style="fill:#888888;" d="M47,27.45v5.1c0,0.5101-0.34,0.85-0.85,0.85H33.4v12.75c0,0.5101-0.34,0.85-0.85,0.85
		h-5.1c-0.51,0-0.85-0.5101-0.85-0.85V33.4H13.85c-0.51,0-0.85-0.5101-0.85-0.85v-5.1c0-0.5101,0.34-0.85,0.85-0.85H26.6V13.85
		c0-0.5101,0.34-0.85,0.85-0.85h5.1c0.51,0,0.85,0.3399,0.85,0.85V26.6h12.75C46.66,26.6,47,26.9399,47,27.45z"/>
</g>
</svg>
