<?xml version="1.0" encoding="iso-8859-1"?>
<!-- Generator: Adobe Illustrator 17.1.0, SVG Export Plug-In . SVG Version: 6.00 Build 0)  -->
<!DOCTYPE svg PUBLIC "-//W3C//DTD SVG 1.1//EN" "http://www.w3.org/Graphics/SVG/1.1/DTD/svg11.dtd">
<svg version="1.1" id="paypal" xmlns="http://www.w3.org/2000/svg" xmlns:xlink="http://www.w3.org/1999/xlink" x="0px" y="0px"
	 viewBox="0 0 60 60" style="enable-background:new 0 0 60 60;" xml:space="preserve">
<g id="Image_xA0_14">
	<g>
		<path style="fill-rule:evenodd;clip-rule:evenodd;fill:#888888;" d="M21.4215,43.1074l2.0668-9.8634h2.9442
			c2.5669-0.0015,4.3038-0.0604,5.3723-0.207c1.6629-0.2332,3.0281-0.5673,4.1376-1.0648c1.0939-0.4938,2.101-1.2134,3.0105-2.1279
			c0.9621-0.9699,1.7281-2.2115,2.336-3.6918c0.6222-1.5108,0.9378-3.087,0.9359-4.6953c0.0035-1.7476-0.401-3.3524-1.25-4.7037
			c-0.8275-1.3356-2.0239-2.3493-3.4691-2.9277C36.0614,13.246,34.2814,13.0034,32.1121,13H19.4303l-6.5322,31.1319h8.3068
			L21.4215,43.1074z M25.2238,20.2201h4.0036c0.1133-0.0012,0.2249-0.0018,0.334-0.0018c1.8735,0,3.2134,0.1389,3.6492,0.2437
			c0.0622,0.0148,0.1054,0.029,0.1301,0.0419c0.4277,0.1617,0.652,0.3456,0.8442,0.6147c0.1542,0.2289,0.286,0.5825,0.2885,1.2193
			c-0.0044,0.9824-0.2637,1.8069-0.8394,2.6461c-0.5732,0.8108-1.2985,1.3786-2.342,1.7753
			c-0.1041,0.0426-0.2341,0.0845-0.3889,0.1253c-1.0828,0.2838-3.3804,0.5096-6.584,0.5096h-0.6027L25.2238,20.2201z
			 M44.8074,20.2722c0.0342,0.387,0.0566,0.7789,0.0557,1.1812c0,16.3098-18.0394,14.9297-19.0518,14.9297
			c-0.0562,0.0562-2.5114,10.8322-2.5114,10.8322h-5.2684L17.7758,49h8.5316l0.2162-1.0254l2.0668-9.8635h2.7197
			c2.5663-0.002,4.3038-0.0603,5.3729-0.2064c1.6628-0.2327,3.0271-0.5677,4.1375-1.0654c1.0934-0.4933,2.1-1.2124,3.0095-2.1273
			c0.9627-0.9695,1.7282-2.2111,2.3366-3.6918c0.6221-1.511,0.9373-3.087,0.9353-4.6954
			C47.1019,22.7488,45.4263,21.0067,44.8074,20.2722z"/>
	</g>
</g>
</svg>
