<?xml version="1.0" encoding="iso-8859-1"?>
<!-- Generator: Adobe Illustrator 17.1.0, SVG Export Plug-In . SVG Version: 6.00 Build 0)  -->
<!DOCTYPE svg PUBLIC "-//W3C//DTD SVG 1.1//EN" "http://www.w3.org/Graphics/SVG/1.1/DTD/svg11.dtd">
<svg version="1.1" id="python" xmlns="http://www.w3.org/2000/svg" xmlns:xlink="http://www.w3.org/1999/xlink" x="0px" y="0px"
	 viewBox="0 0 60 60" style="enable-background:new 0 0 60 60;" xml:space="preserve">
<g id="Image_xA0_7">
	<g>
		<path style="fill-rule:evenodd;clip-rule:evenodd;fill:#888888;" d="M34.0714,27.2009c2.2486,0,4.0715-1.8228,4.0715-4.0714
			c0-3.6058,0-6.7009,0-6.7009s-0.0143-2.7285-1.3572-4.0714C35.4146,10.986,31.3571,11,31.3571,11s-6.192,0-6.7857,0
			S21.844,11.6983,20.5,13.7143c-1.3701,2.0551-1.3571,5.4285-1.3571,5.4285h10.1785c0.3748,0,0.6786,0.3038,0.6786,0.6786
			S29.6962,20.5,29.3214,20.5H17.7857c0,0-6.7857-0.0848-6.7857,9.5c0,9.5848,5.4286,9.5,5.4286,9.5s0-3.9545,0-5.5134
			c0-3.7476,3.038-6.7857,6.7857-6.7857H34.0714z M23.5112,17.0223c-0.9135,0-1.6541-0.7405-1.6541-1.654s0.7405-1.654,1.6541-1.654
			c0.9135,0,1.654,0.7405,1.654,1.654S24.4246,17.0223,23.5112,17.0223z M43.5714,20.5c0,0,0,3.8696,0,5.4285
			c0,3.7477-3.038,6.7858-6.7857,6.7858H25.9286c-2.2486,0-4.0715,1.8228-4.0715,4.0714c0,3.6058,0,6.7857,0,6.7857
			s0.0143,2.7285,1.3572,4.0714C24.5854,49.014,27.2857,49,27.2857,49s7.5491,0,8.1429,0s2.7274-0.6983,4.0714-2.7143
			c1.3701-2.0551,1.3571-5.4286,1.3571-5.4286H30.6786c-0.3748,0-0.6786-0.3038-0.6786-0.6786c0-0.3748,0.3038-0.6785,0.6786-0.6785
			h11.5357c0,0,6.7857,0.0848,6.7857-9.5C49,20.4152,43.5714,20.5,43.5714,20.5z M36.4888,42.9777
			c0.9135,0,1.6541,0.7405,1.6541,1.654c0,0.9135-0.7405,1.6541-1.6541,1.6541c-0.9135,0-1.654-0.7405-1.654-1.6541
			C34.8348,43.7182,35.5754,42.9777,36.4888,42.9777z"/>
	</g>
</g>
</svg>
