<?xml version="1.0" encoding="iso-8859-1"?>
<!-- Generator: Adobe Illustrator 17.1.0, SVG Export Plug-In . SVG Version: 6.00 Build 0)  -->
<!DOCTYPE svg PUBLIC "-//W3C//DTD SVG 1.1//EN" "http://www.w3.org/Graphics/SVG/1.1/DTD/svg11.dtd">
<svg version="1.1" id="Layer_1" xmlns="http://www.w3.org/2000/svg" xmlns:xlink="http://www.w3.org/1999/xlink" x="0px" y="0px"
	 viewBox="0 0 60 60" style="enable-background:new 0 0 60 60;" xml:space="preserve">
<g id="express">
	<g id="Image_xA0_23">
		<g>
			<path style="fill:#888888;" d="M26.5921,22.6966c-0.7923-1.2668-1.8431-2.3109-3.1531-3.1315
				c-1.3107-0.8207-2.9588-1.231-4.9457-1.231c-1.5267,0-2.9304,0.2881-4.2114,0.8638c-1.2817,0.5764-2.3905,1.3823-3.3259,2.4189
				c-0.9361,1.0367-1.663,2.2609-2.1813,3.6715c-0.5183,1.4113-0.7775,2.9662-0.7775,4.665
				c0.0574,1.6994,0.3091,3.2686,0.7559,4.7081c0.4461,1.4402,1.1156,2.678,2.0085,3.7147
				c0.8922,1.0366,1.9937,1.8431,3.3044,2.4188c1.31,0.5757,2.8575,0.8639,4.6433,0.8639c2.5336,0,4.636-0.6331,6.3064-1.9005
				c1.6697-1.2668,2.7496-2.8173,3.2395-5.3226h-3.6283c-0.3172,1.4686-0.9719,2.2274-1.9653,2.9469
				c-0.9935,0.7201-2.2677,1.0798-3.8226,1.0798c-1.2095,0-2.261-0.2011-3.1532-0.6047c-0.8929-0.4029-1.6272-0.9428-2.2029-1.6198
				c-0.5764-0.6763-0.9935-1.4537-1.2526-2.3325c-0.2592-0.8781-0.3746-2.0306-0.3456-3.0099h16.7161
				c0.0574-1.3532-0.0648-2.5547-0.3671-4.0523C27.9312,25.3463,27.3838,23.9641,26.5921,22.6966z M11.8845,27.8799
				c0.0574-0.8639,0.2443-1.6772,0.5615-2.4405c0.3165-0.7626,0.7485-1.4321,1.2958-2.0085
				c0.5467-0.5757,1.202-1.0292,1.9653-1.3606c0.7626-0.3307,1.6198-0.4968,2.5701-0.4968c0.9212,0,1.7635,0.1661,2.5269,0.4968
				c0.7626,0.3314,1.4254,0.7775,1.9869,1.339s1.0077,1.2311,1.3391,2.0085c0.3307,0.7775,0.5251,1.5982,0.5831,2.4621
				C24.7132,27.8799,11.8845,27.8799,11.8845,27.8799z M42.9861,29.0896l8.0198-10.723h-4.5956l-5.8121,8.1549l-5.5868-8.1549
				h-4.9109l8.1099,11.0384l-8.7407,12.2549h4.6407l6.4879-9.6417l6.4879,9.6417h4.9109L42.9861,29.0896z"/>
		</g>
	</g>
</g>
</svg>
