<?xml version="1.0" encoding="iso-8859-1"?>
<!-- Generator: Adobe Illustrator 17.1.0, SVG Export Plug-In . SVG Version: 6.00 Build 0)  -->
<!DOCTYPE svg PUBLIC "-//W3C//DTD SVG 1.1//EN" "http://www.w3.org/Graphics/SVG/1.1/DTD/svg11.dtd">
<svg version="1.1" id="twitter" xmlns="http://www.w3.org/2000/svg" xmlns:xlink="http://www.w3.org/1999/xlink" x="0px" y="0px"
	 viewBox="0 0 60 60" style="enable-background:new 0 0 60 60;" xml:space="preserve">
<path style="fill:#888888;" d="M52,18.5945c-1.4717,0.6527-3.0532,1.0939-4.7134,1.2922c1.6944-1.0156,2.9957-2.6239,3.6083-4.5402
	c-1.5856,0.9404-3.3419,1.6234-5.2112,1.9915c-1.497-1.595-3.6298-2.5916-5.99-2.5916c-4.5324,0-8.2067,3.6744-8.2067,8.2063
	c0,0.6433,0.0726,1.2695,0.2125,1.8702c-6.8203-0.3422-12.8672-3.6093-16.9148-8.5744c-0.7064,1.2121-1.111,2.6218-1.111,4.1257
	c0,2.8471,1.4488,5.3589,3.6508,6.8306c-1.3452-0.0426-2.6106-0.4118-3.7171-1.0265c-0.0006,0.0343-0.0007,0.0686-0.0007,0.1032
	c0,3.9762,2.8288,7.2931,6.583,8.0469c-0.6887,0.1875-1.4137,0.2878-2.1621,0.2878c-0.5288,0-1.0429-0.0514-1.544-0.1472
	c1.0443,3.2603,4.075,5.633,7.6661,5.6993c-2.8086,2.2009-6.3471,3.5129-10.1919,3.5129c-0.6624,0-1.3157-0.0389-1.9576-0.1146
	c3.6318,2.3284,7.9454,3.6869,12.5798,3.6869c15.0948,0,23.3491-12.5048,23.3491-23.3493c0-0.3558-0.008-0.7097-0.0237-1.0616
	C49.5084,21.6856,50.8998,20.2402,52,18.5945z"/>
</svg>
