<?xml version="1.0" encoding="iso-8859-1"?>
<!-- Generator: Adobe Illustrator 17.1.0, SVG Export Plug-In . SVG Version: 6.00 Build 0)  -->
<!DOCTYPE svg PUBLIC "-//W3C//DTD SVG 1.1//EN" "http://www.w3.org/Graphics/SVG/1.1/DTD/svg11.dtd">
<svg version="1.1" id="rails" xmlns="http://www.w3.org/2000/svg" xmlns:xlink="http://www.w3.org/1999/xlink" x="0px" y="0px"
	 viewBox="0 0 60 60" style="enable-background:new 0 0 60 60;" xml:space="preserve">
<g>
	<path style="fill:#888888;" d="M37.4442,12.0005c-0.1797,0.0032-0.3056,0.0247-0.3372,0.0578
		c-0.0633,0.0663-0.0075,0.3791,0.1204,0.6938c0.2084,0.5124,0.2971,0.5787,0.8769,0.6311c0.356,0.0322,0.7317,0.067,0.8335,0.0819
		c0.1018,0.0148,0.2304-0.0433,0.2843-0.1301c0.0539-0.0868,0.0173-0.3896-0.0771-0.6745c-0.1611-0.486-0.2233-0.5253-1.0455-0.6215
		C37.8584,12.0108,37.6239,11.9972,37.4442,12.0005z"/>
	<path style="fill:#888888;" d="M31.0943,13.1857c-0.3416,0-1.4432,0.6145-1.5369,0.8576
		c-0.1056,0.2741,0.9585,1.6188,1.2815,1.6188c0.1244,0,0.503-0.1854,0.8431-0.4095c0.3402-0.2241,0.6215-0.4869,0.6215-0.5878
		C32.3036,14.3808,31.3259,13.1857,31.0943,13.1857z"/>
	<path style="fill:#888888;" d="M45.649,14.2697c-0.3738,0-0.0456,0.5923,0.53,0.9539c0.695,0.4367,1.0455,0.532,1.0455,0.2891
		C47.2244,15.3478,45.8577,14.2697,45.649,14.2697z"/>
	<path style="fill:#888888;" d="M38.6583,14.3227c-0.5274,0.0129-1.043,0.0915-1.9079,0.2457
		c-1.8143,0.3234-4.0308,1.0253-4.7841,1.5176c-2.855,1.8658-5.327,4.6234-7.5737,8.4505
		c-3.2035,5.457-4.9662,11.8314-5.5453,20.0278l-0.1012,1.4116c0.0169,0.0083,0.0381,0.0165,0.0626,0.0241h8.0073
		c4.4408,0,8.1071-0.0325,8.147-0.0723c0.0399-0.0397-0.2232-0.9642-0.5878-2.0524c-1.1817-3.5271-1.9388-7.6455-1.9464-10.5704
		c-0.01-3.8426,1.1807-8.1037,3.0449-10.8931c1.0017-1.4989,2.5545-3.036,3.0738-3.0401c0.1987-0.0015,0.6701-0.2109,1.0503-0.4673
		c0.3802-0.2565,1.1798-0.6156,1.773-0.7949c1.8372-0.5556,4.3146-0.2393,6.6053,0.8383c0.8094,0.3808,1.0172,0.4286,1.1274,0.2553
		c0.2807-0.4413,0.1154-0.7689-0.7709-1.5032c-2.3413-1.94-4.874-2.9619-8.1277-3.2858c-0.5506-0.0548-0.9507-0.0882-1.3201-0.0915
		C38.8078,14.3211,38.7337,14.3208,38.6583,14.3227z"/>
	<path style="fill:#888888;" d="M24.0602,18.7069c-0.3469,0.064-1.5036,1.5604-1.3056,1.7392
		c0.4245,0.3835,1.8474,1.2279,1.956,1.1611c0.0699-0.043,0.335-0.3836,0.5926-0.7564c0.2576-0.3728,0.4673-0.7424,0.4673-0.819
		c0-0.119-1.0277-0.9364-1.6525-1.3153C24.1028,18.7073,24.0834,18.7027,24.0602,18.7069L24.0602,18.7069z"/>
	<path style="fill:#888888;" d="M45.6008,18.9671c-0.1234,0.0001-0.2297,0.0228-0.2843,0.0771
		c-0.0852,0.0848-0.1112,0.2709-0.0578,0.4095c0.1269,0.3293,1.2671,0.2686,1.2671-0.0674
		C46.5258,19.1773,45.9712,18.9668,45.6008,18.9671z"/>
	<path style="fill:#888888;" d="M40.9805,19.1212c-0.0642,0.0015-0.1441,0.0155-0.2409,0.0385
		c-0.5635,0.1342-0.978,0.3483-0.978,0.5059c0,0.0689,0.1422,0.2506,0.3132,0.4047c0.171,0.1541,0.3083,0.3769,0.3083,0.4914
		c0,0.2525,0.1218,0.2588,0.7564,0.0385c0.5579-0.1937,0.5722-0.2585,0.2602-1.0021
		C41.2475,19.2356,41.1732,19.1181,40.9805,19.1212z"/>
	<path style="fill:#888888;" d="M37.0106,22.1613c-0.1915,0-0.6697,0.5147-0.6697,0.7227c0,0.2671,0.7781,1.4454,0.9539,1.4454
		c0.0722,0,0.2415-0.174,0.3806-0.3854c0.2402-0.365,0.2316-0.4204-0.159-1.084C37.2902,22.4754,37.0644,22.1613,37.0106,22.1613z"
		/>
	<path style="fill:#888888;" d="M18.7221,27.2682c-0.2091,0-0.8768,1.6047-0.8768,2.1054c0,0.1866,1.7095,0.9501,2.1921,0.978
		c0.1754,0.0102,0.3541-0.2933,0.5926-1.0166c0.2771-0.8406,0.2993-1.0659,0.1349-1.2141
		C20.5069,27.8884,19.0231,27.2682,18.7221,27.2682z"/>
	<path style="fill:#888888;" d="M34.4331,27.3309c-0.0451,0.0089-0.0816,0.0427-0.1156,0.0964
		c-0.0807,0.1271-0.148,0.3101-0.1494,0.4095c-0.0012,0.0994-0.0411,0.2882-0.0915,0.4192
		c-0.0594,0.1542,0.1462,0.4585,0.583,0.8624c0.7559,0.699,0.8345,0.728,0.9684,0.3806c0.2362-0.6129,0.0835-1.0947-0.5348-1.6959
		c-0.324-0.3149-0.4971-0.455-0.6119-0.4721C34.464,27.3282,34.4481,27.3279,34.4331,27.3309z"/>
	<path style="fill:#888888;" d="M33.614,33.3339c-0.1755-0.0069-0.223,0.1288-0.2216,0.3999
		c0.0043,0.8665,0.1593,1.0842,1.0599,1.4839c1.1826,0.5248,1.2814,0.5182,1.1756-0.0915c-0.143-0.8243-0.1692-0.8597-1.0262-1.349
		C34.0919,33.486,33.7895,33.3408,33.614,33.3339z"/>
	<path style="fill:#888888;" d="M15.629,37.7952c-0.2612,0-0.9835,2.3356-0.8383,2.7124c0.0783,0.2033,0.6577,0.3005,2.1343,0.3565
		l0.713,0.0241l0.2843-1.243c0.1712-0.7465,0.2305-1.2882,0.1445-1.3634C17.9275,38.1598,16.1029,37.7952,15.629,37.7952z"/>
	<path style="fill:#888888;" d="M34.7559,40.9364c-0.0464,0.0017-0.0764,0.0089-0.0867,0.0193
		c-0.0513,0.051,0.0272,0.4729,0.1734,0.9347c0.2248,0.7102,0.3314,0.8468,0.6889,0.9009c0.5944,0.09,2.2114,0.1259,2.2114,0.0482
		c0-0.3226-0.6601-1.4738-0.8817-1.5369C36.2019,41.1147,35.0806,40.925,34.7559,40.9364z"/>
</g>
</svg>
