<?xml version="1.0" encoding="iso-8859-1"?>
<!-- Generator: Adobe Illustrator 17.1.0, SVG Export Plug-In . SVG Version: 6.00 Build 0)  -->
<!DOCTYPE svg PUBLIC "-//W3C//DTD SVG 1.1//EN" "http://www.w3.org/Graphics/SVG/1.1/DTD/svg11.dtd">
<svg version="1.1" id="bootstrap" xmlns="http://www.w3.org/2000/svg" xmlns:xlink="http://www.w3.org/1999/xlink" x="0px" y="0px"
	 viewBox="0 0 60 60" style="enable-background:new 0 0 60 60;" xml:space="preserve">
<g id="Bootstrap">
	<g>
		<path style="fill-rule:evenodd;clip-rule:evenodd;fill:#888888;" d="M31.1655,31.2128h-3.1232v5.0905h3.1232
			c1.0687,0,1.8702-0.2126,2.4046-0.6379c0.5435-0.4253,0.8153-1.0676,0.8153-1.9268c0-0.8419-0.2672-1.4711-0.8015-1.8878
			C33.0496,31.4255,32.2435,31.2128,31.1655,31.2128z M32.8929,27.2811c0.433-0.3472,0.6495-0.8592,0.6495-1.5362
			c0-0.6683-0.2166-1.176-0.6495-1.5233c-0.433-0.3558-1.0687-0.5338-1.907-0.5338h-2.9435v4.114h2.9435
			C31.8243,27.8019,32.46,27.6283,32.8929,27.2811z M41.5077,12.932H18.4923C15.459,12.932,13,15.3906,13,18.4235v23.1529
			c0,3.0329,2.459,5.4916,5.4923,5.4916h23.0154C44.541,47.068,47,44.6093,47,41.5764V18.4235
			C47,15.3906,44.541,12.932,41.5077,12.932z M37.6882,38.3342c-1.3451,0.92-3.3903,1.38-6.1357,1.38h-8.8306V20.2769h7.9875
			c2.8652,0,4.9381,0.4079,6.2187,1.2238c1.2898,0.8159,1.9347,2.1221,1.9348,3.9187c-0.0001,0.946-0.235,1.7532-0.7048,2.4215
			c-0.4698,0.6597-1.1516,1.15-2.0452,1.4711c1.1424,0.3125,2.0268,0.8896,2.6533,1.7316c0.6265,0.8419,0.9397,1.8747,0.9397,3.0985
			C39.7059,36.0168,39.0333,37.4142,37.6882,38.3342z"/>
	</g>
</g>
</svg>
