<?xml version="1.0" encoding="iso-8859-1"?>
<!-- Generator: Adobe Illustrator 17.1.0, SVG Export Plug-In . SVG Version: 6.00 Build 0)  -->
<!DOCTYPE svg PUBLIC "-//W3C//DTD SVG 1.1//EN" "http://www.w3.org/Graphics/SVG/1.1/DTD/svg11.dtd">
<svg version="1.1" id="dart" xmlns="http://www.w3.org/2000/svg" xmlns:xlink="http://www.w3.org/1999/xlink" x="0px" y="0px"
	 viewBox="0 0 60 60" style="enable-background:new 0 0 60 60;" xml:space="preserve">
<path style="fill:#888888;" d="M41.7851,18.878c-0.6566-0.5466-2.0186-1.2955-3.4425-1.7601l-0.9372-2.6971L32.408,9.4697
	c-1.2687-1.004-2.1312-1.1014-3.168-0.8571L29.0904,8.647L16.787,17.4728L9.3887,29.682c-0.1657,0.5702-0.2034,1.5989,0.9652,2.77
	l4.3489,4.4312l1.9724,0.7211c0.0081,0.0406,0.0099,0.0742,0.0188,0.1156c0.0131,0.0613,0.0291,0.1242,0.0445,0.1876
	c0.0206,0.0851,0.0356,0.1644,0.0603,0.2536l0.1135,0.41l0.0117,0.0043c0.5387,1.6659,1.6236,3.6706,2.6124,4.4464L26.0391,49.5
	l15.2844-0.0925l1.8382-5.8109l5.5233-1.8003l0.0118-15.8714L41.7851,18.878z M29.7624,10.188
	c0.1496-0.035,0.2712-0.0613,0.3836-0.0613c0.106,0,0.4283,0,1.1665,0.5773l4.6574,4.6208l0.4806,1.3833l-16.3488,0.0034
	L29.7624,10.188z M18.2417,37.0173l-0.0135-17.4645l5.4701,5.5357l17.4688,17.4991l-3.7649,1.7182l-19.1084-6.9897
	C18.2755,37.2153,18.2493,37.1062,18.2417,37.0173z M40.1096,47.761l-13.3921,0.0818l-6.0859-6.0552
	c-0.5151-0.407-1.1476-1.4131-1.636-2.4544l18.4667,6.7545l3.6977-1.6452L40.1096,47.761z M47.0322,40.5964l-3.0417,0.9918
	l1.5858-3.653l-6.521-18.7664c0.6929,0.3176,1.2976,0.664,1.6107,0.9225l6.378,6.5082L47.0322,40.5964z"/>
</svg>
