<svg xmlns="http://www.w3.org/2000/svg" viewBox="0 0 36 36" enable-background="new 0 0 36 36"><linearGradient id="a" gradientUnits="userSpaceOnUse" x1="18" y1="28.2" x2="18" y2="35" gradientTransform="matrix(1 0 0 -1 0 36)"><stop offset="0" stop-color="#5E4A80"/><stop offset="1" stop-color="#80578F"/></linearGradient><path fill="url(#a)" d="M32.2 1h-28.4c-1.6 0-2.8 1.2-2.8 2.8v4h34v-4c0-1.6-1.2-2.8-2.8-2.8z"/><linearGradient id="b" gradientUnits="userSpaceOnUse" x1="18" y1="1" x2="18" y2="28.2" gradientTransform="matrix(1 0 0 -1 0 36)"><stop offset="0" stop-color="#5E5E5E"/><stop offset="1" stop-color="#3F3F3F"/></linearGradient><path fill="url(#b)" d="M1 32.2c0 1.6 1.2 2.8 2.8 2.8h28.4c1.6 0 2.8-1.2 2.8-2.8v-24.4h-34v24.4z"/><path fill="#F1F2F2" d="M4.2 11.3h2.8v5.7h-2.8v-5.7z"/><path opacity=".5" fill="#1C1C1C" enable-background="new" d="M1 7.3v24.8c0 1.6 1.2 2.8 2.8 2.8h28.4c1.6 0 2.8-1.2 2.8-2.8v-24.8h-34zm33 1.6v23.3c0 1-.7 1.8-1.8 1.8h-28.4c-1 0-1.8-.7-1.8-1.8v-23.9h32v.6z"/></svg>