<svg xmlns="http://www.w3.org/2000/svg" viewBox="0 0 36 36" enable-background="new 0 0 36 36"><linearGradient id="a" gradientUnits="userSpaceOnUse" x1="19" y1="36" x2="19"><stop offset="0" stop-color="#5E4A80"/><stop offset="1" stop-color="#80578F"/></linearGradient><path fill="url(#a)" d="M22 0h-15c-1.657 0-3 1.343-3 3v30c0 1.657 1.343 3 3 3h24c1.657 0 3-1.343 3-3v-21h-12v-12z"/><g fill="#fff"><path opacity=".4" d="M29 12.32c0 .552-.448 1-1 1h-18c-.552 0-1-.448-1-1s.448-1 1-1h18c.552 0 1 .447 1 1zM29 8.32c0 .552-.448 1-1 1h-18c-.552 0-1-.448-1-1s.448-1 1-1h18c.552 0 1 .447 1 1zM29 20.32c0 .552-.448 1-1 1h-18c-.552 0-1-.448-1-1s.448-1 1-1h18c.552 0 1 .447 1 1zM23.833 16.32c0 .552-.448 1-1 1h-12.833c-.552 0-1-.448-1-1s.448-1 1-1h12.833c.553 0 1 .447 1 1zM23.833 24.514c0 .552-.448 1-1 1h-12.833c-.552 0-1-.448-1-1s.448-1 1-1h12.833c.553 0 1 .447 1 1zM23.833 28.514c0 .552-.448 1-1 1h-12.833c-.552 0-1-.448-1-1s.448-1 1-1h12.833c.553 0 1 .447 1 1z"/></g><linearGradient id="b" gradientUnits="userSpaceOnUse" x1="28" y1="12" x2="28"><stop offset="0" stop-color="#5E4A6E"/><stop offset="1" stop-color="#80578F"/></linearGradient><path fill="url(#b)" d="M22 12h12l-12-12z"/></svg>