<svg xmlns="http://www.w3.org/2000/svg" viewBox="0 0 36 36" enable-background="new 0 0 36 36"><linearGradient id="a" gradientUnits="userSpaceOnUse" x1="18" y1="35" x2="18" y2="1"><stop offset="0" stop-color="#5E4A80"/><stop offset="1" stop-color="#80578F"/></linearGradient><path fill="url(#a)" d="M32.2 1h-28.4c-1.6 0-2.8 1.2-2.8 2.8v28.4c0 1.6 1.204 2.8 2.808 2.8h28.383c1.605 0 2.809-1.2 2.809-2.8v-28.4c0-1.6-1.2-2.8-2.8-2.8z"/><path opacity=".5" fill="#231F20" d="M32.2 2c1.043 0 1.8.757 1.8 1.8v28.4c0 1.043-.76 1.8-1.808 1.8h-28.384c-1.048 0-1.808-.757-1.808-1.8v-28.4c0-1.043.757-1.8 1.8-1.8h28.4m0-1h-28.4c-1.6 0-2.8 1.2-2.8 2.8v28.4c0 1.6 1.204 2.8 2.808 2.8h28.383c1.605 0 2.809-1.2 2.809-2.8v-28.4c0-1.6-1.2-2.8-2.8-2.8z"/><path opacity=".9" fill="#fff" d="M18.321 8.632v4.727c-11.014 0-11.069 11.672-11.069 11.672s2.852-6.034 11.069-6.034v5.263l10.931-7.814-10.931-7.814z"/></svg>